<svg xmlns="http://www.w3.org/2000/svg" xmlns:xlink="http://www.w3.org/1999/xlink" width="40" zoomAndPan="magnify" viewBox="0 0 30 30.000001" height="40" preserveAspectRatio="xMidYMid meet" version="1.0"><defs><g/><clipPath id="570dcb4015"><path d="M 0.328125 0.167969 L 1 0.167969 L 1 1.328125 L 0.328125 1.328125 Z M 0.328125 0.167969 " clip-rule="nonzero"/></clipPath><clipPath id="36dd2da2cf"><rect x="0" width="2" y="0" height="2"/></clipPath><clipPath id="27b7ec1862"><path d="M 1.621094 5.578125 L 28.472656 5.578125 L 28.472656 25 L 1.621094 25 Z M 1.621094 5.578125 " clip-rule="nonzero"/></clipPath><clipPath id="7b50c98242"><path d="M 1.621094 5.578125 L 28.472656 5.578125 L 28.472656 25.175781 L 1.621094 25.175781 Z M 1.621094 5.578125 " clip-rule="nonzero"/></clipPath><clipPath id="33e4006f80"><path d="M 1.621094 11 L 11 11 L 11 13 L 1.621094 13 Z M 1.621094 11 " clip-rule="nonzero"/></clipPath><clipPath id="73b06792c4"><path d="M 1.621094 18 L 11 18 L 11 20 L 1.621094 20 Z M 1.621094 18 " clip-rule="nonzero"/></clipPath><clipPath id="7384e865e6"><path d="M 10 5.578125 L 14 5.578125 L 14 25.175781 L 10 25.175781 Z M 10 5.578125 " clip-rule="nonzero"/></clipPath><clipPath id="f80887bc29"><path d="M 16 5.578125 L 20 5.578125 L 20 25.175781 L 16 25.175781 Z M 16 5.578125 " clip-rule="nonzero"/></clipPath><clipPath id="9e97bc6df6"><path d="M 19 11 L 28.472656 11 L 28.472656 13 L 19 13 Z M 19 11 " clip-rule="nonzero"/></clipPath><clipPath id="7bc31bea88"><path d="M 19 18 L 28.472656 18 L 28.472656 20 L 19 20 Z M 19 18 " clip-rule="nonzero"/></clipPath></defs><g transform="matrix(1, 0, 0, 1, 12, 14)"><g clip-path="url(#36dd2da2cf)"><g clip-path="url(#570dcb4015)"><g fill="#000000" fill-opacity="1"><g transform="translate(0.505628, 1.096776)"><g><path d="M 0.03125 0 L 0.03125 -0.046875 L 0.15625 -0.046875 L 0.15625 -0.40625 C 0.132812 -0.394531 0.113281 -0.382812 0.09375 -0.375 C 0.0820312 -0.363281 0.0664062 -0.359375 0.046875 -0.359375 L 0.046875 -0.40625 C 0.0664062 -0.40625 0.0859375 -0.410156 0.109375 -0.421875 C 0.128906 -0.429688 0.148438 -0.445312 0.171875 -0.46875 L 0.21875 -0.46875 L 0.21875 -0.046875 L 0.328125 -0.046875 L 0.328125 0 Z M 0.03125 0 "/></g></g></g></g></g></g><g clip-path="url(#27b7ec1862)"><path fill="#fbc83a" d="M 28.289062 21.277344 C 28.289062 23.328125 26.648438 24.984375 24.621094 24.984375 L 5.472656 24.984375 C 3.445312 24.984375 1.804688 23.328125 1.804688 21.277344 L 1.804688 9.480469 C 1.804688 7.433594 3.445312 5.773438 5.472656 5.773438 L 24.621094 5.773438 C 26.648438 5.773438 28.289062 7.433594 28.289062 9.480469 L 28.289062 21.277344 " fill-opacity="1" fill-rule="nonzero"/></g><g clip-path="url(#7b50c98242)"><path fill="#1a1a1a" d="M 28.109375 9.480469 C 28.109375 7.535156 26.546875 5.957031 24.621094 5.957031 L 5.472656 5.957031 C 3.546875 5.957031 1.984375 7.535156 1.984375 9.480469 L 1.984375 21.277344 C 1.984375 23.222656 3.546875 24.800781 5.472656 24.800781 L 24.621094 24.800781 C 26.546875 24.800781 28.109375 23.222656 28.109375 21.277344 Z M 28.472656 21.277344 C 28.472656 23.429688 26.75 25.171875 24.621094 25.171875 L 5.472656 25.171875 C 3.34375 25.171875 1.621094 23.429688 1.621094 21.277344 L 1.621094 9.480469 C 1.621094 7.332031 3.34375 5.589844 5.472656 5.589844 L 24.621094 5.589844 C 26.75 5.589844 28.472656 7.332031 28.472656 9.480469 L 28.472656 21.277344 " fill-opacity="1" fill-rule="nonzero"/></g><g clip-path="url(#33e4006f80)"><path fill="#1a1a1a" d="M 10.875 12.164062 L 1.804688 12.164062 L 1.804688 11.792969 L 10.875 11.792969 L 10.875 12.164062 " fill-opacity="1" fill-rule="nonzero"/></g><g clip-path="url(#73b06792c4)"><path fill="#1a1a1a" d="M 10.875 19.015625 L 1.804688 19.015625 L 1.804688 18.644531 L 10.875 18.644531 L 10.875 19.015625 " fill-opacity="1" fill-rule="nonzero"/></g><g clip-path="url(#7384e865e6)"><path fill="#1a1a1a" d="M 13.570312 25.152344 C 12.292969 24.628906 11.394531 23.351562 10.972656 21.453125 C 10.667969 20.078125 10.714844 18.863281 10.71875 18.757812 L 10.6875 15.371094 L 10.71875 11.980469 C 10.714844 11.875 10.667969 10.664062 10.972656 9.285156 C 11.394531 7.390625 12.292969 6.109375 13.570312 5.585938 L 13.707031 5.929688 C 10.875 7.089844 11.082031 11.917969 11.085938 11.96875 C 11.085938 11.972656 11.085938 11.976562 11.085938 11.980469 L 11.054688 15.371094 L 11.085938 18.761719 C 11.085938 18.765625 11.085938 18.769531 11.085938 18.773438 C 11.082031 18.820312 10.878906 23.648438 13.707031 24.8125 L 13.570312 25.152344 " fill-opacity="1" fill-rule="nonzero"/></g><g clip-path="url(#f80887bc29)"><path fill="#1a1a1a" d="M 16.632812 25.152344 L 16.492188 24.8125 C 19.324219 23.648438 19.117188 18.820312 19.117188 18.773438 C 19.117188 18.769531 19.117188 18.765625 19.117188 18.761719 L 19.148438 15.367188 L 19.117188 11.980469 C 19.117188 11.976562 19.117188 11.972656 19.117188 11.96875 C 19.117188 11.917969 19.324219 7.089844 16.492188 5.929688 L 16.632812 5.585938 C 17.910156 6.109375 18.808594 7.390625 19.230469 9.285156 C 19.535156 10.664062 19.488281 11.875 19.480469 11.980469 L 19.511719 15.367188 L 19.480469 18.757812 C 19.488281 18.863281 19.535156 20.078125 19.230469 21.453125 C 18.808594 23.351562 17.910156 24.628906 16.632812 25.152344 " fill-opacity="1" fill-rule="nonzero"/></g><g clip-path="url(#9e97bc6df6)"><path fill="#1a1a1a" d="M 28.335938 12.164062 L 19.261719 12.164062 L 19.261719 11.792969 L 28.335938 11.792969 L 28.335938 12.164062 " fill-opacity="1" fill-rule="nonzero"/></g><g clip-path="url(#7bc31bea88)"><path fill="#1a1a1a" d="M 28.335938 19.015625 L 19.308594 19.015625 L 19.308594 18.644531 L 28.335938 18.644531 L 28.335938 19.015625 " fill-opacity="1" fill-rule="nonzero"/></g></svg>