<svg xmlns="http://www.w3.org/2000/svg" xmlns:xlink="http://www.w3.org/1999/xlink" width="40" zoomAndPan="magnify" viewBox="0 0 30 30.000001" height="40" preserveAspectRatio="xMidYMid meet" version="1.0"><defs><g/><clipPath id="f5c9b6f8ab"><path d="M 1 1 L 1.722656 1 L 1.722656 2 L 1 2 Z M 1 1 " clip-rule="nonzero"/></clipPath><clipPath id="2d62b7976e"><rect x="0" width="2" y="0" height="3"/></clipPath><clipPath id="4538ae65b5"><path d="M 6.625 4 L 20.414062 4 L 20.414062 15.582031 L 6.625 15.582031 Z M 6.625 4 " clip-rule="nonzero"/></clipPath><clipPath id="3a8aafa86e"><path d="M 9.414062 13.140625 L 23.207031 13.140625 L 23.207031 24.753906 L 9.414062 24.753906 Z M 9.414062 13.140625 " clip-rule="nonzero"/></clipPath></defs><g transform="matrix(1, 0, 0, 1, 12, 11)"><g clip-path="url(#2d62b7976e)"><g clip-path="url(#f5c9b6f8ab)"><g fill="#000000" fill-opacity="1"><g transform="translate(0.984358, 1.867994)"><g><path d="M 0.0625 0 L 0.0625 -0.078125 L 0.28125 -0.078125 L 0.28125 -0.71875 L 0.265625 -0.71875 C 0.234375 -0.695312 0.203125 -0.679688 0.171875 -0.671875 C 0.148438 -0.660156 0.113281 -0.648438 0.0625 -0.640625 L 0.0625 -0.734375 C 0.113281 -0.742188 0.160156 -0.753906 0.203125 -0.765625 C 0.242188 -0.785156 0.28125 -0.804688 0.3125 -0.828125 L 0.375 -0.828125 L 0.375 -0.078125 L 0.578125 -0.078125 L 0.578125 0 Z M 0.0625 0 "/></g></g></g></g></g></g><path fill="#178b53" d="M 15.492188 11.613281 L 15.871094 11.4375 L 15.433594 10.972656 Z M 15.492188 11.613281 " fill-opacity="1" fill-rule="nonzero"/><g clip-path="url(#4538ae65b5)"><path fill="#178b53" d="M 20.347656 10.21875 L 17.964844 4.8125 C 17.703125 4.230469 17.035156 3.96875 16.453125 4.199219 L 7.46875 8.125 C 6.886719 8.359375 6.625 9.054688 6.859375 9.636719 L 9.242188 15.042969 C 9.503906 15.625 10.171875 15.886719 10.753906 15.65625 L 19.738281 11.730469 C 20.320312 11.496094 20.582031 10.800781 20.347656 10.21875 Z M 8.429688 11.03125 L 7.671875 9.316406 L 17.0625 5.246094 L 17.820312 6.960938 Z M 11.628906 13.96875 L 10.582031 14.433594 C 10.375 14.519531 10.171875 14.433594 10.085938 14.230469 L 9.648438 13.242188 C 9.5625 13.039062 9.648438 12.835938 9.855469 12.746094 L 10.898438 12.28125 C 11.105469 12.195312 11.308594 12.28125 11.394531 12.484375 L 11.832031 13.472656 C 11.917969 13.679688 11.832031 13.910156 11.628906 13.96875 Z M 16.367188 11.90625 L 16.105469 11.644531 L 15.523438 11.90625 L 15.550781 12.28125 L 15.230469 12.425781 L 15.171875 10.710938 L 15.492188 10.566406 L 16.714844 11.757812 Z M 17.003906 11.613281 L 16.480469 10.394531 L 16.046875 10.566406 L 15.929688 10.363281 L 17.09375 9.871094 L 17.207031 10.101562 L 16.773438 10.277344 L 17.296875 11.496094 Z M 19.039062 10.742188 L 18.546875 9.578125 L 18.75 10.859375 L 18.457031 10.972656 L 17.671875 9.957031 L 18.167969 11.089844 L 17.90625 11.207031 L 17.265625 9.753906 L 17.703125 9.550781 L 18.402344 10.421875 L 18.253906 9.347656 L 18.691406 9.144531 L 19.332031 10.597656 Z M 19.039062 10.742188 " fill-opacity="1" fill-rule="nonzero"/></g><path fill="#178b53" d="M 18.285156 20.785156 L 18.664062 20.609375 L 18.226562 20.144531 Z M 18.285156 20.785156 " fill-opacity="1" fill-rule="nonzero"/><g clip-path="url(#3a8aafa86e)"><path fill="#178b53" d="M 23.140625 19.390625 L 20.757812 13.984375 C 20.496094 13.402344 19.828125 13.140625 19.246094 13.371094 L 10.261719 17.296875 C 9.679688 17.527344 9.417969 18.226562 9.652344 18.808594 L 12.035156 24.214844 C 12.296875 24.796875 12.964844 25.058594 13.546875 24.824219 L 22.53125 20.902344 C 23.113281 20.667969 23.371094 19.972656 23.140625 19.390625 Z M 11.222656 20.203125 L 10.464844 18.488281 L 19.855469 14.417969 L 20.609375 16.132812 Z M 14.417969 23.140625 L 13.371094 23.605469 C 13.167969 23.691406 12.964844 23.605469 12.878906 23.402344 L 12.441406 22.414062 C 12.355469 22.210938 12.441406 22.007812 12.644531 21.917969 L 13.691406 21.453125 C 13.894531 21.367188 14.097656 21.453125 14.1875 21.65625 L 14.621094 22.644531 C 14.710938 22.847656 14.621094 23.082031 14.417969 23.140625 Z M 19.15625 21.074219 L 18.894531 20.8125 L 18.316406 21.074219 L 18.34375 21.453125 L 18.023438 21.597656 L 17.964844 19.882812 L 18.285156 19.738281 L 19.507812 20.929688 Z M 19.796875 20.785156 L 19.273438 19.5625 L 18.839844 19.738281 L 18.722656 19.535156 L 19.882812 19.039062 L 20 19.273438 L 19.566406 19.449219 L 20.089844 20.667969 Z M 21.832031 19.914062 L 21.339844 18.75 L 21.542969 20.027344 L 21.25 20.144531 L 20.464844 19.128906 L 20.960938 20.261719 L 20.699219 20.378906 L 20.058594 18.925781 L 20.496094 18.722656 L 21.191406 19.59375 L 21.046875 18.519531 L 21.484375 18.3125 L 22.121094 19.769531 Z M 21.832031 19.914062 " fill-opacity="1" fill-rule="nonzero"/></g></svg>