<svg xmlns="http://www.w3.org/2000/svg" xmlns:xlink="http://www.w3.org/1999/xlink" width="60" zoomAndPan="magnify" viewBox="0 0 45 44.999999" height="60" preserveAspectRatio="xMidYMid meet" version="1.0"><defs><clipPath id="32d994ef83"><path d="M 1.988281 1.988281 L 43.011719 1.988281 L 43.011719 43.011719 L 1.988281 43.011719 Z M 1.988281 1.988281 " clip-rule="nonzero"/></clipPath><clipPath id="c4819ecec1"><path d="M 22.5 1.988281 C 11.171875 1.988281 1.988281 11.171875 1.988281 22.5 C 1.988281 33.828125 11.171875 43.011719 22.5 43.011719 C 33.828125 43.011719 43.011719 33.828125 43.011719 22.5 C 43.011719 11.171875 33.828125 1.988281 22.5 1.988281 Z M 22.5 1.988281 " clip-rule="nonzero"/></clipPath><clipPath id="aa21f5fb42"><path d="M 0.988281 0.988281 L 42.011719 0.988281 L 42.011719 42.011719 L 0.988281 42.011719 Z M 0.988281 0.988281 " clip-rule="nonzero"/></clipPath><clipPath id="da097a1b04"><path d="M 21.5 0.988281 C 10.171875 0.988281 0.988281 10.171875 0.988281 21.5 C 0.988281 32.828125 10.171875 42.011719 21.5 42.011719 C 32.828125 42.011719 42.011719 32.828125 42.011719 21.5 C 42.011719 10.171875 32.828125 0.988281 21.5 0.988281 Z M 21.5 0.988281 " clip-rule="nonzero"/></clipPath><clipPath id="d1180b09c6"><rect x="0" width="43" y="0" height="43"/></clipPath><clipPath id="acb6aeed2e"><path d="M 11.214844 10.695312 L 33.714844 10.695312 L 33.714844 33.945312 L 11.214844 33.945312 Z M 11.214844 10.695312 " clip-rule="nonzero"/></clipPath></defs><g clip-path="url(#32d994ef83)"><g clip-path="url(#c4819ecec1)"><g transform="matrix(1, 0, 0, 1, 1, 1)"><g clip-path="url(#d1180b09c6)"><g clip-path="url(#aa21f5fb42)"><g clip-path="url(#da097a1b04)"><path fill="#3cb773" d="M 0.988281 0.988281 L 42.011719 0.988281 L 42.011719 42.011719 L 0.988281 42.011719 Z M 0.988281 0.988281 " fill-opacity="1" fill-rule="nonzero"/></g></g></g></g></g></g><g clip-path="url(#acb6aeed2e)"><path fill="#ffffff" d="M 27.660156 10.695312 L 17.339844 10.695312 C 16.71875 10.695312 16.214844 11.203125 16.214844 11.824219 L 16.214844 33.171875 C 16.214844 33.792969 16.71875 34.296875 17.339844 34.296875 L 27.660156 34.296875 C 28.28125 34.296875 28.789062 33.792969 28.789062 33.171875 L 28.789062 11.824219 C 28.789062 11.203125 28.28125 10.695312 27.660156 10.695312 Z M 24.566406 11.285156 L 24.355469 12.070312 C 24.34375 12.109375 24.308594 12.136719 24.265625 12.136719 L 20.734375 12.136719 C 20.691406 12.136719 20.660156 12.109375 20.648438 12.070312 L 20.4375 11.285156 Z M 17.339844 11.285156 L 19.828125 11.285156 L 20.078125 12.21875 C 20.160156 12.519531 20.421875 12.722656 20.734375 12.722656 L 24.265625 12.722656 C 24.578125 12.722656 24.839844 12.519531 24.921875 12.21875 L 25.171875 11.285156 L 27.660156 11.285156 C 27.957031 11.285156 28.199219 11.527344 28.199219 11.824219 L 28.199219 30.800781 L 16.800781 30.800781 L 16.800781 11.824219 C 16.800781 11.527344 17.042969 11.285156 17.339844 11.285156 Z M 27.660156 33.710938 L 17.339844 33.710938 C 17.042969 33.710938 16.800781 33.46875 16.800781 33.171875 L 16.800781 31.386719 L 28.199219 31.386719 L 28.199219 33.171875 C 28.199219 33.46875 27.957031 33.710938 27.660156 33.710938 Z M 18.324219 16.1875 L 19.578125 16.1875 C 19.9375 16.1875 20.226562 15.898438 20.226562 15.542969 L 20.226562 14.285156 C 20.226562 13.929688 19.9375 13.636719 19.578125 13.636719 L 18.324219 13.636719 C 17.964844 13.636719 17.675781 13.929688 17.675781 14.285156 L 17.675781 15.542969 C 17.675781 15.898438 17.964844 16.1875 18.324219 16.1875 Z M 18.265625 14.285156 C 18.265625 14.253906 18.292969 14.226562 18.324219 14.226562 L 19.578125 14.226562 C 19.613281 14.226562 19.636719 14.253906 19.636719 14.285156 L 19.636719 15.542969 C 19.636719 15.574219 19.609375 15.601562 19.578125 15.601562 L 18.324219 15.601562 C 18.289062 15.601562 18.265625 15.574219 18.265625 15.542969 Z M 21.871094 16.1875 L 23.128906 16.1875 C 23.484375 16.1875 23.773438 15.898438 23.773438 15.542969 L 23.773438 14.285156 C 23.773438 13.929688 23.484375 13.636719 23.128906 13.636719 L 21.871094 13.636719 C 21.515625 13.636719 21.226562 13.929688 21.226562 14.285156 L 21.226562 15.542969 C 21.226562 15.898438 21.515625 16.1875 21.871094 16.1875 Z M 21.8125 14.285156 C 21.8125 14.253906 21.839844 14.226562 21.871094 14.226562 L 23.128906 14.226562 C 23.160156 14.226562 23.1875 14.253906 23.1875 14.285156 L 23.1875 15.542969 C 23.1875 15.574219 23.160156 15.601562 23.128906 15.601562 L 21.871094 15.601562 C 21.839844 15.601562 21.8125 15.574219 21.8125 15.542969 Z M 25.421875 16.1875 L 26.679688 16.1875 C 27.035156 16.1875 27.324219 15.898438 27.324219 15.542969 L 27.324219 14.285156 C 27.324219 13.929688 27.035156 13.636719 26.679688 13.636719 L 25.421875 13.636719 C 25.066406 13.636719 24.777344 13.929688 24.777344 14.285156 L 24.777344 15.542969 C 24.777344 15.898438 25.066406 16.1875 25.421875 16.1875 Z M 25.363281 14.285156 C 25.363281 14.253906 25.390625 14.226562 25.421875 14.226562 L 26.679688 14.226562 C 26.710938 14.226562 26.738281 14.253906 26.738281 14.285156 L 26.738281 15.542969 C 26.738281 15.574219 26.710938 15.601562 26.679688 15.601562 L 25.421875 15.601562 C 25.390625 15.601562 25.363281 15.574219 25.363281 15.542969 Z M 18.324219 19.601562 L 19.578125 19.601562 C 19.9375 19.601562 20.226562 19.3125 20.226562 18.953125 L 20.226562 17.699219 C 20.226562 17.339844 19.9375 17.050781 19.578125 17.050781 L 18.324219 17.050781 C 17.964844 17.050781 17.675781 17.339844 17.675781 17.699219 L 17.675781 18.953125 C 17.675781 19.3125 17.964844 19.601562 18.324219 19.601562 Z M 18.265625 17.699219 C 18.265625 17.664062 18.292969 17.640625 18.324219 17.640625 L 19.578125 17.640625 C 19.613281 17.640625 19.636719 17.664062 19.636719 17.699219 L 19.636719 18.953125 C 19.636719 18.988281 19.609375 19.011719 19.578125 19.011719 L 18.324219 19.011719 C 18.289062 19.011719 18.265625 18.984375 18.265625 18.953125 Z M 21.871094 19.601562 L 23.128906 19.601562 C 23.484375 19.601562 23.773438 19.3125 23.773438 18.953125 L 23.773438 17.699219 C 23.773438 17.339844 23.484375 17.050781 23.128906 17.050781 L 21.871094 17.050781 C 21.515625 17.050781 21.226562 17.339844 21.226562 17.699219 L 21.226562 18.953125 C 21.226562 19.3125 21.515625 19.601562 21.871094 19.601562 Z M 21.8125 17.699219 C 21.8125 17.664062 21.839844 17.640625 21.871094 17.640625 L 23.128906 17.640625 C 23.160156 17.640625 23.1875 17.664062 23.1875 17.699219 L 23.1875 18.953125 C 23.1875 18.988281 23.160156 19.011719 23.128906 19.011719 L 21.871094 19.011719 C 21.839844 19.011719 21.8125 18.984375 21.8125 18.953125 Z M 25.421875 19.601562 L 26.679688 19.601562 C 27.035156 19.601562 27.324219 19.3125 27.324219 18.953125 L 27.324219 17.699219 C 27.324219 17.339844 27.035156 17.050781 26.679688 17.050781 L 25.421875 17.050781 C 25.066406 17.050781 24.777344 17.339844 24.777344 17.699219 L 24.777344 18.953125 C 24.777344 19.3125 25.066406 19.601562 25.421875 19.601562 Z M 25.363281 17.699219 C 25.363281 17.664062 25.390625 17.640625 25.421875 17.640625 L 26.679688 17.640625 C 26.710938 17.640625 26.738281 17.664062 26.738281 17.699219 L 26.738281 18.953125 C 26.738281 18.988281 26.710938 19.011719 26.679688 19.011719 L 25.421875 19.011719 C 25.390625 19.011719 25.363281 18.984375 25.363281 18.953125 Z M 18.324219 23.011719 L 19.578125 23.011719 C 19.9375 23.011719 20.226562 22.722656 20.226562 22.367188 L 20.226562 21.109375 C 20.226562 20.753906 19.9375 20.464844 19.578125 20.464844 L 18.324219 20.464844 C 17.964844 20.464844 17.675781 20.753906 17.675781 21.109375 L 17.675781 22.367188 C 17.675781 22.722656 17.964844 23.011719 18.324219 23.011719 Z M 18.265625 21.109375 C 18.265625 21.078125 18.292969 21.050781 18.324219 21.050781 L 19.578125 21.050781 C 19.613281 21.050781 19.636719 21.078125 19.636719 21.109375 L 19.636719 22.367188 C 19.636719 22.398438 19.609375 22.425781 19.578125 22.425781 L 18.324219 22.425781 C 18.289062 22.425781 18.265625 22.398438 18.265625 22.367188 Z M 21.871094 23.011719 L 23.128906 23.011719 C 23.484375 23.011719 23.773438 22.722656 23.773438 22.367188 L 23.773438 21.109375 C 23.773438 20.753906 23.484375 20.464844 23.128906 20.464844 L 21.871094 20.464844 C 21.515625 20.464844 21.226562 20.753906 21.226562 21.109375 L 21.226562 22.367188 C 21.226562 22.722656 21.515625 23.011719 21.871094 23.011719 Z M 21.8125 21.109375 C 21.8125 21.078125 21.839844 21.050781 21.871094 21.050781 L 23.128906 21.050781 C 23.160156 21.050781 23.1875 21.078125 23.1875 21.109375 L 23.1875 22.367188 C 23.1875 22.398438 23.160156 22.425781 23.128906 22.425781 L 21.871094 22.425781 C 21.839844 22.425781 21.8125 22.398438 21.8125 22.367188 Z M 25.421875 23.011719 L 26.679688 23.011719 C 27.035156 23.011719 27.324219 22.722656 27.324219 22.367188 L 27.324219 21.109375 C 27.324219 20.753906 27.035156 20.464844 26.679688 20.464844 L 25.421875 20.464844 C 25.066406 20.464844 24.777344 20.753906 24.777344 21.109375 L 24.777344 22.367188 C 24.777344 22.722656 25.066406 23.011719 25.421875 23.011719 Z M 25.363281 21.109375 C 25.363281 21.078125 25.390625 21.050781 25.421875 21.050781 L 26.679688 21.050781 C 26.710938 21.050781 26.738281 21.078125 26.738281 21.109375 L 26.738281 22.367188 C 26.738281 22.398438 26.710938 22.425781 26.679688 22.425781 L 25.421875 22.425781 C 25.390625 22.425781 25.363281 22.398438 25.363281 22.367188 Z M 18.324219 26.425781 L 19.578125 26.425781 C 19.9375 26.425781 20.226562 26.136719 20.226562 25.78125 L 20.226562 24.523438 C 20.226562 24.167969 19.9375 23.878906 19.578125 23.878906 L 18.324219 23.878906 C 17.964844 23.878906 17.675781 24.167969 17.675781 24.523438 L 17.675781 25.78125 C 17.675781 26.136719 17.964844 26.425781 18.324219 26.425781 Z M 18.265625 24.523438 C 18.265625 24.492188 18.292969 24.464844 18.324219 24.464844 L 19.578125 24.464844 C 19.613281 24.464844 19.636719 24.492188 19.636719 24.523438 L 19.636719 25.78125 C 19.636719 25.8125 19.609375 25.839844 19.578125 25.839844 L 18.324219 25.839844 C 18.289062 25.839844 18.265625 25.8125 18.265625 25.78125 Z M 21.871094 26.425781 L 23.128906 26.425781 C 23.484375 26.425781 23.773438 26.136719 23.773438 25.78125 L 23.773438 24.523438 C 23.773438 24.167969 23.484375 23.878906 23.128906 23.878906 L 21.871094 23.878906 C 21.515625 23.878906 21.226562 24.167969 21.226562 24.523438 L 21.226562 25.78125 C 21.226562 26.136719 21.515625 26.425781 21.871094 26.425781 Z M 21.8125 24.523438 C 21.8125 24.492188 21.839844 24.464844 21.871094 24.464844 L 23.128906 24.464844 C 23.160156 24.464844 23.1875 24.492188 23.1875 24.523438 L 23.1875 25.78125 C 23.1875 25.8125 23.160156 25.839844 23.128906 25.839844 L 21.871094 25.839844 C 21.839844 25.839844 21.8125 25.8125 21.8125 25.78125 Z M 25.421875 26.425781 L 26.679688 26.425781 C 27.035156 26.425781 27.324219 26.136719 27.324219 25.78125 L 27.324219 24.523438 C 27.324219 24.167969 27.035156 23.878906 26.679688 23.878906 L 25.421875 23.878906 C 25.066406 23.878906 24.777344 24.167969 24.777344 24.523438 L 24.777344 25.78125 C 24.777344 26.136719 25.066406 26.425781 25.421875 26.425781 Z M 25.363281 24.523438 C 25.363281 24.492188 25.390625 24.464844 25.421875 24.464844 L 26.679688 24.464844 C 26.710938 24.464844 26.738281 24.492188 26.738281 24.523438 L 26.738281 25.78125 C 26.738281 25.8125 26.710938 25.839844 26.679688 25.839844 L 25.421875 25.839844 C 25.390625 25.839844 25.363281 25.8125 25.363281 25.78125 Z M 20.742188 29.363281 C 20.742188 29.199219 20.875 29.070312 21.035156 29.070312 C 21.199219 29.070312 21.332031 29.199219 21.332031 29.363281 C 21.332031 29.523438 21.199219 29.65625 21.035156 29.65625 C 20.875 29.65625 20.742188 29.523438 20.742188 29.363281 Z M 22.792969 29.363281 C 22.792969 29.523438 22.664062 29.65625 22.5 29.65625 C 22.339844 29.65625 22.207031 29.523438 22.207031 29.363281 C 22.207031 29.199219 22.339844 29.070312 22.5 29.070312 C 22.664062 29.070312 22.792969 29.199219 22.792969 29.363281 Z M 23.964844 29.070312 C 24.125 29.070312 24.257812 29.199219 24.257812 29.363281 C 24.257812 29.523438 24.125 29.65625 23.964844 29.65625 C 23.800781 29.65625 23.671875 29.523438 23.671875 29.363281 C 23.671875 29.199219 23.800781 29.070312 23.964844 29.070312 Z M 22.5 31.785156 C 22.078125 31.785156 21.738281 32.128906 21.738281 32.550781 C 21.738281 32.96875 22.078125 33.3125 22.5 33.3125 C 22.921875 33.3125 23.261719 32.96875 23.261719 32.550781 C 23.261719 32.128906 22.921875 31.785156 22.5 31.785156 Z M 22.5 32.726562 C 22.402344 32.726562 22.324219 32.644531 22.324219 32.550781 C 22.324219 32.453125 22.402344 32.375 22.5 32.375 C 22.597656 32.375 22.675781 32.453125 22.675781 32.550781 C 22.675781 32.644531 22.597656 32.726562 22.5 32.726562 Z M 19.71875 32.117188 C 19.71875 32.277344 19.585938 32.410156 19.421875 32.410156 L 18.230469 32.410156 C 18.066406 32.410156 17.9375 32.277344 17.9375 32.117188 C 17.9375 31.953125 18.066406 31.820312 18.230469 31.820312 L 19.421875 31.820312 C 19.585938 31.820312 19.71875 31.953125 19.71875 32.117188 Z M 19.71875 32.984375 C 19.71875 33.144531 19.585938 33.277344 19.421875 33.277344 L 18.230469 33.277344 C 18.066406 33.277344 17.9375 33.144531 17.9375 32.984375 C 17.9375 32.820312 18.066406 32.691406 18.230469 32.691406 L 19.421875 32.691406 C 19.585938 32.691406 19.71875 32.820312 19.71875 32.984375 Z M 26.917969 32.320312 L 26.519531 32.550781 L 26.917969 32.78125 C 27.058594 32.859375 27.105469 33.039062 27.027344 33.179688 C 26.972656 33.273438 26.875 33.328125 26.773438 33.328125 C 26.722656 33.328125 26.671875 33.316406 26.625 33.289062 L 25.785156 32.804688 C 25.695312 32.75 25.640625 32.65625 25.640625 32.550781 C 25.640625 32.445312 25.695312 32.347656 25.785156 32.296875 L 26.625 31.808594 C 26.765625 31.730469 26.945312 31.777344 27.027344 31.917969 C 27.109375 32.058594 27.058594 32.238281 26.917969 32.320312 Z M 30.144531 20.945312 C 30.03125 20.828125 30.03125 20.644531 30.144531 20.527344 L 31.847656 18.824219 C 31.960938 18.710938 32.148438 18.710938 32.265625 18.824219 C 32.378906 18.941406 32.378906 19.125 32.265625 19.242188 L 30.5625 20.945312 C 30.503906 21 30.429688 21.03125 30.351562 21.03125 C 30.277344 21.03125 30.203125 21 30.144531 20.945312 Z M 33.785156 22.496094 C 33.785156 22.660156 33.652344 22.792969 33.492188 22.792969 L 31.082031 22.792969 C 30.921875 22.792969 30.789062 22.660156 30.789062 22.496094 C 30.789062 22.335938 30.921875 22.203125 31.082031 22.203125 L 33.492188 22.203125 C 33.652344 22.203125 33.785156 22.335938 33.785156 22.496094 Z M 32.265625 25.753906 C 32.378906 25.867188 32.378906 26.054688 32.265625 26.167969 C 32.207031 26.226562 32.132812 26.253906 32.054688 26.253906 C 31.980469 26.253906 31.90625 26.226562 31.847656 26.167969 L 30.144531 24.464844 C 30.03125 24.351562 30.03125 24.164062 30.144531 24.050781 C 30.261719 23.9375 30.445312 23.9375 30.5625 24.050781 Z M 14.855469 20.527344 C 14.96875 20.644531 14.96875 20.828125 14.855469 20.945312 C 14.800781 21 14.722656 21.03125 14.648438 21.03125 C 14.574219 21.03125 14.5 21 14.441406 20.945312 L 12.738281 19.242188 C 12.625 19.125 12.625 18.941406 12.738281 18.824219 C 12.851562 18.710938 13.039062 18.710938 13.152344 18.824219 Z M 13.917969 22.792969 L 11.511719 22.792969 C 11.347656 22.792969 11.214844 22.660156 11.214844 22.496094 C 11.214844 22.335938 11.347656 22.203125 11.511719 22.203125 L 13.917969 22.203125 C 14.082031 22.203125 14.210938 22.335938 14.210938 22.496094 C 14.210938 22.660156 14.082031 22.792969 13.917969 22.792969 Z M 14.855469 24.050781 C 14.96875 24.164062 14.96875 24.351562 14.855469 24.464844 L 13.152344 26.167969 C 13.097656 26.226562 13.019531 26.253906 12.945312 26.253906 C 12.871094 26.253906 12.796875 26.226562 12.738281 26.167969 C 12.625 26.054688 12.625 25.867188 12.738281 25.753906 L 14.441406 24.050781 C 14.554688 23.9375 14.742188 23.9375 14.855469 24.050781 Z M 14.855469 24.050781 " fill-opacity="1" fill-rule="nonzero"/></g></svg>