<svg xmlns="http://www.w3.org/2000/svg" xmlns:xlink="http://www.w3.org/1999/xlink" width="40" zoomAndPan="magnify" viewBox="0 0 30 30.000001" height="40" preserveAspectRatio="xMidYMid meet" version="1.0"><defs><g/><clipPath id="e50a0d489b"><path d="M 0.347656 1 L 1 1 L 1 2.621094 L 0.347656 2.621094 Z M 0.347656 1 " clip-rule="nonzero"/></clipPath><clipPath id="e1b90d71ba"><rect x="0" width="2" y="0" height="3"/></clipPath><clipPath id="9253fd712b"><path d="M 4.246094 3.816406 L 26 3.816406 L 26 24.863281 L 4.246094 24.863281 Z M 4.246094 3.816406 " clip-rule="nonzero"/></clipPath></defs><g transform="matrix(1, 0, 0, 1, 15, 22)"><g clip-path="url(#e1b90d71ba)"><g clip-path="url(#e50a0d489b)"><g fill="#000000" fill-opacity="1"><g transform="translate(0.467749, 2.088132)"><g><path d="M 0.046875 0 L 0.046875 -0.0625 L 0.234375 -0.0625 L 0.234375 -0.609375 C 0.203125 -0.585938 0.171875 -0.570312 0.140625 -0.5625 C 0.117188 -0.550781 0.09375 -0.546875 0.0625 -0.546875 L 0.0625 -0.625 C 0.09375 -0.625 0.125 -0.628906 0.15625 -0.640625 C 0.195312 -0.660156 0.226562 -0.679688 0.25 -0.703125 L 0.3125 -0.703125 L 0.3125 -0.0625 L 0.484375 -0.0625 L 0.484375 0 Z M 0.046875 0 "/></g></g></g></g></g></g><g clip-path="url(#9253fd712b)"><path fill="#178b53" d="M 15.066406 3.832031 C 11.902344 3.832031 9.0625 5.226562 7.105469 7.417969 L 6.828125 5.976562 L 4.730469 6.386719 L 5.675781 11.261719 L 10.554688 10.316406 L 10.144531 8.21875 L 9.078125 8.425781 C 10.617188 6.910156 12.726562 5.96875 15.066406 5.96875 C 19.800781 5.96875 23.613281 9.78125 23.613281 14.511719 C 23.613281 19.246094 19.800781 23.054688 15.066406 23.054688 L 14 23.054688 L 14 25.191406 L 15.066406 25.191406 C 20.953125 25.191406 25.75 20.398438 25.75 14.511719 C 25.75 8.625 20.953125 3.832031 15.066406 3.832031 Z M 14 8.101562 L 14 9.332031 C 13.394531 9.457031 12.84375 9.695312 12.402344 10.058594 C 11.742188 10.609375 11.339844 11.441406 11.339844 12.304688 C 11.339844 13.382812 11.980469 14.3125 12.71875 14.734375 C 13.457031 15.160156 14.21875 15.277344 14.886719 15.414062 C 15.554688 15.546875 16.125 15.699219 16.390625 15.863281 C 16.660156 16.027344 16.722656 16.03125 16.722656 16.539062 C 16.722656 16.964844 16.613281 17.121094 16.335938 17.3125 C 16.058594 17.507812 15.550781 17.660156 14.917969 17.660156 C 14.175781 17.660156 13.570312 17.257812 13.292969 16.726562 L 12.796875 15.78125 L 10.902344 16.773438 L 11.398438 17.722656 C 11.921875 18.714844 12.875 19.425781 14 19.683594 L 14 20.921875 L 16.136719 20.921875 L 16.136719 19.664062 C 16.644531 19.550781 17.132812 19.363281 17.5625 19.0625 C 18.324219 18.527344 18.859375 17.585938 18.859375 16.539062 C 18.859375 15.4375 18.246094 14.492188 17.503906 14.039062 C 16.761719 13.585938 15.988281 13.457031 15.3125 13.320312 C 14.632812 13.179688 14.050781 13.039062 13.78125 12.882812 C 13.511719 12.726562 13.476562 12.761719 13.476562 12.304688 C 13.476562 12.054688 13.554688 11.878906 13.769531 11.703125 C 13.980469 11.523438 14.359375 11.363281 14.949219 11.363281 C 15.660156 11.363281 16.183594 11.828125 16.257812 11.898438 L 17.015625 12.652344 L 18.519531 11.136719 L 17.761719 10.386719 C 17.570312 10.195312 17.007812 9.6875 16.136719 9.410156 L 16.136719 8.101562 Z M 5.394531 13.3125 C 5.101562 13.324219 4.808594 13.453125 4.597656 13.667969 C 4.375 13.882812 4.246094 14.191406 4.246094 14.511719 C 4.246094 14.832031 4.375 15.140625 4.597656 15.355469 C 4.824219 15.578125 5.132812 15.71875 5.453125 15.71875 C 5.527344 15.71875 5.613281 15.707031 5.691406 15.6875 C 5.765625 15.675781 5.839844 15.652344 5.914062 15.621094 C 5.988281 15.589844 6.050781 15.558594 6.117188 15.503906 C 6.191406 15.460938 6.242188 15.417969 6.296875 15.355469 C 6.53125 15.140625 6.664062 14.832031 6.664062 14.511719 C 6.664062 14.191406 6.53125 13.882812 6.296875 13.667969 C 6.242188 13.605469 6.191406 13.5625 6.117188 13.507812 C 6.050781 13.464844 5.988281 13.433594 5.914062 13.402344 C 5.839844 13.371094 5.765625 13.347656 5.691406 13.335938 C 5.59375 13.316406 5.496094 13.308594 5.394531 13.3125 Z M 6.191406 16.996094 C 6.035156 16.992188 5.875 17.023438 5.722656 17.085938 C 5.113281 17.34375 4.824219 18.046875 5.078125 18.65625 C 5.273438 19.128906 5.710938 19.402344 6.191406 19.402344 C 6.339844 19.402344 6.5 19.371094 6.648438 19.308594 C 7.257812 19.050781 7.546875 18.347656 7.300781 17.738281 C 7.101562 17.28125 6.660156 17 6.191406 16.996094 Z M 8.269531 20.113281 C 7.960938 20.113281 7.65625 20.230469 7.417969 20.460938 C 6.960938 20.929688 6.960938 21.699219 7.429688 22.160156 C 7.664062 22.394531 7.964844 22.511719 8.273438 22.511719 C 8.585938 22.511719 8.894531 22.394531 9.128906 22.160156 C 9.597656 21.691406 9.597656 20.929688 9.128906 20.460938 L 9.117188 20.460938 C 8.882812 20.226562 8.574219 20.113281 8.269531 20.113281 Z M 11.160156 22.222656 C 11.085938 22.234375 11.011719 22.253906 10.9375 22.285156 C 10.863281 22.320312 10.796875 22.351562 10.730469 22.394531 C 10.65625 22.4375 10.605469 22.488281 10.539062 22.542969 C 10.488281 22.609375 10.445312 22.660156 10.390625 22.726562 C 10.347656 22.789062 10.316406 22.863281 10.285156 22.941406 C 10.25 23.015625 10.230469 23.089844 10.21875 23.164062 C 10.195312 23.238281 10.195312 23.324219 10.195312 23.398438 C 10.195312 23.71875 10.3125 24.027344 10.539062 24.242188 C 10.601562 24.304688 10.65625 24.347656 10.730469 24.390625 C 10.792969 24.433594 10.859375 24.476562 10.933594 24.507812 C 11.007812 24.539062 11.082031 24.5625 11.15625 24.574219 C 11.234375 24.59375 11.320312 24.59375 11.394531 24.59375 C 11.46875 24.59375 11.554688 24.59375 11.628906 24.574219 C 11.703125 24.5625 11.777344 24.539062 11.851562 24.507812 C 11.925781 24.476562 11.992188 24.433594 12.054688 24.390625 C 12.128906 24.347656 12.183594 24.304688 12.246094 24.242188 C 12.460938 24.015625 12.597656 23.71875 12.597656 23.398438 C 12.597656 23.324219 12.589844 23.238281 12.566406 23.164062 C 12.554688 23.089844 12.535156 23.015625 12.503906 22.941406 C 12.46875 22.863281 12.441406 22.789062 12.398438 22.726562 C 12.34375 22.660156 12.300781 22.609375 12.25 22.542969 C 12.183594 22.488281 12.132812 22.4375 12.058594 22.394531 C 11.992188 22.351562 11.929688 22.320312 11.855469 22.285156 C 11.78125 22.253906 11.703125 22.234375 11.628906 22.222656 C 11.480469 22.191406 11.308594 22.191406 11.160156 22.222656 Z M 11.160156 22.222656 " fill-opacity="1" fill-rule="nonzero"/></g></svg>