<svg width="152" height="132" viewBox="0 0 152 132" fill="none" xmlns="http://www.w3.org/2000/svg">
<path d="M32.1712 29.2577L0 0H112.863C126.567 0.733651 132.448 2.78085 140.287 9.40424C148.853 21.0675 152.72 28.024 151.89 43.8866C150.103 53.3371 148.087 58.4836 139.232 66.8746C133.211 71.9774 128.572 73.6672 117.609 74.189L70.1437 75.2338C59.6675 75.5152 54.4336 76.1172 49.0478 79.9361C29.3791 95.1108 25.8703 107.104 25.315 131.137C23.0652 106.029 22.82 92.1948 30.5889 69.4868C34.1861 63.1947 36.8031 59.8908 43.7739 54.858C49.6067 51.1177 53.6363 50.1995 61.1777 49.1109H112.863C116.885 48.6841 119.73 48.1525 121.828 44.9315C123.518 42.3371 122.883 37.0947 122.883 37.0947C122.883 37.0947 121.301 31.8699 118.664 30.3026C116.027 28.7352 113.694 29.4506 110.226 29.2577H32.1712Z" fill="white"/>
</svg>
