<svg xmlns="http://www.w3.org/2000/svg" xmlns:xlink="http://www.w3.org/1999/xlink" width="40" zoomAndPan="magnify" viewBox="0 0 30 30.000001" height="40" preserveAspectRatio="xMidYMid meet" version="1.0"><defs><g/></defs><g fill="#3cb773" fill-opacity="1"><g transform="translate(3.387096, 21.192659)"><g/></g></g><g fill="#3cb773" fill-opacity="1"><g transform="translate(9.908014, 21.192659)"><g><path d="M 0 0.140625 L 0.265625 -2.046875 C 0.847656 -2.046875 1.515625 -2.050781 2.265625 -2.0625 C 3.023438 -2.070312 3.757812 -2.109375 4.46875 -2.171875 C 5.175781 -2.234375 5.734375 -2.332031 6.140625 -2.46875 C 6.710938 -2.664062 7.171875 -2.921875 7.515625 -3.234375 C 7.859375 -3.546875 8.117188 -3.945312 8.296875 -4.4375 C 7.972656 -4.332031 7.628906 -4.257812 7.265625 -4.21875 C 6.910156 -4.175781 6.554688 -4.15625 6.203125 -4.15625 C 4.835938 -4.15625 3.789062 -4.472656 3.0625 -5.109375 C 2.332031 -5.742188 1.96875 -6.550781 1.96875 -7.53125 C 1.96875 -8.195312 2.070312 -8.867188 2.28125 -9.546875 C 2.5 -10.234375 2.800781 -10.859375 3.1875 -11.421875 C 3.582031 -11.992188 4.050781 -12.453125 4.59375 -12.796875 C 5.144531 -13.148438 5.757812 -13.328125 6.4375 -13.328125 C 7.394531 -13.328125 8.1875 -13.007812 8.8125 -12.375 C 9.445312 -11.75 9.914062 -10.9375 10.21875 -9.9375 C 10.53125 -8.945312 10.6875 -7.894531 10.6875 -6.78125 C 10.6875 -5.445312 10.457031 -4.304688 10 -3.359375 C 9.550781 -2.410156 8.804688 -1.628906 7.765625 -1.015625 C 7.210938 -0.691406 6.523438 -0.445312 5.703125 -0.28125 C 4.878906 -0.113281 3.976562 -0.00390625 3 0.046875 C 2.03125 0.109375 1.03125 0.140625 0 0.140625 Z M 4.0625 -8.0625 C 4.0625 -7.507812 4.238281 -7.066406 4.59375 -6.734375 C 4.945312 -6.410156 5.5625 -6.25 6.4375 -6.25 C 7.195312 -6.25 7.921875 -6.351562 8.609375 -6.5625 C 8.609375 -6.675781 8.609375 -6.800781 8.609375 -6.9375 C 8.609375 -7.664062 8.507812 -8.351562 8.3125 -9 C 8.125 -9.644531 7.851562 -10.160156 7.5 -10.546875 C 7.144531 -10.941406 6.71875 -11.140625 6.21875 -11.140625 C 5.789062 -11.140625 5.414062 -10.984375 5.09375 -10.671875 C 4.78125 -10.367188 4.53125 -9.976562 4.34375 -9.5 C 4.15625 -9.019531 4.0625 -8.539062 4.0625 -8.0625 Z M 5.921875 -16.0625 C 5.554688 -16.0625 5.242188 -16.191406 4.984375 -16.453125 C 4.722656 -16.710938 4.59375 -17.019531 4.59375 -17.375 C 4.59375 -17.726562 4.722656 -18.035156 4.984375 -18.296875 C 5.242188 -18.566406 5.554688 -18.703125 5.921875 -18.703125 C 6.273438 -18.703125 6.582031 -18.566406 6.84375 -18.296875 C 7.101562 -18.035156 7.234375 -17.726562 7.234375 -17.375 C 7.234375 -17.019531 7.101562 -16.710938 6.84375 -16.453125 C 6.582031 -16.191406 6.273438 -16.0625 5.921875 -16.0625 Z M 4.890625 6.171875 L 4.734375 1.578125 L 6.1875 1.578125 L 6.34375 6.171875 Z M 4.890625 6.171875 "/></g></g></g></svg>