<svg width="24" height="24" viewBox="0 0 24 24" fill="none" xmlns="http://www.w3.org/2000/svg">
<path d="M6.375 19.7H8.625V17.5H6.375V19.7ZM6.375 15.3H8.625V10.9H6.375V15.3ZM10.875 19.7H13.125V15.3H10.875V19.7ZM10.875 13.1H13.125V10.9H10.875V13.1ZM15.375 19.7H17.625V17.5H15.375V19.7ZM15.375 15.3H17.625V10.9H15.375V15.3ZM5.25 23C4.63125 23 4.10156 22.7846 3.66094 22.3538C3.22031 21.9229 3 21.405 3 20.8V7.6L9.75 1H18.75C19.3687 1 19.8984 1.21542 20.3391 1.64625C20.7797 2.07708 21 2.595 21 3.2V20.8C21 21.405 20.7797 21.9229 20.3391 22.3538C19.8984 22.7846 19.3687 23 18.75 23H5.25Z" fill="#357219"/>
</svg>
