<svg xmlns="http://www.w3.org/2000/svg" xmlns:xlink="http://www.w3.org/1999/xlink" width="324" zoomAndPan="magnify" viewBox="0 0 242.87999 153.000002" height="204" preserveAspectRatio="xMidYMid meet" version="1.0"><defs><clipPath id="851ebc30d0"><path d="M 1 0.226562 L 28.378906 0.226562 L 28.378906 20.34375 L 1 20.34375 Z M 1 0.226562 " clip-rule="nonzero"/></clipPath><clipPath id="ac89533cfc"><path d="M 0.8125 0.226562 L 28.378906 0.226562 L 28.378906 20.34375 L 0.8125 20.34375 Z M 0.8125 0.226562 " clip-rule="nonzero"/></clipPath><clipPath id="35af110e70"><path d="M 10 0.226562 L 14 0.226562 L 14 20.34375 L 10 20.34375 Z M 10 0.226562 " clip-rule="nonzero"/></clipPath><clipPath id="bfb353edf9"><path d="M 16 0.226562 L 20 0.226562 L 20 20.34375 L 16 20.34375 Z M 16 0.226562 " clip-rule="nonzero"/></clipPath><clipPath id="4175cb2252"><path d="M 18 6 L 28.378906 6 L 28.378906 7 L 18 7 Z M 18 6 " clip-rule="nonzero"/></clipPath><clipPath id="1d9d6aaa82"><path d="M 18 13 L 28.378906 13 L 28.378906 15 L 18 15 Z M 18 13 " clip-rule="nonzero"/></clipPath><clipPath id="0d60079213"><path d="M 179.058594 0.933594 L 195.449219 0.933594 L 195.449219 19.558594 L 179.058594 19.558594 Z M 179.058594 0.933594 " clip-rule="nonzero"/></clipPath><clipPath id="1377acf4dc"><rect x="0" width="196" y="0" height="21"/></clipPath></defs><g transform="matrix(1, 0, 0, 1, 26, 50)"><g clip-path="url(#1377acf4dc)"><g clip-path="url(#851ebc30d0)"><path fill="#fbc83a" d="M 28.191406 16.34375 C 28.191406 18.445312 26.507812 20.148438 24.425781 20.148438 L 4.769531 20.148438 C 2.6875 20.148438 1 18.445312 1 16.34375 L 1 4.230469 C 1 2.128906 2.6875 0.425781 4.769531 0.425781 L 24.425781 0.425781 C 26.507812 0.425781 28.191406 2.128906 28.191406 4.230469 L 28.191406 16.34375 " fill-opacity="1" fill-rule="nonzero"/></g><g clip-path="url(#ac89533cfc)"><path fill="#1a1a1a" d="M 28.003906 4.230469 C 28.003906 2.234375 26.402344 0.613281 24.425781 0.613281 L 4.769531 0.613281 C 2.792969 0.613281 1.191406 2.234375 1.191406 4.230469 L 1.191406 16.34375 C 1.191406 18.339844 2.792969 19.957031 4.769531 19.957031 L 24.425781 19.957031 C 26.402344 19.957031 28.003906 18.339844 28.003906 16.34375 Z M 28.378906 16.34375 C 28.378906 18.546875 26.609375 20.335938 24.425781 20.335938 L 4.769531 20.335938 C 2.585938 20.335938 0.8125 18.546875 0.8125 16.34375 L 0.8125 4.230469 C 0.8125 2.023438 2.585938 0.234375 4.769531 0.234375 L 24.425781 0.234375 C 26.609375 0.234375 28.378906 2.023438 28.378906 4.230469 L 28.378906 16.34375 " fill-opacity="1" fill-rule="nonzero"/></g><path fill="#1a1a1a" d="M 10.316406 6.984375 L 1 6.984375 L 1 6.601562 L 10.316406 6.601562 L 10.316406 6.984375 " fill-opacity="1" fill-rule="nonzero"/><path fill="#1a1a1a" d="M 10.316406 14.015625 L 1 14.015625 L 1 13.636719 L 10.316406 13.636719 L 10.316406 14.015625 " fill-opacity="1" fill-rule="nonzero"/><g clip-path="url(#35af110e70)"><path fill="#1a1a1a" d="M 13.082031 20.320312 C 11.769531 19.78125 10.847656 18.46875 10.414062 16.519531 C 10.101562 15.109375 10.148438 13.863281 10.15625 13.753906 L 10.121094 10.277344 L 10.15625 6.796875 C 10.148438 6.6875 10.101562 5.445312 10.414062 4.03125 C 10.847656 2.085938 11.769531 0.769531 13.082031 0.230469 L 13.222656 0.582031 C 10.316406 1.777344 10.527344 6.734375 10.53125 6.785156 C 10.53125 6.789062 10.53125 6.792969 10.53125 6.792969 L 10.5 10.277344 L 10.53125 13.757812 C 10.53125 13.761719 10.53125 13.765625 10.53125 13.769531 C 10.527344 13.816406 10.320312 18.777344 13.222656 19.96875 L 13.082031 20.320312 " fill-opacity="1" fill-rule="nonzero"/></g><g clip-path="url(#bfb353edf9)"><path fill="#1a1a1a" d="M 16.222656 20.320312 L 16.082031 19.96875 C 18.984375 18.777344 18.777344 13.816406 18.773438 13.769531 C 18.773438 13.765625 18.773438 13.761719 18.773438 13.757812 L 18.804688 10.273438 L 18.773438 6.792969 C 18.773438 6.792969 18.773438 6.789062 18.773438 6.785156 C 18.777344 6.734375 18.984375 1.777344 16.082031 0.582031 L 16.222656 0.230469 C 17.535156 0.769531 18.457031 2.085938 18.890625 4.03125 C 19.203125 5.445312 19.15625 6.6875 19.148438 6.796875 L 19.183594 10.273438 L 19.148438 13.753906 C 19.15625 13.863281 19.203125 15.109375 18.890625 16.519531 C 18.457031 18.46875 17.535156 19.78125 16.222656 20.320312 " fill-opacity="1" fill-rule="nonzero"/></g><g clip-path="url(#4175cb2252)"><path fill="#1a1a1a" d="M 28.238281 6.984375 L 18.925781 6.984375 L 18.925781 6.601562 L 28.238281 6.601562 L 28.238281 6.984375 " fill-opacity="1" fill-rule="nonzero"/></g><g clip-path="url(#1d9d6aaa82)"><path fill="#1a1a1a" d="M 28.238281 14.015625 L 18.972656 14.015625 L 18.972656 13.636719 L 28.238281 13.636719 L 28.238281 14.015625 " fill-opacity="1" fill-rule="nonzero"/></g><g clip-path="url(#0d60079213)"><path fill="#fbc83a" d="M 195.441406 10.148438 C 195.441406 6.832031 194.292969 3.765625 192.375 1.351562 C 192.292969 1.238281 192.1875 1.144531 192.066406 1.074219 C 191.945312 1.003906 191.8125 0.960938 191.675781 0.941406 C 191.535156 0.925781 191.398438 0.933594 191.261719 0.972656 C 191.125 1.011719 191.003906 1.074219 190.890625 1.160156 C 190.78125 1.246094 190.691406 1.355469 190.625 1.476562 C 190.558594 1.601562 190.515625 1.734375 190.503906 1.875 C 190.488281 2.011719 190.5 2.152344 190.542969 2.285156 C 190.585938 2.421875 190.648438 2.542969 190.742188 2.648438 C 192.375 4.710938 193.351562 7.3125 193.351562 10.148438 C 193.351562 12.980469 192.375 15.582031 190.742188 17.644531 C 190.648438 17.75 190.585938 17.875 190.542969 18.007812 C 190.5 18.144531 190.488281 18.28125 190.503906 18.421875 C 190.515625 18.5625 190.558594 18.691406 190.625 18.816406 C 190.691406 18.941406 190.78125 19.046875 190.890625 19.132812 C 191.003906 19.222656 191.125 19.285156 191.261719 19.320312 C 191.398438 19.359375 191.535156 19.371094 191.675781 19.351562 C 191.8125 19.335938 191.945312 19.289062 192.066406 19.21875 C 192.1875 19.148438 192.292969 19.054688 192.375 18.945312 C 194.292969 16.527344 195.441406 13.460938 195.441406 10.148438 Z M 191.300781 10.148438 C 191.300781 7.734375 190.441406 5.515625 189.023438 3.792969 C 188.933594 3.683594 188.828125 3.597656 188.707031 3.53125 C 188.585938 3.46875 188.453125 3.429688 188.316406 3.414062 C 188.179688 3.402344 188.042969 3.414062 187.910156 3.457031 C 187.777344 3.496094 187.660156 3.5625 187.550781 3.648438 C 187.445312 3.738281 187.359375 3.84375 187.292969 3.964844 C 187.226562 4.085938 187.1875 4.21875 187.175781 4.355469 C 187.164062 4.492188 187.175781 4.628906 187.214844 4.761719 C 187.257812 4.894531 187.320312 5.011719 187.410156 5.121094 C 188.535156 6.484375 189.207031 8.226562 189.207031 10.148438 C 189.207031 12.066406 188.535156 13.808594 187.410156 15.171875 C 187.320312 15.28125 187.257812 15.398438 187.214844 15.53125 C 187.175781 15.664062 187.160156 15.800781 187.175781 15.9375 C 187.1875 16.078125 187.226562 16.207031 187.292969 16.328125 C 187.359375 16.453125 187.445312 16.558594 187.550781 16.644531 C 187.65625 16.734375 187.777344 16.796875 187.910156 16.839844 C 188.042969 16.878906 188.179688 16.890625 188.316406 16.878906 C 188.453125 16.867188 188.585938 16.824219 188.707031 16.761719 C 188.828125 16.695312 188.933594 16.609375 189.023438 16.503906 C 190.441406 14.777344 191.300781 12.558594 191.300781 10.148438 Z M 187.148438 10.148438 C 187.148438 8.742188 186.648438 7.4375 185.808594 6.425781 C 185.71875 6.320312 185.613281 6.234375 185.492188 6.167969 C 185.371094 6.105469 185.238281 6.066406 185.101562 6.054688 C 184.964844 6.039062 184.828125 6.054688 184.695312 6.09375 C 184.5625 6.136719 184.445312 6.199219 184.335938 6.289062 C 184.230469 6.378906 184.144531 6.484375 184.082031 6.605469 C 184.015625 6.730469 183.976562 6.859375 183.964844 6.996094 C 183.953125 7.136719 183.964844 7.269531 184.007812 7.402344 C 184.046875 7.535156 184.113281 7.65625 184.199219 7.761719 C 184.742188 8.414062 185.058594 9.230469 185.058594 10.148438 C 185.058594 11.0625 184.742188 11.882812 184.199219 12.53125 C 184.113281 12.640625 184.046875 12.757812 184.007812 12.890625 C 183.964844 13.023438 183.953125 13.160156 183.964844 13.296875 C 183.976562 13.433594 184.015625 13.566406 184.082031 13.6875 C 184.144531 13.808594 184.230469 13.914062 184.335938 14.003906 C 184.445312 14.09375 184.5625 14.15625 184.695312 14.199219 C 184.828125 14.238281 184.964844 14.253906 185.101562 14.242188 C 185.238281 14.226562 185.371094 14.191406 185.492188 14.125 C 185.613281 14.058594 185.71875 13.976562 185.808594 13.867188 C 186.648438 12.855469 187.148438 11.550781 187.148438 10.148438 Z M 183.167969 10.148438 C 183.167969 9.898438 183.121094 9.65625 183.023438 9.425781 C 182.929688 9.195312 182.792969 8.992188 182.617188 8.816406 C 182.441406 8.640625 182.238281 8.503906 182.007812 8.410156 C 181.777344 8.3125 181.535156 8.265625 181.289062 8.265625 C 181.039062 8.265625 180.796875 8.3125 180.566406 8.410156 C 180.335938 8.503906 180.132812 8.640625 179.957031 8.816406 C 179.78125 8.992188 179.644531 9.195312 179.550781 9.425781 C 179.453125 9.65625 179.40625 9.898438 179.40625 10.148438 C 179.40625 10.394531 179.453125 10.636719 179.550781 10.867188 C 179.644531 11.097656 179.78125 11.300781 179.957031 11.476562 C 180.132812 11.652344 180.335938 11.789062 180.566406 11.886719 C 180.796875 11.980469 181.039062 12.027344 181.289062 12.027344 C 181.535156 12.027344 181.777344 11.980469 182.007812 11.886719 C 182.238281 11.789062 182.441406 11.652344 182.617188 11.476562 C 182.792969 11.300781 182.929688 11.097656 183.023438 10.867188 C 183.121094 10.636719 183.167969 10.394531 183.167969 10.148438 Z M 183.167969 10.148438 " fill-opacity="1" fill-rule="nonzero"/></g></g></g></svg>