<svg width="24" height="24" viewBox="0 0 24 24" fill="none" xmlns="http://www.w3.org/2000/svg">
<path fill-rule="evenodd" clip-rule="evenodd" d="M12.7917 2.8C12.7917 2.35817 12.4372 2 12 2C11.5628 2 11.2083 2.35817 11.2083 2.8V9.2H8.83333C7.85272 9.2 7.36241 9.2 6.95215 9.26566C4.69383 9.62711 2.92266 11.4169 2.56498 13.699C2.5 14.1136 2.5 14.6091 2.5 15.6C2.5 16.5909 2.5 17.0864 2.56498 17.501C2.92266 19.7831 4.69383 21.5729 6.95215 21.9343C7.36241 22 7.85272 22 8.83333 22H15.1667C16.1473 22 16.6376 22 17.0478 21.9343C19.3062 21.5729 21.0773 19.7831 21.435 17.501C21.5 17.0864 21.5 16.5909 21.5 15.6C21.5 14.6091 21.5 14.1136 21.435 13.699C21.0773 11.4169 19.3062 9.62711 17.0478 9.26566C16.6376 9.2 16.1473 9.2 15.1667 9.2H12.7917V2.8ZM12.7917 9.2H11.2083V16.4645C10.8678 16.1152 10.4628 15.6011 9.87362 14.8501L8.39811 12.9696C8.12646 12.6234 7.62852 12.5653 7.28592 12.8398C6.94332 13.1143 6.8858 13.6175 7.15745 13.9637L8.66294 15.8824C9.22574 16.5997 9.69015 17.1916 10.1058 17.6133C10.5324 18.046 11.0058 18.4047 11.6108 18.5022C11.7397 18.5229 11.8698 18.5333 12 18.5333C12.1302 18.5333 12.2603 18.5229 12.3892 18.5022C12.9942 18.4047 13.4676 18.046 13.8942 17.6133C14.3099 17.1916 14.7743 16.5997 15.3371 15.8824L16.8426 13.9637C17.1142 13.6175 17.0567 13.1143 16.7141 12.8398C16.3715 12.5653 15.8735 12.6234 15.6019 12.9696L14.1264 14.8501C13.5372 15.6011 13.1323 16.1152 12.7917 16.4645V9.2Z" fill="white"/>
</svg>
