<svg width="24" height="24" viewBox="0 0 24 24" fill="none" xmlns="http://www.w3.org/2000/svg">
<path fill-rule="evenodd" clip-rule="evenodd" d="M11.2083 17.7333C11.2083 18.1752 11.5628 18.5333 12 18.5333C12.4372 18.5333 12.7917 18.1752 12.7917 17.7333L12.7917 9.2H15.1667C16.1473 9.2 16.6376 9.2 17.0478 9.26566C19.3062 9.62711 21.0773 11.4169 21.435 13.699C21.5 14.1136 21.5 14.6091 21.5 15.6C21.5 16.5909 21.5 17.0864 21.435 17.501C21.0773 19.7831 19.3062 21.5729 17.0478 21.9343C16.6376 22 16.1473 22 15.1667 22H8.83333C7.85272 22 7.36241 22 6.95215 21.9343C4.69383 21.5729 2.92266 19.7831 2.56498 17.501C2.5 17.0864 2.5 16.5909 2.5 15.6C2.5 14.6091 2.5 14.1136 2.56498 13.699C2.92266 11.4169 4.69383 9.62711 6.95215 9.26566C7.36241 9.2 7.85272 9.2 8.83333 9.2H11.2083L11.2083 17.7333ZM11.2083 9.2L11.2083 4.06882C10.8677 4.4181 10.4628 4.93224 9.87362 5.6832L8.39811 7.5637C8.12647 7.90991 7.62852 7.96804 7.28592 7.69353C6.94332 7.41903 6.8858 6.91584 7.15745 6.56963L8.66293 4.65092C9.22573 3.9336 9.69015 3.34169 10.1058 2.92002C10.5324 2.4873 11.0058 2.12859 11.6108 2.03118C11.7397 2.01043 11.8698 2 12 2C12.1302 2 12.2603 2.01043 12.3892 2.03118C12.9942 2.12859 13.4676 2.4873 13.8942 2.92002C14.3099 3.34169 14.7743 3.9336 15.3371 4.65091L16.8426 6.56963C17.1142 6.91584 17.0567 7.41903 16.7141 7.69353C16.3715 7.96803 15.8735 7.90991 15.6019 7.5637L14.1264 5.6832C13.5372 4.93224 13.1323 4.4181 12.7917 4.06882L12.7917 9.2H11.2083Z" fill="white"/>
</svg>
