<svg xmlns="http://www.w3.org/2000/svg" xmlns:xlink="http://www.w3.org/1999/xlink" width="40" zoomAndPan="magnify" viewBox="0 0 30 30.000001" height="40" preserveAspectRatio="xMidYMid meet" version="1.0"><defs><g/><clipPath id="b11233b19d"><path d="M 0.691406 1 L 1.621094 1 L 1.621094 2 L 0.691406 2 Z M 0.691406 1 " clip-rule="nonzero"/></clipPath><clipPath id="56d0a49806"><rect x="0" width="2" y="0" height="3"/></clipPath><clipPath id="6b61a5cf8d"><path d="M 0.359375 3 L 8 3 L 8 11 L 0.359375 11 Z M 0.359375 3 " clip-rule="nonzero"/></clipPath><clipPath id="61e371e2c2"><path d="M 14 3 L 19.40625 3 L 19.40625 11 L 14 11 Z M 14 3 " clip-rule="nonzero"/></clipPath><clipPath id="866a30fe09"><path d="M 19 10 L 19.40625 10 L 19.40625 11 L 19 11 Z M 19 10 " clip-rule="nonzero"/></clipPath><clipPath id="f48d26552c"><rect x="0" width="20" y="0" height="13"/></clipPath></defs><g transform="matrix(1, 0, 0, 1, 20, 13)"><g clip-path="url(#56d0a49806)"><g clip-path="url(#b11233b19d)"><g fill="#000000" fill-opacity="1"><g transform="translate(0.869933, 1.838713)"><g><path d="M 0.046875 0 L 0.046875 -0.0625 L 0.234375 -0.0625 L 0.234375 -0.609375 C 0.203125 -0.585938 0.171875 -0.570312 0.140625 -0.5625 C 0.117188 -0.550781 0.09375 -0.546875 0.0625 -0.546875 L 0.0625 -0.625 C 0.09375 -0.625 0.125 -0.628906 0.15625 -0.640625 C 0.195312 -0.660156 0.226562 -0.679688 0.25 -0.703125 L 0.3125 -0.703125 L 0.3125 -0.0625 L 0.484375 -0.0625 L 0.484375 0 Z M 0.046875 0 "/></g></g></g></g></g></g><g transform="matrix(1, 0, 0, 1, 5, 8)"><g clip-path="url(#f48d26552c)"><g clip-path="url(#6b61a5cf8d)"><g fill="#178b53" fill-opacity="1"><g transform="translate(0.667803, 10.30299)"><g><path d="M 4.46875 -2.734375 L 3.8125 -4.6875 C 3.757812 -4.8125 3.703125 -4.957031 3.640625 -5.125 C 3.585938 -5.289062 3.535156 -5.472656 3.484375 -5.671875 C 3.429688 -5.472656 3.378906 -5.285156 3.328125 -5.109375 C 3.273438 -4.941406 3.222656 -4.800781 3.171875 -4.6875 L 2.515625 -2.734375 Z M 7.109375 0 L 5.8125 0 C 5.675781 0 5.5625 -0.03125 5.46875 -0.09375 C 5.382812 -0.164062 5.316406 -0.253906 5.265625 -0.359375 L 4.84375 -1.609375 L 2.125 -1.609375 L 1.703125 -0.359375 C 1.671875 -0.265625 1.609375 -0.179688 1.515625 -0.109375 C 1.421875 -0.0351562 1.304688 0 1.171875 0 L -0.125 0 L 2.640625 -7.140625 L 4.34375 -7.140625 Z M 7.109375 0 "/></g></g></g></g><g fill="#178b53" fill-opacity="1"><g transform="translate(7.648396, 10.30299)"><g><path d="M 3.21875 -3.640625 C 3.644531 -3.640625 3.953125 -3.742188 4.140625 -3.953125 C 4.335938 -4.160156 4.4375 -4.445312 4.4375 -4.8125 C 4.4375 -4.976562 4.410156 -5.125 4.359375 -5.25 C 4.304688 -5.382812 4.226562 -5.5 4.125 -5.59375 C 4.03125 -5.695312 3.90625 -5.773438 3.75 -5.828125 C 3.601562 -5.878906 3.425781 -5.90625 3.21875 -5.90625 L 2.34375 -5.90625 L 2.34375 -3.640625 Z M 3.21875 -7.140625 C 3.71875 -7.140625 4.144531 -7.082031 4.5 -6.96875 C 4.863281 -6.851562 5.160156 -6.6875 5.390625 -6.46875 C 5.628906 -6.257812 5.804688 -6.015625 5.921875 -5.734375 C 6.035156 -5.453125 6.09375 -5.144531 6.09375 -4.8125 C 6.09375 -4.457031 6.035156 -4.128906 5.921875 -3.828125 C 5.804688 -3.535156 5.628906 -3.28125 5.390625 -3.0625 C 5.148438 -2.851562 4.847656 -2.6875 4.484375 -2.5625 C 4.128906 -2.445312 3.707031 -2.390625 3.21875 -2.390625 L 2.34375 -2.390625 L 2.34375 0 L 0.6875 0 L 0.6875 -7.140625 Z M 3.21875 -7.140625 "/></g></g></g><g clip-path="url(#61e371e2c2)"><g fill="#178b53" fill-opacity="1"><g transform="translate(13.892639, 10.30299)"><g><path d="M 4.640625 -5.703125 C 4.585938 -5.617188 4.535156 -5.554688 4.484375 -5.515625 C 4.429688 -5.472656 4.363281 -5.453125 4.28125 -5.453125 C 4.207031 -5.453125 4.125 -5.476562 4.03125 -5.53125 C 3.945312 -5.582031 3.847656 -5.632812 3.734375 -5.6875 C 3.628906 -5.75 3.503906 -5.800781 3.359375 -5.84375 C 3.222656 -5.894531 3.066406 -5.921875 2.890625 -5.921875 C 2.578125 -5.921875 2.34375 -5.851562 2.1875 -5.71875 C 2.039062 -5.59375 1.96875 -5.414062 1.96875 -5.1875 C 1.96875 -5.039062 2.007812 -4.921875 2.09375 -4.828125 C 2.1875 -4.734375 2.304688 -4.648438 2.453125 -4.578125 C 2.609375 -4.515625 2.78125 -4.453125 2.96875 -4.390625 C 3.15625 -4.335938 3.347656 -4.273438 3.546875 -4.203125 C 3.753906 -4.128906 3.953125 -4.046875 4.140625 -3.953125 C 4.335938 -3.859375 4.507812 -3.738281 4.65625 -3.59375 C 4.800781 -3.445312 4.921875 -3.265625 5.015625 -3.046875 C 5.109375 -2.835938 5.15625 -2.585938 5.15625 -2.296875 C 5.15625 -1.960938 5.097656 -1.648438 4.984375 -1.359375 C 4.867188 -1.078125 4.703125 -0.828125 4.484375 -0.609375 C 4.265625 -0.398438 3.992188 -0.234375 3.671875 -0.109375 C 3.359375 0.015625 3 0.078125 2.59375 0.078125 C 2.363281 0.078125 2.132812 0.0507812 1.90625 0 C 1.675781 -0.0390625 1.453125 -0.101562 1.234375 -0.1875 C 1.023438 -0.269531 0.820312 -0.367188 0.625 -0.484375 C 0.4375 -0.597656 0.273438 -0.722656 0.140625 -0.859375 L 0.625 -1.640625 C 0.664062 -1.691406 0.71875 -1.734375 0.78125 -1.765625 C 0.84375 -1.804688 0.910156 -1.828125 0.984375 -1.828125 C 1.085938 -1.828125 1.1875 -1.796875 1.28125 -1.734375 C 1.382812 -1.679688 1.5 -1.613281 1.625 -1.53125 C 1.75 -1.457031 1.894531 -1.390625 2.0625 -1.328125 C 2.226562 -1.265625 2.421875 -1.234375 2.640625 -1.234375 C 2.941406 -1.234375 3.175781 -1.300781 3.34375 -1.4375 C 3.507812 -1.570312 3.59375 -1.78125 3.59375 -2.0625 C 3.59375 -2.226562 3.546875 -2.363281 3.453125 -2.46875 C 3.359375 -2.570312 3.238281 -2.65625 3.09375 -2.71875 C 2.945312 -2.789062 2.773438 -2.851562 2.578125 -2.90625 C 2.390625 -2.96875 2.195312 -3.03125 2 -3.09375 C 1.800781 -3.15625 1.609375 -3.234375 1.421875 -3.328125 C 1.234375 -3.421875 1.0625 -3.539062 0.90625 -3.6875 C 0.757812 -3.84375 0.640625 -4.035156 0.546875 -4.265625 C 0.453125 -4.492188 0.40625 -4.773438 0.40625 -5.109375 C 0.40625 -5.367188 0.457031 -5.625 0.5625 -5.875 C 0.675781 -6.132812 0.835938 -6.363281 1.046875 -6.5625 C 1.253906 -6.769531 1.507812 -6.929688 1.8125 -7.046875 C 2.125 -7.171875 2.472656 -7.234375 2.859375 -7.234375 C 3.078125 -7.234375 3.289062 -7.210938 3.5 -7.171875 C 3.707031 -7.140625 3.90625 -7.085938 4.09375 -7.015625 C 4.28125 -6.953125 4.453125 -6.875 4.609375 -6.78125 C 4.773438 -6.6875 4.921875 -6.582031 5.046875 -6.46875 Z M 4.640625 -5.703125 "/></g></g></g></g><g clip-path="url(#866a30fe09)"><g fill="#178b53" fill-opacity="1"><g transform="translate(19.332007, 10.30299)"><g/></g></g></g></g></g></svg>