<svg xmlns="http://www.w3.org/2000/svg" xmlns:xlink="http://www.w3.org/1999/xlink" width="40" zoomAndPan="magnify" viewBox="0 0 30 30.000001" height="40" preserveAspectRatio="xMidYMid meet" version="1.0"><defs><g/><clipPath id="40e216a895"><path d="M 0.652344 0.308594 L 1.347656 0.308594 L 1.347656 1.933594 L 0.652344 1.933594 Z M 0.652344 0.308594 " clip-rule="nonzero"/></clipPath><clipPath id="0ea597a474"><rect x="0" width="2" y="0" height="2"/></clipPath><clipPath id="6023552432"><path d="M 10 4.285156 L 23.882812 4.285156 L 23.882812 15 L 10 15 Z M 10 4.285156 " clip-rule="nonzero"/></clipPath><clipPath id="8106045554"><path d="M 6.464844 12 L 21 12 L 21 25.332031 L 6.464844 25.332031 Z M 6.464844 12 " clip-rule="nonzero"/></clipPath></defs><g transform="matrix(1, 0, 0, 1, 14, 12)"><g clip-path="url(#0ea597a474)"><g clip-path="url(#40e216a895)"><g fill="#000000" fill-opacity="1"><g transform="translate(0.742312, 1.403232)"><g><path d="M 0.046875 0 L 0.046875 -0.0625 L 0.234375 -0.0625 L 0.234375 -0.609375 C 0.203125 -0.585938 0.171875 -0.570312 0.140625 -0.5625 C 0.117188 -0.550781 0.09375 -0.546875 0.0625 -0.546875 L 0.0625 -0.625 C 0.09375 -0.625 0.125 -0.628906 0.15625 -0.640625 C 0.195312 -0.660156 0.226562 -0.679688 0.25 -0.703125 L 0.3125 -0.703125 L 0.3125 -0.0625 L 0.484375 -0.0625 L 0.484375 0 Z M 0.046875 0 "/></g></g></g></g></g></g><g clip-path="url(#6023552432)"><path fill="#178b53" d="M 23.703125 9.664062 L 20.078125 4.671875 C 19.851562 4.359375 19.417969 4.289062 19.105469 4.519531 L 10.988281 10.414062 C 10.679688 10.640625 10.605469 11.078125 10.832031 11.386719 L 12.972656 14.332031 L 18.464844 14.332031 L 23.546875 10.640625 C 23.859375 10.410156 23.929688 9.972656 23.703125 9.664062 Z M 20.015625 7.226562 C 20.167969 7.117188 20.378906 7.148438 20.492188 7.304688 C 20.601562 7.457031 20.566406 7.667969 20.417969 7.78125 L 18 9.535156 C 17.84375 9.648438 17.632812 9.613281 17.523438 9.460938 C 17.414062 9.304688 17.445312 9.09375 17.597656 8.984375 Z M 14.757812 9.265625 L 19.167969 6.0625 C 19.320312 5.953125 19.535156 5.984375 19.644531 6.136719 C 19.757812 6.292969 19.722656 6.503906 19.566406 6.613281 L 15.160156 9.816406 C 15.007812 9.929688 14.792969 9.894531 14.683594 9.742188 C 14.570312 9.589844 14.605469 9.375 14.757812 9.265625 Z M 13.121094 12.472656 L 12.296875 11.34375 C 12.222656 11.238281 12.246094 11.089844 12.347656 11.015625 L 13.480469 10.195312 C 13.585938 10.117188 13.730469 10.140625 13.808594 10.246094 L 14.628906 11.375 C 14.703125 11.480469 14.679688 11.625 14.574219 11.703125 L 13.445312 12.523438 C 13.339844 12.597656 13.195312 12.578125 13.121094 12.472656 Z M 20.589844 11.195312 C 20.175781 11.496094 19.59375 11.40625 19.292969 10.988281 C 18.988281 10.574219 19.082031 9.988281 19.496094 9.6875 C 19.589844 9.621094 19.691406 9.570312 19.800781 9.546875 C 19.777344 9.632812 19.769531 9.726562 19.773438 9.820312 C 19.777344 10.054688 19.855469 10.28125 20 10.472656 C 20.136719 10.664062 20.328125 10.808594 20.550781 10.890625 C 20.636719 10.921875 20.726562 10.941406 20.820312 10.949219 C 20.761719 11.039062 20.6875 11.125 20.589844 11.191406 Z M 21.625 10.445312 C 21.207031 10.746094 20.625 10.65625 20.320312 10.238281 C 20.019531 9.824219 20.113281 9.238281 20.527344 8.9375 C 20.945312 8.636719 21.527344 8.726562 21.828125 9.144531 C 22.132812 9.5625 22.039062 10.144531 21.625 10.445312 Z M 21.625 10.445312 " fill-opacity="1" fill-rule="nonzero"/></g><g clip-path="url(#8106045554)"><path fill="#178b53" d="M 17.0625 19.242188 L 17.0625 21.34375 C 17.0625 22.039062 17.625 22.597656 18.316406 22.597656 L 20.71875 22.597656 L 20.71875 24.332031 C 20.71875 24.835938 20.304688 25.246094 19.800781 25.246094 L 7.40625 25.246094 C 6.898438 25.246094 6.488281 24.835938 6.488281 24.332031 L 6.488281 14.609375 C 6.488281 13.605469 7.304688 12.789062 8.304688 12.789062 L 10.605469 12.789062 L 11.492188 14.015625 L 8.375 14.015625 C 8.007812 14.015625 7.714844 14.3125 7.714844 14.679688 C 7.714844 15.050781 8.011719 15.34375 8.375 15.34375 L 19.800781 15.34375 C 20.304688 15.34375 20.71875 15.753906 20.71875 16.261719 L 20.71875 17.992188 L 18.316406 17.992188 C 17.625 17.992188 17.0625 18.554688 17.0625 19.242188 Z M 17.0625 19.242188 " fill-opacity="1" fill-rule="nonzero"/></g><path fill="#178b53" d="M 17.679688 19.230469 L 17.679688 21.328125 C 17.679688 21.683594 17.964844 21.96875 18.320312 21.96875 L 20.722656 21.96875 L 20.722656 18.589844 L 18.320312 18.589844 C 17.96875 18.589844 17.679688 18.875 17.679688 19.230469 Z M 19.199219 19.664062 C 19.542969 19.664062 19.820312 19.941406 19.820312 20.28125 C 19.820312 20.621094 19.542969 20.898438 19.199219 20.898438 C 18.859375 20.898438 18.582031 20.621094 18.582031 20.28125 C 18.582031 19.941406 18.859375 19.664062 19.199219 19.664062 Z M 19.199219 19.664062 " fill-opacity="1" fill-rule="nonzero"/></svg>