<svg xmlns="http://www.w3.org/2000/svg" xmlns:xlink="http://www.w3.org/1999/xlink" width="60" zoomAndPan="magnify" viewBox="0 0 45 44.999999" height="60" preserveAspectRatio="xMidYMid meet" version="1.0"><defs><clipPath id="909270621b"><path d="M 1.988281 1.988281 L 43.011719 1.988281 L 43.011719 43.011719 L 1.988281 43.011719 Z M 1.988281 1.988281 " clip-rule="nonzero"/></clipPath><clipPath id="beb7f80ce3"><path d="M 22.5 1.988281 C 11.171875 1.988281 1.988281 11.171875 1.988281 22.5 C 1.988281 33.828125 11.171875 43.011719 22.5 43.011719 C 33.828125 43.011719 43.011719 33.828125 43.011719 22.5 C 43.011719 11.171875 33.828125 1.988281 22.5 1.988281 Z M 22.5 1.988281 " clip-rule="nonzero"/></clipPath><clipPath id="02228727a6"><path d="M 0.988281 0.988281 L 42.011719 0.988281 L 42.011719 42.011719 L 0.988281 42.011719 Z M 0.988281 0.988281 " clip-rule="nonzero"/></clipPath><clipPath id="2e1932c34f"><path d="M 21.5 0.988281 C 10.171875 0.988281 0.988281 10.171875 0.988281 21.5 C 0.988281 32.828125 10.171875 42.011719 21.5 42.011719 C 32.828125 42.011719 42.011719 32.828125 42.011719 21.5 C 42.011719 10.171875 32.828125 0.988281 21.5 0.988281 Z M 21.5 0.988281 " clip-rule="nonzero"/></clipPath><clipPath id="1b893374dc"><rect x="0" width="43" y="0" height="43"/></clipPath><clipPath id="b99d089da8"><path d="M 14.9375 14.890625 L 29.9375 14.890625 L 29.9375 29.890625 L 14.9375 29.890625 Z M 14.9375 14.890625 " clip-rule="nonzero"/></clipPath><clipPath id="3cf840dda8"><path d="M 18.78125 20.066406 L 26.28125 20.066406 L 26.28125 27.566406 L 18.78125 27.566406 Z M 18.78125 20.066406 " clip-rule="nonzero"/></clipPath><clipPath id="ef8beaad75"><path d="M 19 20.066406 L 26 20.066406 L 26 27 L 19 27 Z M 19 20.066406 " clip-rule="nonzero"/></clipPath></defs><g clip-path="url(#909270621b)"><g clip-path="url(#beb7f80ce3)"><g transform="matrix(1, 0, 0, 1, 1, 1)"><g clip-path="url(#1b893374dc)"><g clip-path="url(#02228727a6)"><g clip-path="url(#2e1932c34f)"><path fill="#3cb773" d="M 0.988281 0.988281 L 42.011719 0.988281 L 42.011719 42.011719 L 0.988281 42.011719 Z M 0.988281 0.988281 " fill-opacity="1" fill-rule="nonzero"/></g></g></g></g></g></g><path fill="#ffffff" d="M 19.023438 18.632812 L 19.023438 18.152344 L 19.574219 18.152344 C 19.816406 18.152344 19.925781 18.246094 19.925781 18.386719 L 19.925781 18.394531 C 19.925781 18.546875 19.800781 18.632812 19.582031 18.632812 Z M 19.023438 17.191406 L 19.492188 17.191406 C 19.707031 17.191406 19.820312 17.273438 19.820312 17.414062 L 19.820312 17.421875 C 19.820312 17.574219 19.695312 17.648438 19.476562 17.648438 L 19.023438 17.648438 Z M 20.648438 18.496094 L 20.648438 18.488281 C 20.648438 18.136719 20.449219 17.957031 20.132812 17.851562 C 20.363281 17.753906 20.535156 17.574219 20.535156 17.273438 L 20.535156 17.265625 C 20.535156 17.085938 20.46875 16.949219 20.367188 16.84375 C 20.214844 16.691406 19.984375 16.609375 19.65625 16.609375 L 18.320312 16.609375 L 18.320312 19.214844 L 19.664062 19.214844 C 20.285156 19.214844 20.648438 18.941406 20.648438 18.496094 " fill-opacity="1" fill-rule="nonzero"/><path fill="#ffffff" d="M 21.71875 16.609375 L 20.996094 16.609375 L 20.996094 19.214844 L 21.71875 19.214844 L 21.71875 16.609375 " fill-opacity="1" fill-rule="nonzero"/><path fill="#ffffff" d="M 22.917969 16.609375 L 22.195312 16.609375 L 22.195312 19.214844 L 24.179688 19.214844 L 24.179688 18.582031 L 22.917969 18.582031 L 22.917969 16.609375 " fill-opacity="1" fill-rule="nonzero"/><path fill="#ffffff" d="M 26.46875 18.582031 L 25.207031 18.582031 L 25.207031 16.609375 L 24.488281 16.609375 L 24.488281 19.214844 L 26.46875 19.214844 L 26.46875 18.582031 " fill-opacity="1" fill-rule="nonzero"/><path fill="#ffffff" d="M 23.535156 20.285156 L 18.320312 20.285156 C 18.234375 20.285156 18.164062 20.355469 18.164062 20.441406 C 18.164062 20.523438 18.234375 20.59375 18.320312 20.59375 L 23.535156 20.59375 C 23.621094 20.59375 23.691406 20.523438 23.691406 20.441406 C 23.691406 20.355469 23.621094 20.285156 23.535156 20.285156 " fill-opacity="1" fill-rule="nonzero"/><path fill="#ffffff" d="M 26.445312 20.285156 L 24.964844 20.285156 C 24.878906 20.285156 24.8125 20.355469 24.8125 20.441406 C 24.8125 20.523438 24.878906 20.59375 24.964844 20.59375 L 26.445312 20.59375 C 26.527344 20.59375 26.597656 20.523438 26.597656 20.441406 C 26.597656 20.355469 26.527344 20.285156 26.445312 20.285156 " fill-opacity="1" fill-rule="nonzero"/><path fill="#ffffff" d="M 23.535156 21.4375 L 18.320312 21.4375 C 18.234375 21.4375 18.164062 21.507812 18.164062 21.589844 C 18.164062 21.675781 18.234375 21.746094 18.320312 21.746094 L 23.535156 21.746094 C 23.621094 21.746094 23.691406 21.675781 23.691406 21.589844 C 23.691406 21.507812 23.621094 21.4375 23.535156 21.4375 " fill-opacity="1" fill-rule="nonzero"/><path fill="#ffffff" d="M 26.445312 21.4375 L 24.964844 21.4375 C 24.878906 21.4375 24.8125 21.507812 24.8125 21.589844 C 24.8125 21.675781 24.878906 21.746094 24.964844 21.746094 L 26.445312 21.746094 C 26.527344 21.746094 26.597656 21.675781 26.597656 21.589844 C 26.597656 21.507812 26.527344 21.4375 26.445312 21.4375 " fill-opacity="1" fill-rule="nonzero"/><path fill="#ffffff" d="M 23.535156 22.589844 L 18.320312 22.589844 C 18.234375 22.589844 18.164062 22.65625 18.164062 22.742188 C 18.164062 22.828125 18.234375 22.894531 18.320312 22.894531 L 23.535156 22.894531 C 23.621094 22.894531 23.691406 22.828125 23.691406 22.742188 C 23.691406 22.65625 23.621094 22.589844 23.535156 22.589844 " fill-opacity="1" fill-rule="nonzero"/><path fill="#ffffff" d="M 26.445312 22.589844 L 24.964844 22.589844 C 24.878906 22.589844 24.8125 22.65625 24.8125 22.742188 C 24.8125 22.828125 24.878906 22.894531 24.964844 22.894531 L 26.445312 22.894531 C 26.527344 22.894531 26.597656 22.828125 26.597656 22.742188 C 26.597656 22.65625 26.527344 22.589844 26.445312 22.589844 " fill-opacity="1" fill-rule="nonzero"/><path fill="#ffffff" d="M 23.535156 23.738281 L 18.320312 23.738281 C 18.234375 23.738281 18.164062 23.808594 18.164062 23.894531 C 18.164062 23.980469 18.234375 24.046875 18.320312 24.046875 L 23.535156 24.046875 C 23.621094 24.046875 23.691406 23.980469 23.691406 23.894531 C 23.691406 23.808594 23.621094 23.738281 23.535156 23.738281 " fill-opacity="1" fill-rule="nonzero"/><path fill="#ffffff" d="M 26.445312 23.738281 L 24.964844 23.738281 C 24.878906 23.738281 24.8125 23.808594 24.8125 23.894531 C 24.8125 23.980469 24.878906 24.046875 24.964844 24.046875 L 26.445312 24.046875 C 26.527344 24.046875 26.597656 23.980469 26.597656 23.894531 C 26.597656 23.808594 26.527344 23.738281 26.445312 23.738281 " fill-opacity="1" fill-rule="nonzero"/><path fill="#ffffff" d="M 23.535156 24.890625 L 18.320312 24.890625 C 18.234375 24.890625 18.164062 24.960938 18.164062 25.046875 C 18.164062 25.128906 18.234375 25.199219 18.320312 25.199219 L 23.535156 25.199219 C 23.621094 25.199219 23.691406 25.128906 23.691406 25.046875 C 23.691406 24.960938 23.621094 24.890625 23.535156 24.890625 " fill-opacity="1" fill-rule="nonzero"/><path fill="#ffffff" d="M 26.445312 24.890625 L 24.964844 24.890625 C 24.878906 24.890625 24.8125 24.960938 24.8125 25.046875 C 24.8125 25.128906 24.878906 25.199219 24.964844 25.199219 L 26.445312 25.199219 C 26.527344 25.199219 26.597656 25.128906 26.597656 25.046875 C 26.597656 24.960938 26.527344 24.890625 26.445312 24.890625 " fill-opacity="1" fill-rule="nonzero"/><path fill="#ffffff" d="M 23.535156 26.042969 L 18.320312 26.042969 C 18.234375 26.042969 18.164062 26.113281 18.164062 26.195312 C 18.164062 26.28125 18.234375 26.351562 18.320312 26.351562 L 23.535156 26.351562 C 23.621094 26.351562 23.691406 26.28125 23.691406 26.195312 C 23.691406 26.113281 23.621094 26.042969 23.535156 26.042969 " fill-opacity="1" fill-rule="nonzero"/><path fill="#ffffff" d="M 26.445312 26.042969 L 24.964844 26.042969 C 24.878906 26.042969 24.8125 26.113281 24.8125 26.195312 C 24.8125 26.28125 24.878906 26.351562 24.964844 26.351562 L 26.445312 26.351562 C 26.527344 26.351562 26.597656 26.28125 26.597656 26.195312 C 26.597656 26.113281 26.527344 26.042969 26.445312 26.042969 " fill-opacity="1" fill-rule="nonzero"/><g clip-path="url(#b99d089da8)"><path fill="#ffffff" d="M 29.433594 16.242188 L 29.433594 16.960938 L 27.957031 16.960938 L 27.957031 16.242188 C 27.957031 15.835938 28.289062 15.503906 28.695312 15.503906 C 29.101562 15.503906 29.433594 15.835938 29.433594 16.242188 Z M 26.171875 29.484375 L 16.296875 29.484375 C 15.890625 29.484375 15.558594 29.152344 15.558594 28.746094 L 15.558594 27.9375 L 25.867188 27.9375 L 25.867188 28.746094 C 25.867188 28.816406 25.875 28.886719 25.890625 28.957031 C 25.894531 28.984375 25.90625 29.011719 25.914062 29.039062 C 25.925781 29.078125 25.933594 29.117188 25.949219 29.152344 C 25.964844 29.183594 25.980469 29.210938 25.996094 29.238281 C 26.015625 29.269531 26.027344 29.300781 26.046875 29.328125 C 26.0625 29.351562 26.082031 29.371094 26.101562 29.394531 C 26.125 29.425781 26.148438 29.457031 26.171875 29.484375 Z M 27.78125 15.75 C 27.765625 15.777344 27.746094 15.804688 27.734375 15.835938 C 27.71875 15.871094 27.710938 15.910156 27.699219 15.945312 C 27.691406 15.976562 27.679688 16.003906 27.671875 16.03125 C 27.65625 16.101562 27.652344 16.171875 27.652344 16.242188 L 27.652344 28.746094 C 27.652344 29.152344 27.320312 29.484375 26.914062 29.484375 C 26.507812 29.484375 26.175781 29.152344 26.175781 28.746094 L 26.175781 27.785156 C 26.175781 27.699219 26.109375 27.628906 26.023438 27.628906 L 17.105469 27.628906 L 17.105469 16.242188 C 17.105469 15.835938 17.4375 15.503906 17.84375 15.503906 L 27.957031 15.503906 C 27.929688 15.53125 27.90625 15.5625 27.882812 15.59375 C 27.867188 15.613281 27.84375 15.636719 27.828125 15.660156 C 27.808594 15.6875 27.796875 15.71875 27.78125 15.75 Z M 28.695312 14.886719 L 17.84375 14.886719 C 17.097656 14.886719 16.492188 15.496094 16.492188 16.242188 L 16.492188 27.320312 L 15.40625 27.320312 C 15.148438 27.320312 14.941406 27.527344 14.941406 27.785156 L 14.941406 28.746094 C 14.941406 29.492188 15.550781 30.097656 16.296875 30.097656 L 26.914062 30.097656 C 27.660156 30.097656 28.265625 29.492188 28.265625 28.746094 L 28.265625 17.578125 L 29.585938 17.578125 C 29.84375 17.578125 30.050781 17.371094 30.050781 17.113281 L 30.050781 16.242188 C 30.050781 15.496094 29.441406 14.886719 28.695312 14.886719 " fill-opacity="1" fill-rule="nonzero"/></g><g clip-path="url(#3cf840dda8)"><path fill="#3cb773" d="M 26.210938 23.78125 C 26.210938 24.273438 26.117188 24.746094 25.929688 25.203125 C 25.742188 25.65625 25.472656 26.058594 25.125 26.40625 C 24.777344 26.753906 24.375 27.023438 23.917969 27.210938 C 23.464844 27.402344 22.992188 27.496094 22.496094 27.496094 C 22.003906 27.496094 21.53125 27.402344 21.078125 27.210938 C 20.621094 27.023438 20.21875 26.753906 19.871094 26.40625 C 19.523438 26.058594 19.253906 25.65625 19.066406 25.203125 C 18.878906 24.746094 18.78125 24.273438 18.78125 23.78125 C 18.78125 23.289062 18.878906 22.8125 19.066406 22.359375 C 19.253906 21.902344 19.523438 21.5 19.871094 21.152344 C 20.21875 20.804688 20.621094 20.535156 21.078125 20.347656 C 21.53125 20.160156 22.003906 20.066406 22.496094 20.066406 C 22.992188 20.066406 23.464844 20.160156 23.917969 20.347656 C 24.375 20.535156 24.777344 20.804688 25.125 21.152344 C 25.472656 21.5 25.742188 21.902344 25.929688 22.359375 C 26.117188 22.8125 26.210938 23.289062 26.210938 23.78125 Z M 26.210938 23.78125 " fill-opacity="1" fill-rule="nonzero"/></g><g clip-path="url(#ef8beaad75)"><path fill="#ffffff" d="M 25.710938 23.78125 C 25.710938 24.207031 25.628906 24.617188 25.464844 25.007812 C 25.300781 25.402344 25.070312 25.75 24.769531 26.050781 C 24.46875 26.351562 24.121094 26.585938 23.726562 26.746094 C 23.332031 26.910156 22.925781 26.992188 22.496094 26.992188 C 22.070312 26.992188 21.664062 26.910156 21.269531 26.746094 C 20.875 26.585938 20.527344 26.351562 20.226562 26.050781 C 19.925781 25.75 19.695312 25.402344 19.53125 25.007812 C 19.367188 24.617188 19.285156 24.207031 19.285156 23.78125 C 19.285156 23.355469 19.367188 22.945312 19.53125 22.550781 C 19.695312 22.15625 19.925781 21.808594 20.226562 21.507812 C 20.527344 21.207031 20.875 20.976562 21.269531 20.8125 C 21.664062 20.648438 22.070312 20.566406 22.496094 20.566406 C 22.925781 20.566406 23.332031 20.648438 23.726562 20.8125 C 24.121094 20.976562 24.46875 21.207031 24.769531 21.507812 C 25.070312 21.808594 25.300781 22.15625 25.464844 22.550781 C 25.628906 22.945312 25.710938 23.355469 25.710938 23.78125 Z M 25.710938 23.78125 " fill-opacity="1" fill-rule="nonzero"/></g><path fill="#3cb773" d="M 22.871094 25.890625 C 22.175781 25.890625 21.613281 25.332031 21.613281 24.636719 L 21.613281 23.96875 C 21.613281 23.949219 21.621094 23.9375 21.632812 23.925781 L 21.910156 23.726562 C 21.925781 23.71875 21.945312 23.714844 21.964844 23.726562 C 21.980469 23.734375 21.992188 23.75 21.992188 23.769531 L 21.992188 24.636719 C 21.992188 25.121094 22.382812 25.515625 22.871094 25.515625 C 23.351562 25.515625 23.746094 25.121094 23.746094 24.636719 L 23.746094 23.871094 C 23.746094 23.84375 23.769531 23.820312 23.796875 23.820312 L 24.074219 23.820312 C 24.101562 23.820312 24.125 23.84375 24.125 23.871094 L 24.125 24.636719 C 24.125 25.332031 23.558594 25.890625 22.871094 25.890625 Z M 21.714844 23.992188 L 21.714844 24.636719 C 21.714844 25.277344 22.230469 25.792969 22.871094 25.792969 C 23.507812 25.792969 24.027344 25.277344 24.027344 24.636719 L 24.027344 23.917969 L 23.84375 23.917969 L 23.84375 24.636719 C 23.84375 25.175781 23.40625 25.613281 22.871094 25.613281 C 22.328125 25.613281 21.890625 25.175781 21.890625 24.636719 L 21.890625 23.863281 Z M 21.714844 23.992188 " fill-opacity="1" fill-rule="evenodd"/><path fill="#3cb773" d="M 22.503906 25.257812 C 22.492188 25.257812 22.480469 25.25 22.472656 25.242188 C 22.453125 25.222656 22.449219 25.199219 22.464844 25.179688 L 22.757812 24.738281 L 22.476562 24.636719 C 22.457031 24.628906 22.445312 24.613281 22.445312 24.597656 C 22.441406 24.578125 22.449219 24.558594 22.464844 24.550781 L 23.214844 24.011719 C 23.234375 24 23.261719 24 23.277344 24.019531 C 23.296875 24.03125 23.300781 24.058594 23.289062 24.078125 L 23.074219 24.484375 L 23.265625 24.648438 C 23.277344 24.660156 23.28125 24.675781 23.28125 24.6875 C 23.28125 24.703125 23.277344 24.71875 23.261719 24.726562 L 22.535156 25.246094 C 22.523438 25.25 22.515625 25.257812 22.503906 25.257812 Z M 22.503906 25.257812 " fill-opacity="1" fill-rule="evenodd"/><path fill="#3cb773" d="M 24.367188 23.917969 L 23.421875 23.917969 C 23.335938 23.917969 23.265625 23.847656 23.265625 23.761719 L 23.265625 22.894531 C 23.265625 22.808594 23.335938 22.738281 23.421875 22.738281 L 24.367188 22.738281 C 24.453125 22.738281 24.519531 22.808594 24.519531 22.894531 L 24.519531 23.761719 C 24.519531 23.847656 24.453125 23.917969 24.367188 23.917969 Z M 23.421875 22.835938 C 23.390625 22.835938 23.363281 22.859375 23.363281 22.894531 L 23.363281 23.761719 C 23.363281 23.792969 23.390625 23.820312 23.421875 23.820312 L 24.367188 23.820312 C 24.398438 23.820312 24.421875 23.792969 24.421875 23.761719 L 24.421875 22.894531 C 24.421875 22.859375 24.398438 22.835938 24.367188 22.835938 Z M 23.421875 22.835938 " fill-opacity="1" fill-rule="evenodd"/><path fill="#3cb773" d="M 23.714844 22.390625 L 23.503906 22.390625 C 23.476562 22.390625 23.453125 22.367188 23.453125 22.339844 L 23.453125 21.824219 C 23.453125 21.738281 23.523438 21.667969 23.609375 21.667969 C 23.695312 21.667969 23.765625 21.738281 23.765625 21.824219 L 23.765625 22.339844 C 23.765625 22.367188 23.742188 22.390625 23.714844 22.390625 Z M 23.554688 22.292969 L 23.667969 22.292969 L 23.667969 21.824219 C 23.667969 21.792969 23.640625 21.765625 23.609375 21.765625 C 23.578125 21.765625 23.554688 21.792969 23.554688 21.824219 Z M 23.554688 22.292969 " fill-opacity="1" fill-rule="evenodd"/><path fill="#3cb773" d="M 24.285156 22.390625 L 24.070312 22.390625 C 24.042969 22.390625 24.019531 22.367188 24.019531 22.339844 L 24.019531 21.824219 C 24.019531 21.738281 24.09375 21.667969 24.175781 21.667969 C 24.265625 21.667969 24.332031 21.738281 24.332031 21.824219 L 24.332031 22.339844 C 24.332031 22.367188 24.3125 22.390625 24.285156 22.390625 Z M 24.121094 22.292969 L 24.234375 22.292969 L 24.234375 21.824219 C 24.234375 21.792969 24.210938 21.765625 24.175781 21.765625 C 24.148438 21.765625 24.121094 21.792969 24.121094 21.824219 Z M 24.121094 22.292969 " fill-opacity="1" fill-rule="evenodd"/><path fill="#3cb773" d="M 24.183594 23.089844 L 23.605469 23.089844 C 23.578125 23.089844 23.554688 23.066406 23.554688 23.039062 C 23.554688 23.011719 23.578125 22.988281 23.605469 22.988281 L 24.183594 22.988281 C 24.210938 22.988281 24.230469 23.011719 24.230469 23.039062 C 24.230469 23.066406 24.210938 23.089844 24.183594 23.089844 Z M 24.183594 23.089844 " fill-opacity="1" fill-rule="evenodd"/><path fill="#3cb773" d="M 24.183594 23.375 L 23.605469 23.375 C 23.578125 23.375 23.554688 23.355469 23.554688 23.328125 C 23.554688 23.300781 23.578125 23.277344 23.605469 23.277344 L 24.183594 23.277344 C 24.210938 23.277344 24.230469 23.300781 24.230469 23.328125 C 24.230469 23.355469 24.210938 23.375 24.183594 23.375 Z M 24.183594 23.375 " fill-opacity="1" fill-rule="evenodd"/><path fill="#3cb773" d="M 24.183594 23.667969 L 23.605469 23.667969 C 23.578125 23.667969 23.554688 23.644531 23.554688 23.617188 C 23.554688 23.589844 23.578125 23.566406 23.605469 23.566406 L 24.183594 23.566406 C 24.210938 23.566406 24.230469 23.589844 24.230469 23.617188 C 24.230469 23.644531 24.210938 23.667969 24.183594 23.667969 Z M 24.183594 23.667969 " fill-opacity="1" fill-rule="evenodd"/><path fill="#3cb773" d="M 20.554688 24.808594 C 20.542969 24.808594 20.527344 24.804688 20.519531 24.792969 C 20.5 24.777344 20.5 24.75 20.511719 24.730469 L 21.300781 23.546875 L 20.507812 23.257812 C 20.488281 23.253906 20.476562 23.234375 20.476562 23.21875 C 20.472656 23.199219 20.480469 23.179688 20.496094 23.171875 L 22.382812 21.824219 C 22.402344 21.8125 22.429688 21.8125 22.445312 21.828125 C 22.464844 21.84375 22.46875 21.867188 22.457031 21.886719 L 21.882812 22.96875 L 22.414062 23.414062 C 22.425781 23.425781 22.429688 23.441406 22.429688 23.457031 C 22.429688 23.46875 22.421875 23.484375 22.410156 23.496094 L 20.582031 24.796875 C 20.574219 24.804688 20.5625 24.808594 20.554688 24.808594 Z M 20.554688 24.808594 " fill-opacity="1" fill-rule="evenodd"/><path fill="#3cb773" d="M 24.339844 22.835938 L 23.449219 22.835938 C 23.421875 22.835938 23.398438 22.8125 23.398438 22.785156 L 23.398438 22.414062 C 23.398438 22.347656 23.453125 22.292969 23.519531 22.292969 L 24.265625 22.292969 C 24.332031 22.292969 24.386719 22.347656 24.386719 22.414062 L 24.386719 22.785156 C 24.386719 22.8125 24.367188 22.835938 24.339844 22.835938 Z M 23.5 22.738281 L 24.289062 22.738281 L 24.289062 22.414062 C 24.289062 22.402344 24.277344 22.390625 24.265625 22.390625 L 23.519531 22.390625 C 23.507812 22.390625 23.5 22.402344 23.5 22.414062 Z M 23.5 22.738281 " fill-opacity="1" fill-rule="evenodd"/></svg>