<svg xmlns="http://www.w3.org/2000/svg" xmlns:xlink="http://www.w3.org/1999/xlink" width="40" zoomAndPan="magnify" viewBox="0 0 30 30.000001" height="40" preserveAspectRatio="xMidYMid meet" version="1.0"><defs><g/><clipPath id="8dad8f6ffe"><path d="M 1 0.1875 L 1.601562 0.1875 L 1.601562 1.8125 L 1 1.8125 Z M 1 0.1875 " clip-rule="nonzero"/></clipPath><clipPath id="ae04410167"><rect x="0" width="2" y="0" height="2"/></clipPath><clipPath id="7a771c98f9"><path d="M 4.535156 9.25 L 25.460938 9.25 L 25.460938 19.773438 L 4.535156 19.773438 Z M 4.535156 9.25 " clip-rule="nonzero"/></clipPath></defs><g transform="matrix(1, 0, 0, 1, 17, 17)"><g clip-path="url(#ae04410167)"><g clip-path="url(#8dad8f6ffe)"><g fill="#000000" fill-opacity="1"><g transform="translate(0.966707, 1.269863)"><g><path d="M 0.046875 0 L 0.046875 -0.0625 L 0.234375 -0.0625 L 0.234375 -0.609375 C 0.203125 -0.585938 0.171875 -0.570312 0.140625 -0.5625 C 0.117188 -0.550781 0.09375 -0.546875 0.0625 -0.546875 L 0.0625 -0.625 C 0.09375 -0.625 0.125 -0.628906 0.15625 -0.640625 C 0.195312 -0.660156 0.226562 -0.679688 0.25 -0.703125 L 0.3125 -0.703125 L 0.3125 -0.0625 L 0.484375 -0.0625 L 0.484375 0 Z M 0.046875 0 "/></g></g></g></g></g></g><g clip-path="url(#7a771c98f9)"><path fill="#178b53" d="M 11.605469 18.066406 C 11.4375 18.066406 11.300781 18.203125 11.300781 18.371094 L 11.300781 19.007812 C 11.300781 19.179688 11.4375 19.316406 11.605469 19.316406 C 11.777344 19.316406 11.914062 19.179688 11.914062 19.007812 L 11.914062 18.371094 C 11.914062 18.203125 11.777344 18.066406 11.605469 18.066406 Z M 11.605469 16.394531 C 11.4375 16.394531 11.300781 16.53125 11.300781 16.699219 L 11.300781 17.335938 C 11.300781 17.507812 11.4375 17.644531 11.605469 17.644531 C 11.777344 17.644531 11.914062 17.507812 11.914062 17.335938 L 11.914062 16.699219 C 11.914062 16.53125 11.777344 16.394531 11.605469 16.394531 Z M 11.605469 14.722656 C 11.4375 14.722656 11.300781 14.859375 11.300781 15.027344 L 11.300781 15.664062 C 11.300781 15.835938 11.4375 15.972656 11.605469 15.972656 C 11.777344 15.972656 11.914062 15.835938 11.914062 15.664062 L 11.914062 15.027344 C 11.914062 14.859375 11.777344 14.722656 11.605469 14.722656 Z M 7.839844 14.089844 C 7.839844 14.902344 7.839844 15.714844 7.839844 16.53125 L 8.328125 16.53125 C 8.328125 15.714844 8.328125 14.902344 8.328125 14.089844 C 8.164062 14.089844 8.003906 14.089844 7.839844 14.089844 Z M 6.371094 14.089844 C 6.371094 14.835938 6.371094 15.582031 6.371094 16.328125 C 6.371094 16.421875 6.4375 16.5 6.515625 16.53125 L 7.714844 16.53125 C 7.714844 15.71875 7.71875 14.902344 7.714844 14.089844 C 7.269531 14.089844 6.820312 14.089844 6.371094 14.089844 Z M 8.449219 14.089844 C 8.449219 14.902344 8.449219 15.71875 8.449219 16.53125 L 9.652344 16.53125 C 9.730469 16.5 9.796875 16.421875 9.792969 16.328125 C 9.796875 15.582031 9.796875 14.835938 9.792969 14.089844 C 9.347656 14.089844 8.898438 14.089844 8.449219 14.089844 Z M 23.371094 13.84375 L 23.605469 13.84375 C 23.765625 13.84375 23.84375 13.945312 23.84375 14.148438 C 23.84375 14.238281 23.824219 14.308594 23.78125 14.363281 C 23.742188 14.417969 23.679688 14.445312 23.601562 14.445312 L 23.371094 14.445312 Z M 15.535156 13.820312 C 15.644531 13.820312 15.722656 13.863281 15.773438 13.953125 C 15.828125 14.039062 15.851562 14.175781 15.851562 14.355469 L 15.851562 14.703125 C 15.851562 14.875 15.824219 15 15.773438 15.082031 C 15.722656 15.164062 15.644531 15.203125 15.539062 15.203125 C 15.429688 15.203125 15.347656 15.164062 15.296875 15.078125 C 15.242188 14.996094 15.214844 14.867188 15.214844 14.691406 L 15.214844 14.335938 C 15.21875 14.160156 15.246094 14.03125 15.296875 13.945312 C 15.347656 13.863281 15.425781 13.820312 15.535156 13.820312 Z M 22.964844 13.507812 L 22.964844 15.515625 L 23.371094 15.515625 L 23.371094 14.78125 L 23.570312 14.78125 L 23.875 15.515625 L 24.308594 15.515625 L 24.308594 15.496094 L 23.957031 14.675781 C 24.152344 14.566406 24.25 14.382812 24.25 14.113281 C 24.25 13.921875 24.191406 13.769531 24.082031 13.664062 C 23.972656 13.558594 23.816406 13.507812 23.613281 13.507812 Z M 21.550781 13.507812 L 21.550781 15.515625 L 22.703125 15.515625 L 22.703125 15.179688 L 21.957031 15.179688 L 21.957031 14.644531 L 22.589844 14.644531 L 22.589844 14.320312 L 21.957031 14.320312 L 21.957031 13.84375 L 22.703125 13.84375 L 22.703125 13.507812 Z M 19.785156 13.507812 L 19.785156 15.515625 L 20.191406 15.515625 L 20.191406 14.65625 L 20.789062 14.65625 L 20.789062 15.515625 L 21.195312 15.515625 L 21.195312 13.507812 L 20.789062 13.507812 L 20.789062 14.320312 L 20.191406 14.320312 L 20.191406 13.507812 Z M 16.476562 13.507812 L 16.476562 14.886719 C 16.476562 15.101562 16.53125 15.261719 16.648438 15.375 C 16.761719 15.488281 16.925781 15.542969 17.140625 15.542969 C 17.351562 15.542969 17.511719 15.488281 17.625 15.375 C 17.738281 15.265625 17.796875 15.105469 17.796875 14.898438 L 17.796875 13.507812 L 17.394531 13.507812 L 17.394531 14.894531 C 17.390625 15.007812 17.375 15.085938 17.339844 15.132812 C 17.300781 15.183594 17.234375 15.207031 17.140625 15.207031 C 17.042969 15.207031 16.976562 15.183594 16.941406 15.132812 C 16.902344 15.085938 16.882812 15.003906 16.882812 14.890625 L 16.882812 13.507812 Z M 13.066406 13.507812 L 13.640625 15.515625 L 14.0625 15.515625 L 14.640625 13.507812 L 14.191406 13.507812 L 13.851562 14.964844 L 13.515625 13.507812 Z M 18.8125 13.480469 C 18.589844 13.480469 18.414062 13.554688 18.289062 13.703125 C 18.164062 13.855469 18.101562 14.066406 18.101562 14.339844 L 18.101562 14.679688 C 18.101562 14.957031 18.164062 15.167969 18.285156 15.320312 C 18.40625 15.46875 18.578125 15.542969 18.804688 15.542969 C 19.023438 15.542969 19.1875 15.484375 19.308594 15.367188 C 19.425781 15.25 19.492188 15.074219 19.5 14.847656 L 19.09375 14.847656 C 19.089844 14.980469 19.066406 15.078125 19.027344 15.128906 C 18.984375 15.179688 18.914062 15.207031 18.804688 15.207031 C 18.699219 15.207031 18.621094 15.167969 18.578125 15.09375 C 18.53125 15.019531 18.507812 14.882812 18.507812 14.683594 L 18.507812 14.304688 C 18.511719 14.132812 18.535156 14.007812 18.582031 13.929688 C 18.625 13.855469 18.703125 13.816406 18.8125 13.816406 C 18.917969 13.816406 18.992188 13.84375 19.03125 13.898438 C 19.070312 13.949219 19.09375 14.046875 19.097656 14.191406 L 19.503906 14.191406 C 19.488281 13.960938 19.421875 13.785156 19.308594 13.664062 C 19.195312 13.542969 19.03125 13.480469 18.8125 13.480469 Z M 15.535156 13.480469 C 15.308594 13.480469 15.128906 13.558594 15.003906 13.710938 C 14.875 13.867188 14.8125 14.082031 14.8125 14.359375 L 14.8125 14.703125 C 14.8125 14.96875 14.878906 15.171875 15.007812 15.320312 C 15.136719 15.46875 15.3125 15.542969 15.539062 15.542969 C 15.765625 15.542969 15.941406 15.46875 16.066406 15.320312 C 16.195312 15.171875 16.257812 14.960938 16.257812 14.691406 L 16.257812 14.347656 C 16.257812 14.074219 16.191406 13.859375 16.0625 13.707031 C 15.933594 13.554688 15.757812 13.480469 15.535156 13.480469 Z M 11.605469 13.050781 C 11.4375 13.050781 11.300781 13.1875 11.300781 13.355469 L 11.300781 13.992188 C 11.300781 14.164062 11.4375 14.300781 11.605469 14.300781 C 11.777344 14.300781 11.914062 14.164062 11.914062 13.992188 L 11.914062 13.355469 C 11.914062 13.1875 11.777344 13.050781 11.605469 13.050781 Z M 7.222656 12.492188 C 7.113281 12.492188 7.007812 12.539062 6.929688 12.625 C 6.851562 12.710938 6.808594 12.828125 6.808594 12.949219 C 6.808594 13.035156 6.828125 13.117188 6.871094 13.191406 L 6.890625 13.210938 L 6.285156 13.210938 C 6.191406 13.207031 6.113281 13.277344 6.082031 13.359375 L 6.082031 13.828125 C 6.113281 13.914062 6.191406 13.984375 6.285156 13.980469 C 6.761719 13.980469 7.238281 13.980469 7.714844 13.980469 C 7.714844 13.722656 7.71875 13.46875 7.714844 13.210938 L 7.203125 13.210938 L 7.148438 13.132812 C 7.117188 13.113281 7.082031 13.085938 7.0625 13.050781 C 7.046875 13.019531 7.042969 12.984375 7.042969 12.949219 C 7.042969 12.894531 7.058594 12.84375 7.09375 12.808594 C 7.128906 12.769531 7.171875 12.75 7.222656 12.75 C 7.351562 12.75 7.480469 12.835938 7.582031 12.917969 C 7.652344 12.976562 7.71875 13.039062 7.785156 13.109375 L 7.878906 13.210938 L 7.839844 13.210938 L 7.839844 13.980469 L 8.328125 13.980469 L 8.328125 13.210938 L 8.273438 13.210938 L 8.367188 13.109375 C 8.433594 13.039062 8.5 12.976562 8.570312 12.917969 C 8.671875 12.835938 8.800781 12.75 8.929688 12.75 C 8.980469 12.75 9.023438 12.769531 9.058594 12.808594 C 9.09375 12.84375 9.109375 12.894531 9.109375 12.949219 C 9.109375 12.984375 9.105469 13.019531 9.089844 13.050781 C 9.070312 13.085938 9.035156 13.113281 9.003906 13.132812 L 8.949219 13.210938 L 8.449219 13.210938 C 8.449219 13.464844 8.449219 13.722656 8.449219 13.980469 C 8.914062 13.980469 9.375 13.980469 9.839844 13.980469 C 9.933594 13.984375 10.007812 13.914062 10.035156 13.828125 L 10.035156 13.359375 C 10.007812 13.277344 9.933594 13.207031 9.839844 13.210938 L 9.261719 13.210938 L 9.28125 13.191406 C 9.324219 13.117188 9.34375 13.035156 9.34375 12.949219 C 9.34375 12.828125 9.300781 12.710938 9.222656 12.625 C 9.144531 12.539062 9.039062 12.492188 8.929688 12.492188 C 8.75 12.492188 8.578125 12.59375 8.4375 12.710938 C 8.308594 12.8125 8.191406 12.9375 8.074219 13.0625 C 7.960938 12.9375 7.84375 12.8125 7.714844 12.710938 C 7.574219 12.59375 7.402344 12.492188 7.222656 12.492188 Z M 11.605469 11.378906 C 11.4375 11.378906 11.300781 11.515625 11.300781 11.6875 L 11.300781 12.320312 C 11.300781 12.492188 11.4375 12.628906 11.605469 12.628906 C 11.777344 12.628906 11.914062 12.492188 11.914062 12.320312 L 11.914062 11.6875 C 11.914062 11.515625 11.777344 11.378906 11.605469 11.378906 Z M 11.605469 9.707031 C 11.4375 9.707031 11.300781 9.84375 11.300781 10.015625 L 11.300781 10.648438 C 11.300781 10.820312 11.4375 10.957031 11.605469 10.957031 C 11.777344 10.957031 11.914062 10.820312 11.914062 10.648438 L 11.914062 10.015625 C 11.914062 9.84375 11.777344 9.707031 11.605469 9.707031 Z M 5.679688 9.25 L 24.316406 9.25 C 24.949219 9.25 25.460938 9.761719 25.460938 10.394531 L 25.460938 18.628906 C 25.460938 19.261719 24.949219 19.773438 24.316406 19.773438 L 5.679688 19.773438 C 5.046875 19.773438 4.535156 19.261719 4.535156 18.628906 L 4.535156 10.394531 C 4.535156 9.761719 5.046875 9.25 5.679688 9.25 Z M 5.679688 9.25 " fill-opacity="1" fill-rule="evenodd"/></g></svg>