<svg xmlns="http://www.w3.org/2000/svg" xmlns:xlink="http://www.w3.org/1999/xlink" width="60" zoomAndPan="magnify" viewBox="0 0 45 44.999999" height="60" preserveAspectRatio="xMidYMid meet" version="1.0"><defs><clipPath id="3d60ad6bdf"><path d="M 1.949219 1.949219 L 43.050781 1.949219 L 43.050781 43.050781 L 1.949219 43.050781 Z M 1.949219 1.949219 " clip-rule="nonzero"/></clipPath><clipPath id="9f340a95f3"><path d="M 7.199219 1.949219 L 37.800781 1.949219 C 39.191406 1.949219 40.527344 2.503906 41.511719 3.488281 C 42.496094 4.472656 43.050781 5.808594 43.050781 7.199219 L 43.050781 37.800781 C 43.050781 39.191406 42.496094 40.527344 41.511719 41.511719 C 40.527344 42.496094 39.191406 43.050781 37.800781 43.050781 L 7.199219 43.050781 C 5.808594 43.050781 4.472656 42.496094 3.488281 41.511719 C 2.503906 40.527344 1.949219 39.191406 1.949219 37.800781 L 1.949219 7.199219 C 1.949219 5.808594 2.503906 4.472656 3.488281 3.488281 C 4.472656 2.503906 5.808594 1.949219 7.199219 1.949219 Z M 7.199219 1.949219 " clip-rule="nonzero"/></clipPath><clipPath id="2f35b4c0bf"><path d="M 0.949219 0.949219 L 42.050781 0.949219 L 42.050781 42.050781 L 0.949219 42.050781 Z M 0.949219 0.949219 " clip-rule="nonzero"/></clipPath><clipPath id="b7a96ecde6"><path d="M 6.199219 0.949219 L 36.800781 0.949219 C 38.191406 0.949219 39.527344 1.503906 40.511719 2.488281 C 41.496094 3.472656 42.050781 4.808594 42.050781 6.199219 L 42.050781 36.800781 C 42.050781 38.191406 41.496094 39.527344 40.511719 40.511719 C 39.527344 41.496094 38.191406 42.050781 36.800781 42.050781 L 6.199219 42.050781 C 4.808594 42.050781 3.472656 41.496094 2.488281 40.511719 C 1.503906 39.527344 0.949219 38.191406 0.949219 36.800781 L 0.949219 6.199219 C 0.949219 4.808594 1.503906 3.472656 2.488281 2.488281 C 3.472656 1.503906 4.808594 0.949219 6.199219 0.949219 Z M 6.199219 0.949219 " clip-rule="nonzero"/></clipPath><clipPath id="8b4979b9fd"><rect x="0" width="43" y="0" height="43"/></clipPath><clipPath id="612263035d"><path d="M 1.949219 1.949219 L 42.273438 1.949219 L 42.273438 42.273438 L 1.949219 42.273438 Z M 1.949219 1.949219 " clip-rule="nonzero"/></clipPath><clipPath id="dd0ea684ff"><path d="M 7.199219 1.949219 L 37.023438 1.949219 C 38.417969 1.949219 39.753906 2.503906 40.738281 3.488281 C 41.722656 4.472656 42.273438 5.808594 42.273438 7.199219 L 42.273438 37.023438 C 42.273438 38.417969 41.722656 39.753906 40.738281 40.738281 C 39.753906 41.722656 38.417969 42.273438 37.023438 42.273438 L 7.199219 42.273438 C 5.808594 42.273438 4.472656 41.722656 3.488281 40.738281 C 2.503906 39.753906 1.949219 38.417969 1.949219 37.023438 L 1.949219 7.199219 C 1.949219 5.808594 2.503906 4.472656 3.488281 3.488281 C 4.472656 2.503906 5.808594 1.949219 7.199219 1.949219 Z M 7.199219 1.949219 " clip-rule="nonzero"/></clipPath><clipPath id="413a8cfa39"><path d="M 0.949219 0.949219 L 41.273438 0.949219 L 41.273438 41.273438 L 0.949219 41.273438 Z M 0.949219 0.949219 " clip-rule="nonzero"/></clipPath><clipPath id="2bf9683087"><path d="M 6.199219 0.949219 L 36.023438 0.949219 C 37.417969 0.949219 38.753906 1.503906 39.738281 2.488281 C 40.722656 3.472656 41.273438 4.808594 41.273438 6.199219 L 41.273438 36.023438 C 41.273438 37.417969 40.722656 38.753906 39.738281 39.738281 C 38.753906 40.722656 37.417969 41.273438 36.023438 41.273438 L 6.199219 41.273438 C 4.808594 41.273438 3.472656 40.722656 2.488281 39.738281 C 1.503906 38.753906 0.949219 37.417969 0.949219 36.023438 L 0.949219 6.199219 C 0.949219 4.808594 1.503906 3.472656 2.488281 2.488281 C 3.472656 1.503906 4.808594 0.949219 6.199219 0.949219 Z M 6.199219 0.949219 " clip-rule="nonzero"/></clipPath><clipPath id="48feee0d92"><rect x="0" width="42" y="0" height="42"/></clipPath><clipPath id="8e5d795bb4"><path d="M 9.351562 8.074219 L 37 8.074219 L 37 35.824219 L 9.351562 35.824219 Z M 9.351562 8.074219 " clip-rule="nonzero"/></clipPath><clipPath id="3c294701b8"><path d="M 16.375 17.523438 L 29.875 17.523438 L 29.875 31.023438 L 16.375 31.023438 Z M 16.375 17.523438 " clip-rule="nonzero"/></clipPath><clipPath id="0991bb0019"><path d="M 17 18 L 29.875 18 L 29.875 31 L 17 31 Z M 17 18 " clip-rule="nonzero"/></clipPath></defs><g clip-path="url(#3d60ad6bdf)"><g clip-path="url(#9f340a95f3)"><g transform="matrix(1, 0, 0, 1, 1, 1)"><g clip-path="url(#8b4979b9fd)"><g clip-path="url(#2f35b4c0bf)"><g clip-path="url(#b7a96ecde6)"><path fill="#29e48a" d="M 0.949219 0.949219 L 42.050781 0.949219 L 42.050781 42.050781 L 0.949219 42.050781 Z M 0.949219 0.949219 " fill-opacity="1" fill-rule="nonzero"/></g></g></g></g></g></g><g clip-path="url(#612263035d)"><g clip-path="url(#dd0ea684ff)"><g transform="matrix(1, 0, 0, 1, 1, 1)"><g clip-path="url(#48feee0d92)"><g clip-path="url(#413a8cfa39)"><g clip-path="url(#2bf9683087)"><path fill="#178b53" d="M 0.949219 0.949219 L 41.273438 0.949219 L 41.273438 41.273438 L 0.949219 41.273438 Z M 0.949219 0.949219 " fill-opacity="1" fill-rule="nonzero"/></g></g></g></g></g></g><path fill="#ffffff" d="M 16.8125 14.910156 L 16.8125 14.035156 L 17.816406 14.035156 C 18.261719 14.035156 18.464844 14.203125 18.464844 14.460938 L 18.464844 14.476562 C 18.464844 14.753906 18.234375 14.910156 17.832031 14.910156 Z M 16.8125 12.273438 L 17.667969 12.273438 C 18.0625 12.273438 18.265625 12.421875 18.265625 12.683594 L 18.265625 12.695312 C 18.265625 12.972656 18.042969 13.109375 17.640625 13.109375 L 16.8125 13.109375 Z M 19.78125 14.660156 L 19.78125 14.644531 C 19.78125 14 19.414062 13.675781 18.835938 13.484375 C 19.257812 13.300781 19.570312 12.972656 19.570312 12.421875 L 19.570312 12.410156 C 19.570312 12.085938 19.457031 11.832031 19.265625 11.640625 C 18.988281 11.363281 18.566406 11.214844 17.96875 11.214844 L 15.527344 11.214844 L 15.527344 15.972656 L 17.980469 15.972656 C 19.117188 15.972656 19.78125 15.476562 19.78125 14.660156 " fill-opacity="1" fill-rule="nonzero"/><path fill="#ffffff" d="M 21.738281 11.214844 L 20.414062 11.214844 L 20.414062 15.972656 L 21.738281 15.972656 L 21.738281 11.214844 " fill-opacity="1" fill-rule="nonzero"/><path fill="#ffffff" d="M 23.925781 11.214844 L 22.609375 11.214844 L 22.609375 15.972656 L 26.230469 15.972656 L 26.230469 14.816406 L 23.925781 14.816406 L 23.925781 11.214844 " fill-opacity="1" fill-rule="nonzero"/><path fill="#ffffff" d="M 30.414062 14.816406 L 28.113281 14.816406 L 28.113281 11.214844 L 26.792969 11.214844 L 26.792969 15.972656 L 30.414062 15.972656 L 30.414062 14.816406 " fill-opacity="1" fill-rule="nonzero"/><path fill="#ffffff" d="M 25.054688 17.929688 L 15.527344 17.929688 C 15.371094 17.929688 15.246094 18.054688 15.246094 18.210938 C 15.246094 18.367188 15.371094 18.492188 15.527344 18.492188 L 25.054688 18.492188 C 25.210938 18.492188 25.335938 18.367188 25.335938 18.210938 C 25.335938 18.054688 25.210938 17.929688 25.054688 17.929688 " fill-opacity="1" fill-rule="nonzero"/><path fill="#ffffff" d="M 30.367188 17.929688 L 27.667969 17.929688 C 27.511719 17.929688 27.386719 18.054688 27.386719 18.210938 C 27.386719 18.367188 27.511719 18.492188 27.667969 18.492188 L 30.367188 18.492188 C 30.523438 18.492188 30.648438 18.367188 30.648438 18.210938 C 30.648438 18.054688 30.523438 17.929688 30.367188 17.929688 " fill-opacity="1" fill-rule="nonzero"/><path fill="#ffffff" d="M 25.054688 20.03125 L 15.527344 20.03125 C 15.371094 20.03125 15.246094 20.15625 15.246094 20.3125 C 15.246094 20.46875 15.371094 20.59375 15.527344 20.59375 L 25.054688 20.59375 C 25.210938 20.59375 25.335938 20.46875 25.335938 20.3125 C 25.335938 20.15625 25.210938 20.03125 25.054688 20.03125 " fill-opacity="1" fill-rule="nonzero"/><path fill="#ffffff" d="M 30.367188 20.03125 L 27.667969 20.03125 C 27.511719 20.03125 27.386719 20.15625 27.386719 20.3125 C 27.386719 20.46875 27.511719 20.59375 27.667969 20.59375 L 30.367188 20.59375 C 30.523438 20.59375 30.648438 20.46875 30.648438 20.3125 C 30.648438 20.15625 30.523438 20.03125 30.367188 20.03125 " fill-opacity="1" fill-rule="nonzero"/><path fill="#ffffff" d="M 25.054688 22.136719 L 15.527344 22.136719 C 15.371094 22.136719 15.246094 22.261719 15.246094 22.417969 C 15.246094 22.570312 15.371094 22.699219 15.527344 22.699219 L 25.054688 22.699219 C 25.210938 22.699219 25.335938 22.570312 25.335938 22.417969 C 25.335938 22.261719 25.210938 22.136719 25.054688 22.136719 " fill-opacity="1" fill-rule="nonzero"/><path fill="#ffffff" d="M 30.367188 22.136719 L 27.667969 22.136719 C 27.511719 22.136719 27.386719 22.261719 27.386719 22.417969 C 27.386719 22.570312 27.511719 22.699219 27.667969 22.699219 L 30.367188 22.699219 C 30.523438 22.699219 30.648438 22.570312 30.648438 22.417969 C 30.648438 22.261719 30.523438 22.136719 30.367188 22.136719 " fill-opacity="1" fill-rule="nonzero"/><path fill="#ffffff" d="M 25.054688 24.238281 L 15.527344 24.238281 C 15.371094 24.238281 15.246094 24.363281 15.246094 24.519531 C 15.246094 24.675781 15.371094 24.800781 15.527344 24.800781 L 25.054688 24.800781 C 25.210938 24.800781 25.335938 24.675781 25.335938 24.519531 C 25.335938 24.363281 25.210938 24.238281 25.054688 24.238281 " fill-opacity="1" fill-rule="nonzero"/><path fill="#ffffff" d="M 30.367188 24.238281 L 27.667969 24.238281 C 27.511719 24.238281 27.386719 24.363281 27.386719 24.519531 C 27.386719 24.675781 27.511719 24.800781 27.667969 24.800781 L 30.367188 24.800781 C 30.523438 24.800781 30.648438 24.675781 30.648438 24.519531 C 30.648438 24.363281 30.523438 24.238281 30.367188 24.238281 " fill-opacity="1" fill-rule="nonzero"/><path fill="#ffffff" d="M 25.054688 26.34375 L 15.527344 26.34375 C 15.371094 26.34375 15.246094 26.46875 15.246094 26.625 C 15.246094 26.777344 15.371094 26.90625 15.527344 26.90625 L 25.054688 26.90625 C 25.210938 26.90625 25.335938 26.777344 25.335938 26.625 C 25.335938 26.46875 25.210938 26.34375 25.054688 26.34375 " fill-opacity="1" fill-rule="nonzero"/><path fill="#ffffff" d="M 30.367188 26.34375 L 27.667969 26.34375 C 27.511719 26.34375 27.386719 26.46875 27.386719 26.625 C 27.386719 26.777344 27.511719 26.90625 27.667969 26.90625 L 30.367188 26.90625 C 30.523438 26.90625 30.648438 26.777344 30.648438 26.625 C 30.648438 26.46875 30.523438 26.34375 30.367188 26.34375 " fill-opacity="1" fill-rule="nonzero"/><path fill="#ffffff" d="M 25.054688 28.445312 L 15.527344 28.445312 C 15.371094 28.445312 15.246094 28.570312 15.246094 28.726562 C 15.246094 28.882812 15.371094 29.007812 15.527344 29.007812 L 25.054688 29.007812 C 25.210938 29.007812 25.335938 28.882812 25.335938 28.726562 C 25.335938 28.570312 25.210938 28.445312 25.054688 28.445312 " fill-opacity="1" fill-rule="nonzero"/><path fill="#ffffff" d="M 30.367188 28.445312 L 27.667969 28.445312 C 27.511719 28.445312 27.386719 28.570312 27.386719 28.726562 C 27.386719 28.882812 27.511719 29.007812 27.667969 29.007812 L 30.367188 29.007812 C 30.523438 29.007812 30.648438 28.882812 30.648438 28.726562 C 30.648438 28.570312 30.523438 28.445312 30.367188 28.445312 " fill-opacity="1" fill-rule="nonzero"/><g clip-path="url(#8e5d795bb4)"><path fill="#ffffff" d="M 35.828125 10.542969 L 35.828125 11.855469 L 33.136719 11.855469 L 33.136719 10.542969 C 33.136719 9.800781 33.738281 9.195312 34.480469 9.195312 C 35.222656 9.195312 35.828125 9.800781 35.828125 10.542969 Z M 29.875 34.730469 L 11.832031 34.730469 C 11.089844 34.730469 10.484375 34.125 10.484375 33.382812 L 10.484375 31.90625 L 29.316406 31.90625 L 29.316406 33.382812 C 29.316406 33.511719 29.328125 33.640625 29.355469 33.765625 C 29.367188 33.820312 29.386719 33.867188 29.402344 33.921875 C 29.421875 33.988281 29.4375 34.058594 29.464844 34.125 C 29.488281 34.179688 29.523438 34.230469 29.550781 34.28125 C 29.582031 34.335938 29.605469 34.394531 29.640625 34.449219 C 29.671875 34.492188 29.710938 34.527344 29.742188 34.570312 C 29.785156 34.621094 29.824219 34.679688 29.875 34.730469 Z M 32.808594 9.644531 C 32.777344 9.695312 32.746094 9.746094 32.722656 9.800781 C 32.695312 9.867188 32.679688 9.9375 32.660156 10.003906 C 32.644531 10.054688 32.621094 10.105469 32.609375 10.160156 C 32.585938 10.28125 32.570312 10.410156 32.570312 10.542969 L 32.570312 33.382812 C 32.570312 34.125 31.96875 34.730469 31.226562 34.730469 C 30.484375 34.730469 29.878906 34.125 29.878906 33.382812 L 29.878906 31.625 C 29.878906 31.46875 29.753906 31.34375 29.597656 31.34375 L 13.3125 31.34375 L 13.3125 10.542969 C 13.3125 9.800781 13.917969 9.195312 14.660156 9.195312 L 33.128906 9.195312 C 33.082031 9.246094 33.039062 9.300781 32.996094 9.355469 C 32.964844 9.398438 32.925781 9.433594 32.898438 9.476562 C 32.863281 9.527344 32.835938 9.585938 32.808594 9.644531 Z M 34.480469 8.070312 L 14.660156 8.070312 C 13.296875 8.070312 12.1875 9.179688 12.1875 10.542969 L 12.1875 30.78125 L 10.203125 30.78125 C 9.738281 30.78125 9.359375 31.160156 9.359375 31.625 L 9.359375 33.382812 C 9.359375 34.746094 10.46875 35.855469 11.832031 35.855469 L 31.226562 35.855469 C 32.589844 35.855469 33.699219 34.746094 33.699219 33.382812 L 33.699219 12.980469 L 36.109375 12.980469 C 36.574219 12.980469 36.953125 12.601562 36.953125 12.136719 L 36.953125 10.542969 C 36.953125 9.179688 35.84375 8.070312 34.480469 8.070312 " fill-opacity="1" fill-rule="nonzero"/></g><g clip-path="url(#3c294701b8)"><path fill="#178b53" d="M 29.945312 24.308594 C 29.945312 24.753906 29.902344 25.195312 29.816406 25.632812 C 29.726562 26.070312 29.597656 26.492188 29.429688 26.90625 C 29.257812 27.316406 29.050781 27.707031 28.800781 28.078125 C 28.554688 28.449219 28.273438 28.792969 27.957031 29.105469 C 27.640625 29.421875 27.300781 29.703125 26.929688 29.949219 C 26.558594 30.199219 26.167969 30.40625 25.757812 30.578125 C 25.34375 30.746094 24.921875 30.875 24.484375 30.964844 C 24.046875 31.050781 23.605469 31.09375 23.160156 31.09375 C 22.714844 31.09375 22.273438 31.050781 21.835938 30.964844 C 21.398438 30.875 20.976562 30.746094 20.5625 30.578125 C 20.152344 30.40625 19.761719 30.199219 19.390625 29.949219 C 19.019531 29.703125 18.675781 29.421875 18.363281 29.105469 C 18.046875 28.792969 17.765625 28.449219 17.519531 28.078125 C 17.269531 27.707031 17.0625 27.316406 16.890625 26.90625 C 16.71875 26.492188 16.59375 26.070312 16.503906 25.632812 C 16.417969 25.195312 16.375 24.753906 16.375 24.308594 C 16.375 23.863281 16.417969 23.421875 16.503906 22.984375 C 16.59375 22.546875 16.71875 22.125 16.890625 21.710938 C 17.0625 21.300781 17.269531 20.910156 17.519531 20.539062 C 17.765625 20.167969 18.046875 19.824219 18.363281 19.511719 C 18.675781 19.195312 19.019531 18.914062 19.390625 18.667969 C 19.761719 18.417969 20.152344 18.210938 20.5625 18.039062 C 20.976562 17.871094 21.398438 17.742188 21.835938 17.652344 C 22.273438 17.566406 22.714844 17.523438 23.160156 17.523438 C 23.605469 17.523438 24.046875 17.566406 24.484375 17.652344 C 24.921875 17.742188 25.34375 17.871094 25.757812 18.039062 C 26.167969 18.210938 26.558594 18.417969 26.929688 18.667969 C 27.300781 18.914062 27.640625 19.195312 27.957031 19.511719 C 28.273438 19.824219 28.554688 20.167969 28.800781 20.539062 C 29.050781 20.910156 29.257812 21.300781 29.429688 21.710938 C 29.597656 22.125 29.726562 22.546875 29.816406 22.984375 C 29.902344 23.421875 29.945312 23.863281 29.945312 24.308594 Z M 29.945312 24.308594 " fill-opacity="1" fill-rule="nonzero"/></g><g clip-path="url(#0991bb0019)"><path fill="#ffffff" d="M 29.027344 24.308594 C 29.027344 24.695312 28.988281 25.074219 28.914062 25.453125 C 28.839844 25.832031 28.726562 26.199219 28.578125 26.554688 C 28.433594 26.910156 28.25 27.246094 28.039062 27.566406 C 27.824219 27.886719 27.582031 28.183594 27.308594 28.457031 C 27.035156 28.730469 26.738281 28.972656 26.417969 29.1875 C 26.097656 29.402344 25.761719 29.582031 25.40625 29.730469 C 25.050781 29.875 24.683594 29.988281 24.304688 30.0625 C 23.925781 30.136719 23.546875 30.175781 23.160156 30.175781 C 22.773438 30.175781 22.394531 30.136719 22.015625 30.0625 C 21.636719 29.988281 21.269531 29.875 20.914062 29.730469 C 20.558594 29.582031 20.21875 29.402344 19.898438 29.1875 C 19.578125 28.972656 19.285156 28.730469 19.011719 28.457031 C 18.738281 28.183594 18.496094 27.886719 18.28125 27.566406 C 18.066406 27.246094 17.886719 26.910156 17.738281 26.554688 C 17.59375 26.199219 17.480469 25.832031 17.40625 25.453125 C 17.332031 25.074219 17.292969 24.695312 17.292969 24.308594 C 17.292969 23.921875 17.332031 23.542969 17.40625 23.164062 C 17.480469 22.785156 17.59375 22.417969 17.738281 22.0625 C 17.886719 21.707031 18.066406 21.371094 18.28125 21.050781 C 18.496094 20.730469 18.738281 20.433594 19.011719 20.160156 C 19.285156 19.886719 19.578125 19.644531 19.898438 19.429688 C 20.21875 19.214844 20.558594 19.035156 20.914062 18.886719 C 21.269531 18.742188 21.636719 18.628906 22.015625 18.554688 C 22.394531 18.480469 22.773438 18.441406 23.160156 18.441406 C 23.546875 18.441406 23.925781 18.480469 24.304688 18.554688 C 24.683594 18.628906 25.050781 18.742188 25.40625 18.886719 C 25.761719 19.035156 26.097656 19.214844 26.417969 19.429688 C 26.738281 19.644531 27.035156 19.886719 27.308594 20.160156 C 27.582031 20.433594 27.824219 20.730469 28.039062 21.050781 C 28.25 21.371094 28.433594 21.707031 28.578125 22.0625 C 28.726562 22.417969 28.839844 22.785156 28.914062 23.164062 C 28.988281 23.542969 29.027344 23.921875 29.027344 24.308594 Z M 29.027344 24.308594 " fill-opacity="1" fill-rule="nonzero"/></g><path fill="#178b53" d="M 23.839844 28.167969 C 22.570312 28.167969 21.542969 27.140625 21.542969 25.875 L 21.542969 24.652344 C 21.542969 24.621094 21.558594 24.59375 21.582031 24.574219 L 22.085938 24.214844 C 22.113281 24.195312 22.152344 24.191406 22.183594 24.210938 C 22.214844 24.222656 22.234375 24.253906 22.234375 24.289062 L 22.234375 25.875 C 22.234375 26.761719 22.953125 27.480469 23.839844 27.480469 C 24.71875 27.480469 25.441406 26.761719 25.441406 25.875 L 25.441406 24.472656 C 25.441406 24.421875 25.480469 24.382812 25.53125 24.382812 L 26.042969 24.382812 C 26.089844 24.382812 26.132812 24.421875 26.132812 24.472656 L 26.132812 25.875 C 26.132812 27.140625 25.101562 28.167969 23.839844 28.167969 Z M 21.726562 24.699219 L 21.726562 25.875 C 21.726562 27.039062 22.671875 27.984375 23.839844 27.984375 C 25 27.984375 25.949219 27.039062 25.949219 25.875 L 25.949219 24.5625 L 25.621094 24.5625 L 25.621094 25.875 C 25.621094 26.859375 24.820312 27.660156 23.839844 27.660156 C 22.851562 27.660156 22.050781 26.859375 22.050781 25.875 L 22.050781 24.460938 Z M 21.726562 24.699219 " fill-opacity="1" fill-rule="evenodd"/><path fill="#178b53" d="M 23.171875 27.003906 C 23.152344 27.003906 23.128906 26.996094 23.109375 26.976562 C 23.078125 26.945312 23.074219 26.902344 23.101562 26.863281 L 23.632812 26.058594 L 23.117188 25.875 C 23.085938 25.859375 23.066406 25.832031 23.058594 25.800781 C 23.054688 25.765625 23.074219 25.734375 23.101562 25.714844 L 24.472656 24.734375 C 24.507812 24.710938 24.554688 24.710938 24.585938 24.742188 C 24.617188 24.769531 24.625 24.816406 24.605469 24.851562 L 24.210938 25.597656 L 24.5625 25.894531 C 24.585938 25.914062 24.59375 25.941406 24.59375 25.96875 C 24.59375 25.996094 24.582031 26.023438 24.558594 26.035156 L 23.226562 26.988281 C 23.210938 26.996094 23.191406 27.003906 23.171875 27.003906 Z M 23.171875 27.003906 " fill-opacity="1" fill-rule="evenodd"/><path fill="#178b53" d="M 26.570312 24.5625 L 24.847656 24.5625 C 24.6875 24.5625 24.5625 24.433594 24.5625 24.277344 L 24.5625 22.6875 C 24.5625 22.53125 24.6875 22.402344 24.847656 22.402344 L 26.570312 22.402344 C 26.730469 22.402344 26.855469 22.53125 26.855469 22.6875 L 26.855469 24.277344 C 26.855469 24.433594 26.730469 24.5625 26.570312 24.5625 Z M 24.847656 22.585938 C 24.789062 22.585938 24.742188 22.628906 24.742188 22.6875 L 24.742188 24.277344 C 24.742188 24.332031 24.789062 24.382812 24.847656 24.382812 L 26.570312 24.382812 C 26.628906 24.382812 26.675781 24.332031 26.675781 24.277344 L 26.675781 22.6875 C 26.675781 22.628906 26.628906 22.585938 26.570312 22.585938 Z M 24.847656 22.585938 " fill-opacity="1" fill-rule="evenodd"/><path fill="#178b53" d="M 25.386719 21.769531 L 24.996094 21.769531 C 24.945312 21.769531 24.90625 21.730469 24.90625 21.679688 L 24.90625 20.734375 C 24.90625 20.578125 25.03125 20.449219 25.191406 20.449219 C 25.347656 20.449219 25.476562 20.578125 25.476562 20.734375 L 25.476562 21.679688 C 25.476562 21.730469 25.433594 21.769531 25.386719 21.769531 Z M 25.085938 21.589844 L 25.292969 21.589844 L 25.292969 20.734375 C 25.292969 20.675781 25.246094 20.632812 25.191406 20.632812 C 25.132812 20.632812 25.085938 20.675781 25.085938 20.734375 Z M 25.085938 21.589844 " fill-opacity="1" fill-rule="evenodd"/><path fill="#178b53" d="M 26.421875 21.769531 L 26.03125 21.769531 C 25.980469 21.769531 25.941406 21.730469 25.941406 21.679688 L 25.941406 20.734375 C 25.941406 20.578125 26.074219 20.449219 26.226562 20.449219 C 26.386719 20.449219 26.511719 20.578125 26.511719 20.734375 L 26.511719 21.679688 C 26.511719 21.730469 26.472656 21.769531 26.421875 21.769531 Z M 26.121094 21.589844 L 26.332031 21.589844 L 26.332031 20.734375 C 26.332031 20.675781 26.285156 20.632812 26.226562 20.632812 C 26.171875 20.632812 26.121094 20.675781 26.121094 20.734375 Z M 26.121094 21.589844 " fill-opacity="1" fill-rule="evenodd"/><path fill="#178b53" d="M 26.234375 23.046875 L 25.183594 23.046875 C 25.132812 23.046875 25.089844 23.007812 25.089844 22.957031 C 25.089844 22.90625 25.132812 22.867188 25.183594 22.867188 L 26.234375 22.867188 C 26.285156 22.867188 26.324219 22.90625 26.324219 22.957031 C 26.324219 23.007812 26.285156 23.046875 26.234375 23.046875 Z M 26.234375 23.046875 " fill-opacity="1" fill-rule="evenodd"/><path fill="#178b53" d="M 26.234375 23.570312 L 25.183594 23.570312 C 25.132812 23.570312 25.089844 23.53125 25.089844 23.480469 C 25.089844 23.429688 25.132812 23.390625 25.183594 23.390625 L 26.234375 23.390625 C 26.285156 23.390625 26.324219 23.429688 26.324219 23.480469 C 26.324219 23.53125 26.285156 23.570312 26.234375 23.570312 Z M 26.234375 23.570312 " fill-opacity="1" fill-rule="evenodd"/><path fill="#178b53" d="M 26.234375 24.101562 L 25.183594 24.101562 C 25.132812 24.101562 25.089844 24.058594 25.089844 24.011719 C 25.089844 23.960938 25.132812 23.917969 25.183594 23.917969 L 26.234375 23.917969 C 26.285156 23.917969 26.324219 23.960938 26.324219 24.011719 C 26.324219 24.058594 26.285156 24.101562 26.234375 24.101562 Z M 26.234375 24.101562 " fill-opacity="1" fill-rule="evenodd"/><path fill="#178b53" d="M 19.609375 26.1875 C 19.585938 26.1875 19.5625 26.175781 19.546875 26.160156 C 19.515625 26.132812 19.507812 26.082031 19.53125 26.046875 L 20.96875 23.882812 L 19.523438 23.355469 C 19.492188 23.34375 19.46875 23.3125 19.464844 23.28125 C 19.460938 23.25 19.472656 23.214844 19.5 23.195312 L 22.953125 20.734375 C 22.988281 20.710938 23.03125 20.71875 23.066406 20.746094 C 23.097656 20.769531 23.105469 20.816406 23.085938 20.851562 L 22.039062 22.828125 L 23.007812 23.644531 C 23.027344 23.660156 23.039062 23.6875 23.039062 23.714844 C 23.039062 23.742188 23.023438 23.769531 23 23.789062 L 19.664062 26.167969 C 19.644531 26.179688 19.625 26.1875 19.609375 26.1875 Z M 19.609375 26.1875 " fill-opacity="1" fill-rule="evenodd"/><path fill="#178b53" d="M 26.519531 22.585938 L 24.898438 22.585938 C 24.847656 22.585938 24.804688 22.542969 24.804688 22.496094 L 24.804688 21.8125 C 24.804688 21.691406 24.90625 21.589844 25.027344 21.589844 L 26.390625 21.589844 C 26.511719 21.589844 26.609375 21.691406 26.609375 21.8125 L 26.609375 22.496094 C 26.609375 22.542969 26.570312 22.585938 26.519531 22.585938 Z M 24.988281 22.402344 L 26.429688 22.402344 L 26.429688 21.8125 C 26.429688 21.789062 26.410156 21.769531 26.390625 21.769531 L 25.027344 21.769531 C 25.003906 21.769531 24.988281 21.789062 24.988281 21.8125 Z M 24.988281 22.402344 " fill-opacity="1" fill-rule="evenodd"/></svg>