<svg xmlns="http://www.w3.org/2000/svg" xmlns:xlink="http://www.w3.org/1999/xlink" width="60" zoomAndPan="magnify" viewBox="0 0 45 44.999999" height="60" preserveAspectRatio="xMidYMid meet" version="1.0"><defs><clipPath id="9fe841ee58"><path d="M 1.988281 1.988281 L 43.011719 1.988281 L 43.011719 43.011719 L 1.988281 43.011719 Z M 1.988281 1.988281 " clip-rule="nonzero"/></clipPath><clipPath id="adfd443946"><path d="M 22.5 1.988281 C 11.171875 1.988281 1.988281 11.171875 1.988281 22.5 C 1.988281 33.828125 11.171875 43.011719 22.5 43.011719 C 33.828125 43.011719 43.011719 33.828125 43.011719 22.5 C 43.011719 11.171875 33.828125 1.988281 22.5 1.988281 Z M 22.5 1.988281 " clip-rule="nonzero"/></clipPath><clipPath id="574e2d2cd9"><path d="M 0.988281 0.988281 L 42.011719 0.988281 L 42.011719 42.011719 L 0.988281 42.011719 Z M 0.988281 0.988281 " clip-rule="nonzero"/></clipPath><clipPath id="4095a812ab"><path d="M 21.5 0.988281 C 10.171875 0.988281 0.988281 10.171875 0.988281 21.5 C 0.988281 32.828125 10.171875 42.011719 21.5 42.011719 C 32.828125 42.011719 42.011719 32.828125 42.011719 21.5 C 42.011719 10.171875 32.828125 0.988281 21.5 0.988281 Z M 21.5 0.988281 " clip-rule="nonzero"/></clipPath><clipPath id="25078fd1a1"><rect x="0" width="43" y="0" height="43"/></clipPath><clipPath id="612c478cf5"><path d="M 13.5 21 L 31 21 L 31 33.378906 L 13.5 33.378906 Z M 13.5 21 " clip-rule="nonzero"/></clipPath><clipPath id="edd9f1af3c"><path d="M 23 24 L 31.5 24 L 31.5 30 L 23 30 Z M 23 24 " clip-rule="nonzero"/></clipPath><clipPath id="23f91b4be5"><path d="M 27 28 L 29 28 L 29 33.378906 L 27 33.378906 Z M 27 28 " clip-rule="nonzero"/></clipPath><clipPath id="0c4513118f"><path d="M 14 16.878906 L 27 16.878906 L 27 22 L 14 22 Z M 14 16.878906 " clip-rule="nonzero"/></clipPath><clipPath id="143db9ea7a"><path d="M 13.5 20 L 30 20 L 30 23 L 13.5 23 Z M 13.5 20 " clip-rule="nonzero"/></clipPath><clipPath id="4e916e1869"><path d="M 19.441406 10.300781 L 23.691406 10.300781 L 23.691406 16.890625 L 19.441406 16.890625 Z M 19.441406 10.300781 " clip-rule="nonzero"/></clipPath><clipPath id="ecf35d725b"><path d="M 22.007812 12.730469 L 22.007812 16.878906 L 21.125 16.878906 L 21.125 12.730469 L 19.441406 13.371094 L 21.566406 10.300781 L 23.691406 13.371094 Z M 22.007812 12.730469 " clip-rule="nonzero"/></clipPath><clipPath id="9711bd6f0b"><path d="M 0.441406 0.300781 L 4.691406 0.300781 L 4.691406 6.890625 L 0.441406 6.890625 Z M 0.441406 0.300781 " clip-rule="nonzero"/></clipPath><clipPath id="e8c8e83fda"><path d="M 3.007812 2.730469 L 3.007812 6.878906 L 2.125 6.878906 L 2.125 2.730469 L 0.441406 3.371094 L 2.566406 0.300781 L 4.691406 3.371094 Z M 3.007812 2.730469 " clip-rule="nonzero"/></clipPath><clipPath id="230adcd506"><rect x="0" width="5" y="0" height="7"/></clipPath></defs><g clip-path="url(#9fe841ee58)"><g clip-path="url(#adfd443946)"><g transform="matrix(1, 0, 0, 1, 1, 1)"><g clip-path="url(#25078fd1a1)"><g clip-path="url(#574e2d2cd9)"><g clip-path="url(#4095a812ab)"><path fill="#3cb773" d="M 0.988281 0.988281 L 42.011719 0.988281 L 42.011719 42.011719 L 0.988281 42.011719 Z M 0.988281 0.988281 " fill-opacity="1" fill-rule="nonzero"/></g></g></g></g></g></g><g clip-path="url(#612c478cf5)"><path fill="#ffffff" d="M 29.839844 33.53125 L 14.34375 33.53125 C 13.882812 33.53125 13.507812 33.160156 13.507812 32.703125 L 13.507812 22.019531 C 13.507812 21.5625 13.882812 21.1875 14.34375 21.1875 L 29.839844 21.1875 C 30.296875 21.1875 30.667969 21.5625 30.667969 22.019531 L 30.667969 24.136719 C 30.667969 24.296875 30.539062 24.425781 30.375 24.425781 C 30.214844 24.425781 30.085938 24.296875 30.085938 24.136719 L 30.085938 22.019531 C 30.085938 21.882812 29.976562 21.773438 29.839844 21.773438 L 14.34375 21.773438 C 14.199219 21.773438 14.089844 21.878906 14.089844 22.019531 L 14.089844 32.703125 C 14.089844 32.835938 14.207031 32.945312 14.34375 32.945312 L 29.839844 32.945312 C 29.96875 32.945312 30.085938 32.832031 30.085938 32.703125 L 30.085938 29.933594 C 30.085938 29.773438 30.214844 29.640625 30.375 29.640625 C 30.539062 29.640625 30.667969 29.773438 30.667969 29.933594 L 30.667969 32.703125 C 30.667969 33.160156 30.296875 33.53125 29.839844 33.53125 Z M 29.839844 33.53125 " fill-opacity="1" fill-rule="nonzero"/></g><g clip-path="url(#edd9f1af3c)"><path fill="#ffffff" d="M 30.652344 29.246094 L 25.644531 29.246094 C 24.582031 29.246094 23.71875 28.378906 23.71875 27.3125 L 23.71875 26.691406 C 23.71875 25.625 24.582031 24.753906 25.644531 24.753906 L 30.652344 24.753906 C 31.113281 24.753906 31.492188 25.132812 31.492188 25.59375 L 31.492188 28.410156 C 31.492188 28.871094 31.117188 29.246094 30.652344 29.246094 Z M 25.644531 25.339844 C 24.902344 25.339844 24.300781 25.945312 24.300781 26.691406 L 24.300781 27.3125 C 24.300781 28.058594 24.902344 28.664062 25.644531 28.664062 L 30.652344 28.664062 C 30.792969 28.664062 30.90625 28.550781 30.90625 28.410156 L 30.90625 25.59375 C 30.90625 25.453125 30.792969 25.339844 30.652344 25.339844 Z M 25.644531 25.339844 " fill-opacity="1" fill-rule="nonzero"/></g><path fill="#ffffff" d="M 27.84375 25.339844 C 27.683594 25.339844 27.550781 25.207031 27.550781 25.046875 L 27.550781 21.480469 C 27.550781 21.320312 27.683594 21.1875 27.84375 21.1875 C 28.003906 21.1875 28.136719 21.320312 28.136719 21.480469 L 28.136719 25.046875 C 28.136719 25.207031 28.003906 25.339844 27.84375 25.339844 Z M 27.84375 25.339844 " fill-opacity="1" fill-rule="nonzero"/><g clip-path="url(#23f91b4be5)"><path fill="#ffffff" d="M 27.84375 33.53125 C 27.683594 33.53125 27.550781 33.398438 27.550781 33.238281 L 27.550781 28.957031 C 27.550781 28.796875 27.683594 28.664062 27.84375 28.664062 C 28.003906 28.664062 28.136719 28.796875 28.136719 28.957031 L 28.136719 33.238281 C 28.136719 33.398438 28.003906 33.53125 27.84375 33.53125 Z M 27.84375 33.53125 " fill-opacity="1" fill-rule="nonzero"/></g><path fill="#ffffff" d="M 25.988281 28.058594 C 25.398438 28.058594 24.921875 27.585938 24.921875 27 C 24.921875 26.417969 25.402344 25.945312 25.988281 25.945312 C 26.570312 25.945312 27.042969 26.417969 27.042969 27 C 27.046875 27.585938 26.570312 28.058594 25.988281 28.058594 Z M 25.988281 26.527344 C 25.722656 26.527344 25.507812 26.742188 25.507812 27 C 25.507812 27.261719 25.722656 27.476562 25.988281 27.476562 C 26.25 27.476562 26.460938 27.261719 26.460938 27 C 26.460938 26.738281 26.25 26.527344 25.988281 26.527344 Z M 25.988281 26.527344 " fill-opacity="1" fill-rule="nonzero"/><path fill="#ffffff" d="M 17.460938 21.773438 C 17.34375 21.773438 17.230469 21.699219 17.1875 21.582031 C 17.132812 21.433594 17.207031 21.261719 17.359375 21.207031 L 27.027344 17.589844 C 27.210938 17.519531 27.417969 17.527344 27.597656 17.613281 C 27.78125 17.695312 27.914062 17.84375 27.980469 18.027344 L 29.234375 21.378906 C 29.289062 21.527344 29.214844 21.699219 29.0625 21.753906 C 28.910156 21.808594 28.742188 21.734375 28.6875 21.582031 L 27.433594 18.226562 C 27.414062 18.175781 27.375 18.152344 27.355469 18.140625 C 27.332031 18.132812 27.285156 18.117188 27.230469 18.136719 L 17.5625 21.753906 C 17.53125 21.765625 17.496094 21.773438 17.460938 21.773438 Z M 17.460938 21.773438 " fill-opacity="1" fill-rule="nonzero"/><g clip-path="url(#0c4513118f)"><path fill="#ffffff" d="M 14.652344 21.773438 C 14.613281 21.773438 14.578125 21.765625 14.539062 21.75 C 14.390625 21.6875 14.320312 21.515625 14.382812 21.367188 C 14.453125 21.199219 14.59375 21.066406 14.777344 20.996094 L 25.617188 16.949219 C 25.792969 16.882812 25.984375 16.886719 26.15625 16.964844 C 26.332031 17.042969 26.464844 17.1875 26.53125 17.363281 L 26.765625 18 C 26.820312 18.152344 26.746094 18.320312 26.59375 18.375 C 26.441406 18.429688 26.273438 18.355469 26.21875 18.203125 L 25.984375 17.566406 C 25.96875 17.527344 25.9375 17.507812 25.917969 17.496094 C 25.902344 17.488281 25.863281 17.480469 25.824219 17.492188 L 14.984375 21.542969 C 14.964844 21.550781 14.933594 21.566406 14.921875 21.59375 C 14.875 21.707031 14.765625 21.773438 14.652344 21.773438 Z M 14.652344 21.773438 " fill-opacity="1" fill-rule="nonzero"/></g><g clip-path="url(#143db9ea7a)"><path fill="#ffffff" d="M 13.796875 22.308594 C 13.636719 22.308594 13.507812 22.179688 13.507812 22.019531 C 13.507812 20.914062 13.6875 20.179688 14.570312 20.179688 L 17.023438 20.179688 C 17.183594 20.179688 17.3125 20.308594 17.3125 20.472656 C 17.3125 20.632812 17.183594 20.761719 17.023438 20.761719 L 14.570312 20.761719 C 14.34375 20.761719 14.089844 20.761719 14.089844 22.019531 C 14.089844 22.179688 13.957031 22.308594 13.796875 22.308594 Z M 29.585938 20.761719 L 28.585938 20.761719 C 28.425781 20.761719 28.292969 20.632812 28.292969 20.472656 C 28.292969 20.308594 28.425781 20.179688 28.585938 20.179688 L 29.585938 20.179688 C 29.75 20.179688 29.878906 20.308594 29.878906 20.472656 C 29.878906 20.632812 29.75 20.761719 29.585938 20.761719 Z M 29.585938 20.761719 " fill-opacity="1" fill-rule="nonzero"/></g><g clip-path="url(#4e916e1869)"><g clip-path="url(#ecf35d725b)"><g transform="matrix(1, 0, 0, 1, 19, 10)"><g clip-path="url(#230adcd506)"><g clip-path="url(#9711bd6f0b)"><g clip-path="url(#e8c8e83fda)"><path fill="#ffffff" d="M 4.691406 0.300781 L 4.691406 6.871094 L 0.441406 6.871094 L 0.441406 0.300781 Z M 4.691406 0.300781 " fill-opacity="1" fill-rule="nonzero"/></g></g></g></g></g></g></svg>