<svg xmlns="http://www.w3.org/2000/svg" xmlns:xlink="http://www.w3.org/1999/xlink" width="60" zoomAndPan="magnify" viewBox="0 0 45 44.999999" height="60" preserveAspectRatio="xMidYMid meet" version="1.0"><defs><clipPath id="fb36b116de"><path d="M 1.988281 1.988281 L 43.011719 1.988281 L 43.011719 43.011719 L 1.988281 43.011719 Z M 1.988281 1.988281 " clip-rule="nonzero"/></clipPath><clipPath id="a23f04dfd2"><path d="M 22.5 1.988281 C 11.171875 1.988281 1.988281 11.171875 1.988281 22.5 C 1.988281 33.828125 11.171875 43.011719 22.5 43.011719 C 33.828125 43.011719 43.011719 33.828125 43.011719 22.5 C 43.011719 11.171875 33.828125 1.988281 22.5 1.988281 Z M 22.5 1.988281 " clip-rule="nonzero"/></clipPath><clipPath id="e60c57eb1b"><path d="M 0.988281 0.988281 L 42.011719 0.988281 L 42.011719 42.011719 L 0.988281 42.011719 Z M 0.988281 0.988281 " clip-rule="nonzero"/></clipPath><clipPath id="e9e61c919b"><path d="M 21.5 0.988281 C 10.171875 0.988281 0.988281 10.171875 0.988281 21.5 C 0.988281 32.828125 10.171875 42.011719 21.5 42.011719 C 32.828125 42.011719 42.011719 32.828125 42.011719 21.5 C 42.011719 10.171875 32.828125 0.988281 21.5 0.988281 Z M 21.5 0.988281 " clip-rule="nonzero"/></clipPath><clipPath id="526d55c827"><rect x="0" width="43" y="0" height="43"/></clipPath><clipPath id="ba53b5e8eb"><path d="M 14.921875 14.578125 L 29.921875 14.578125 L 29.921875 30.328125 L 14.921875 30.328125 Z M 14.921875 14.578125 " clip-rule="nonzero"/></clipPath></defs><g clip-path="url(#fb36b116de)"><g clip-path="url(#a23f04dfd2)"><g transform="matrix(1, 0, 0, 1, 1, 1)"><g clip-path="url(#526d55c827)"><g clip-path="url(#e60c57eb1b)"><g clip-path="url(#e9e61c919b)"><path fill="#3cb773" d="M 0.988281 0.988281 L 42.011719 0.988281 L 42.011719 42.011719 L 0.988281 42.011719 Z M 0.988281 0.988281 " fill-opacity="1" fill-rule="nonzero"/></g></g></g></g></g></g><g clip-path="url(#ba53b5e8eb)"><path fill="#ffffff" d="M 25.964844 14.578125 L 19.039062 14.578125 C 18.621094 14.578125 18.28125 14.914062 18.28125 15.332031 L 18.28125 29.664062 C 18.28125 30.082031 18.621094 30.421875 19.039062 30.421875 L 25.964844 30.421875 C 26.382812 30.421875 26.722656 30.082031 26.722656 29.664062 L 26.722656 15.332031 C 26.722656 14.914062 26.382812 14.578125 25.964844 14.578125 Z M 23.886719 14.972656 L 23.746094 15.496094 C 23.738281 15.527344 23.714844 15.542969 23.6875 15.542969 L 21.316406 15.542969 C 21.285156 15.542969 21.265625 15.527344 21.257812 15.496094 L 21.117188 14.972656 Z M 19.039062 14.972656 L 20.707031 14.972656 L 20.875 15.597656 C 20.929688 15.800781 21.105469 15.9375 21.316406 15.9375 L 23.6875 15.9375 C 23.894531 15.9375 24.070312 15.800781 24.125 15.597656 L 24.292969 14.972656 L 25.964844 14.972656 C 26.164062 14.972656 26.328125 15.132812 26.328125 15.332031 L 26.328125 28.074219 L 18.675781 28.074219 L 18.675781 15.332031 C 18.675781 15.132812 18.835938 14.972656 19.035156 14.972656 Z M 25.964844 30.027344 L 19.039062 30.027344 C 18.835938 30.027344 18.675781 29.863281 18.675781 29.664062 L 18.675781 28.464844 L 26.328125 28.464844 L 26.328125 29.664062 C 26.328125 29.863281 26.164062 30.027344 25.964844 30.027344 Z M 19.695312 18.261719 L 20.539062 18.261719 C 20.777344 18.261719 20.972656 18.066406 20.972656 17.828125 L 20.972656 16.984375 C 20.972656 16.746094 20.777344 16.550781 20.539062 16.550781 L 19.695312 16.550781 C 19.457031 16.550781 19.261719 16.746094 19.261719 16.984375 L 19.261719 17.828125 C 19.261719 18.066406 19.457031 18.261719 19.695312 18.261719 Z M 19.65625 16.984375 C 19.65625 16.964844 19.675781 16.945312 19.695312 16.945312 L 20.539062 16.945312 C 20.5625 16.945312 20.578125 16.964844 20.578125 16.984375 L 20.578125 17.828125 C 20.578125 17.851562 20.5625 17.867188 20.539062 17.867188 L 19.695312 17.867188 C 19.675781 17.867188 19.65625 17.851562 19.65625 17.828125 Z M 22.078125 18.261719 L 22.921875 18.261719 C 23.160156 18.261719 23.355469 18.066406 23.355469 17.828125 L 23.355469 16.984375 C 23.355469 16.746094 23.160156 16.550781 22.921875 16.550781 L 22.078125 16.550781 C 21.839844 16.550781 21.644531 16.746094 21.644531 16.984375 L 21.644531 17.828125 C 21.644531 18.066406 21.839844 18.261719 22.078125 18.261719 Z M 22.039062 16.984375 C 22.039062 16.964844 22.058594 16.945312 22.078125 16.945312 L 22.921875 16.945312 C 22.945312 16.945312 22.960938 16.964844 22.960938 16.984375 L 22.960938 17.828125 C 22.960938 17.851562 22.945312 17.867188 22.921875 17.867188 L 22.078125 17.867188 C 22.058594 17.867188 22.039062 17.851562 22.039062 17.828125 Z M 24.460938 18.261719 L 25.304688 18.261719 C 25.542969 18.261719 25.738281 18.066406 25.738281 17.828125 L 25.738281 16.984375 C 25.738281 16.746094 25.542969 16.550781 25.304688 16.550781 L 24.460938 16.550781 C 24.222656 16.550781 24.027344 16.746094 24.027344 16.984375 L 24.027344 17.828125 C 24.027344 18.066406 24.222656 18.261719 24.460938 18.261719 Z M 24.421875 16.984375 C 24.421875 16.964844 24.441406 16.945312 24.460938 16.945312 L 25.304688 16.945312 C 25.328125 16.945312 25.34375 16.964844 25.34375 16.984375 L 25.34375 17.828125 C 25.34375 17.851562 25.328125 17.867188 25.304688 17.867188 L 24.460938 17.867188 C 24.441406 17.867188 24.421875 17.851562 24.421875 17.828125 Z M 19.695312 20.554688 L 20.539062 20.554688 C 20.777344 20.554688 20.972656 20.359375 20.972656 20.121094 L 20.972656 19.277344 C 20.972656 19.035156 20.777344 18.84375 20.539062 18.84375 L 19.695312 18.84375 C 19.457031 18.84375 19.261719 19.035156 19.261719 19.277344 L 19.261719 20.121094 C 19.261719 20.359375 19.457031 20.554688 19.695312 20.554688 Z M 19.65625 19.277344 C 19.65625 19.253906 19.675781 19.238281 19.695312 19.238281 L 20.539062 19.238281 C 20.5625 19.238281 20.578125 19.253906 20.578125 19.277344 L 20.578125 20.121094 C 20.578125 20.140625 20.5625 20.160156 20.539062 20.160156 L 19.695312 20.160156 C 19.675781 20.160156 19.65625 20.140625 19.65625 20.121094 Z M 22.078125 20.554688 L 22.921875 20.554688 C 23.160156 20.554688 23.355469 20.359375 23.355469 20.121094 L 23.355469 19.277344 C 23.355469 19.035156 23.160156 18.84375 22.921875 18.84375 L 22.078125 18.84375 C 21.839844 18.84375 21.644531 19.035156 21.644531 19.277344 L 21.644531 20.121094 C 21.644531 20.359375 21.839844 20.554688 22.078125 20.554688 Z M 22.039062 19.277344 C 22.039062 19.253906 22.058594 19.238281 22.078125 19.238281 L 22.921875 19.238281 C 22.945312 19.238281 22.960938 19.253906 22.960938 19.277344 L 22.960938 20.121094 C 22.960938 20.140625 22.945312 20.160156 22.921875 20.160156 L 22.078125 20.160156 C 22.058594 20.160156 22.039062 20.140625 22.039062 20.121094 Z M 24.460938 20.554688 L 25.304688 20.554688 C 25.542969 20.554688 25.738281 20.359375 25.738281 20.121094 L 25.738281 19.277344 C 25.738281 19.035156 25.542969 18.84375 25.304688 18.84375 L 24.460938 18.84375 C 24.222656 18.84375 24.027344 19.035156 24.027344 19.277344 L 24.027344 20.121094 C 24.027344 20.359375 24.222656 20.554688 24.460938 20.554688 Z M 24.421875 19.277344 C 24.421875 19.253906 24.441406 19.238281 24.460938 19.238281 L 25.304688 19.238281 C 25.328125 19.238281 25.34375 19.253906 25.34375 19.277344 L 25.34375 20.121094 C 25.34375 20.140625 25.328125 20.160156 25.304688 20.160156 L 24.460938 20.160156 C 24.441406 20.160156 24.421875 20.140625 24.421875 20.121094 Z M 19.695312 22.84375 L 20.539062 22.84375 C 20.777344 22.84375 20.972656 22.648438 20.972656 22.410156 L 20.972656 21.566406 C 20.972656 21.328125 20.777344 21.132812 20.539062 21.132812 L 19.695312 21.132812 C 19.457031 21.132812 19.261719 21.328125 19.261719 21.566406 L 19.261719 22.410156 C 19.261719 22.648438 19.457031 22.84375 19.695312 22.84375 Z M 19.65625 21.566406 C 19.65625 21.546875 19.675781 21.527344 19.695312 21.527344 L 20.539062 21.527344 C 20.5625 21.527344 20.578125 21.546875 20.578125 21.566406 L 20.578125 22.410156 C 20.578125 22.433594 20.5625 22.449219 20.539062 22.449219 L 19.695312 22.449219 C 19.675781 22.449219 19.65625 22.433594 19.65625 22.410156 Z M 22.078125 22.84375 L 22.921875 22.84375 C 23.160156 22.84375 23.355469 22.648438 23.355469 22.410156 L 23.355469 21.566406 C 23.355469 21.328125 23.160156 21.132812 22.921875 21.132812 L 22.078125 21.132812 C 21.839844 21.132812 21.644531 21.328125 21.644531 21.566406 L 21.644531 22.410156 C 21.644531 22.648438 21.839844 22.84375 22.078125 22.84375 Z M 22.039062 21.566406 C 22.039062 21.546875 22.058594 21.527344 22.078125 21.527344 L 22.921875 21.527344 C 22.945312 21.527344 22.960938 21.546875 22.960938 21.566406 L 22.960938 22.410156 C 22.960938 22.433594 22.945312 22.449219 22.921875 22.449219 L 22.078125 22.449219 C 22.058594 22.449219 22.039062 22.433594 22.039062 22.410156 Z M 24.460938 22.84375 L 25.304688 22.84375 C 25.542969 22.84375 25.738281 22.648438 25.738281 22.410156 L 25.738281 21.566406 C 25.738281 21.328125 25.542969 21.132812 25.304688 21.132812 L 24.460938 21.132812 C 24.222656 21.132812 24.027344 21.328125 24.027344 21.566406 L 24.027344 22.410156 C 24.027344 22.648438 24.222656 22.84375 24.460938 22.84375 Z M 24.421875 21.566406 C 24.421875 21.546875 24.441406 21.527344 24.460938 21.527344 L 25.304688 21.527344 C 25.328125 21.527344 25.34375 21.546875 25.34375 21.566406 L 25.34375 22.410156 C 25.34375 22.433594 25.328125 22.449219 25.304688 22.449219 L 24.460938 22.449219 C 24.441406 22.449219 24.421875 22.433594 24.421875 22.410156 Z M 19.695312 25.136719 L 20.539062 25.136719 C 20.777344 25.136719 20.972656 24.941406 20.972656 24.703125 L 20.972656 23.859375 C 20.972656 23.621094 20.777344 23.425781 20.539062 23.425781 L 19.695312 23.425781 C 19.457031 23.425781 19.261719 23.621094 19.261719 23.859375 L 19.261719 24.703125 C 19.261719 24.941406 19.457031 25.136719 19.695312 25.136719 Z M 19.65625 23.859375 C 19.65625 23.835938 19.675781 23.820312 19.695312 23.820312 L 20.539062 23.820312 C 20.5625 23.820312 20.578125 23.835938 20.578125 23.859375 L 20.578125 24.703125 C 20.578125 24.722656 20.5625 24.742188 20.539062 24.742188 L 19.695312 24.742188 C 19.675781 24.742188 19.65625 24.722656 19.65625 24.703125 Z M 22.078125 25.136719 L 22.921875 25.136719 C 23.160156 25.136719 23.355469 24.941406 23.355469 24.703125 L 23.355469 23.859375 C 23.355469 23.621094 23.160156 23.425781 22.921875 23.425781 L 22.078125 23.425781 C 21.839844 23.425781 21.644531 23.621094 21.644531 23.859375 L 21.644531 24.703125 C 21.644531 24.941406 21.839844 25.136719 22.078125 25.136719 Z M 22.039062 23.859375 C 22.039062 23.835938 22.058594 23.820312 22.078125 23.820312 L 22.921875 23.820312 C 22.945312 23.820312 22.960938 23.835938 22.960938 23.859375 L 22.960938 24.703125 C 22.960938 24.722656 22.945312 24.742188 22.921875 24.742188 L 22.078125 24.742188 C 22.058594 24.742188 22.039062 24.722656 22.039062 24.703125 Z M 24.460938 25.136719 L 25.304688 25.136719 C 25.542969 25.136719 25.738281 24.941406 25.738281 24.703125 L 25.738281 23.859375 C 25.738281 23.621094 25.542969 23.425781 25.304688 23.425781 L 24.460938 23.425781 C 24.222656 23.425781 24.027344 23.621094 24.027344 23.859375 L 24.027344 24.703125 C 24.027344 24.941406 24.222656 25.136719 24.460938 25.136719 Z M 24.421875 23.859375 C 24.421875 23.835938 24.441406 23.820312 24.460938 23.820312 L 25.304688 23.820312 C 25.328125 23.820312 25.34375 23.835938 25.34375 23.859375 L 25.34375 24.703125 C 25.34375 24.722656 25.328125 24.742188 25.304688 24.742188 L 24.460938 24.742188 C 24.441406 24.742188 24.421875 24.722656 24.421875 24.703125 Z M 21.320312 27.105469 C 21.320312 27 21.410156 26.910156 21.519531 26.910156 C 21.625 26.910156 21.714844 27 21.714844 27.105469 C 21.714844 27.214844 21.625 27.304688 21.519531 27.304688 C 21.410156 27.304688 21.320312 27.214844 21.320312 27.105469 Z M 22.699219 27.105469 C 22.699219 27.214844 22.609375 27.304688 22.5 27.304688 C 22.390625 27.304688 22.304688 27.214844 22.304688 27.105469 C 22.304688 27 22.390625 26.910156 22.5 26.910156 C 22.609375 26.910156 22.699219 27 22.699219 27.105469 Z M 23.484375 26.910156 C 23.59375 26.910156 23.679688 27 23.679688 27.105469 C 23.679688 27.214844 23.59375 27.304688 23.484375 27.304688 C 23.375 27.304688 23.285156 27.214844 23.285156 27.105469 C 23.285156 27 23.375 26.910156 23.484375 26.910156 Z M 22.5 28.734375 C 22.21875 28.734375 21.988281 28.964844 21.988281 29.246094 C 21.988281 29.527344 22.21875 29.757812 22.5 29.757812 C 22.785156 29.757812 23.011719 29.527344 23.011719 29.246094 C 23.011719 28.964844 22.785156 28.734375 22.5 28.734375 Z M 22.5 29.363281 C 22.4375 29.363281 22.382812 29.3125 22.382812 29.246094 C 22.382812 29.179688 22.4375 29.128906 22.5 29.128906 C 22.566406 29.128906 22.617188 29.179688 22.617188 29.246094 C 22.617188 29.3125 22.566406 29.363281 22.5 29.363281 Z M 20.632812 28.953125 C 20.632812 29.0625 20.542969 29.152344 20.433594 29.152344 L 19.632812 29.152344 C 19.523438 29.152344 19.4375 29.0625 19.4375 28.953125 C 19.4375 28.847656 19.523438 28.757812 19.632812 28.757812 L 20.433594 28.757812 C 20.542969 28.757812 20.632812 28.847656 20.632812 28.953125 Z M 20.632812 29.539062 C 20.632812 29.648438 20.542969 29.734375 20.433594 29.734375 L 19.632812 29.734375 C 19.523438 29.734375 19.4375 29.648438 19.4375 29.539062 C 19.4375 29.429688 19.523438 29.339844 19.632812 29.339844 L 20.433594 29.339844 C 20.542969 29.339844 20.632812 29.429688 20.632812 29.539062 Z M 25.464844 29.09375 L 25.199219 29.246094 L 25.464844 29.402344 C 25.5625 29.457031 25.59375 29.574219 25.539062 29.671875 C 25.503906 29.734375 25.4375 29.769531 25.367188 29.769531 C 25.335938 29.769531 25.300781 29.761719 25.269531 29.742188 L 24.707031 29.417969 C 24.644531 29.382812 24.609375 29.316406 24.609375 29.246094 C 24.609375 29.175781 24.644531 29.109375 24.707031 29.074219 L 25.269531 28.75 C 25.363281 28.695312 25.484375 28.726562 25.539062 28.824219 C 25.59375 28.917969 25.5625 29.039062 25.46875 29.09375 Z M 27.632812 21.457031 C 27.554688 21.378906 27.554688 21.253906 27.632812 21.175781 L 28.777344 20.035156 C 28.851562 19.957031 28.976562 19.957031 29.054688 20.035156 C 29.132812 20.109375 29.132812 20.234375 29.054688 20.3125 L 27.910156 21.457031 C 27.875 21.492188 27.824219 21.511719 27.773438 21.511719 C 27.722656 21.511719 27.671875 21.492188 27.632812 21.457031 Z M 30.074219 22.5 C 30.074219 22.605469 29.988281 22.695312 29.878906 22.695312 L 28.261719 22.695312 C 28.152344 22.695312 28.066406 22.605469 28.066406 22.5 C 28.066406 22.390625 28.152344 22.300781 28.261719 22.300781 L 29.878906 22.300781 C 29.988281 22.300781 30.074219 22.390625 30.074219 22.5 Z M 29.054688 24.683594 C 29.132812 24.761719 29.132812 24.886719 29.054688 24.964844 C 29.015625 25 28.964844 25.019531 28.914062 25.019531 C 28.867188 25.019531 28.816406 25 28.777344 24.964844 L 27.632812 23.820312 C 27.554688 23.742188 27.554688 23.617188 27.632812 23.539062 C 27.710938 23.464844 27.835938 23.464844 27.910156 23.539062 Z M 17.367188 21.175781 C 17.445312 21.253906 17.445312 21.378906 17.367188 21.457031 C 17.332031 21.492188 17.28125 21.511719 17.230469 21.511719 C 17.179688 21.511719 17.128906 21.492188 17.089844 21.457031 L 15.945312 20.3125 C 15.871094 20.234375 15.871094 20.109375 15.945312 20.035156 C 16.023438 19.957031 16.148438 19.957031 16.226562 20.035156 L 17.371094 21.175781 Z M 16.738281 22.695312 L 15.121094 22.695312 C 15.015625 22.695312 14.925781 22.605469 14.925781 22.5 C 14.925781 22.390625 15.015625 22.300781 15.121094 22.300781 L 16.738281 22.300781 C 16.847656 22.300781 16.9375 22.390625 16.9375 22.5 C 16.9375 22.605469 16.847656 22.695312 16.738281 22.695312 Z M 17.367188 23.539062 C 17.445312 23.617188 17.445312 23.742188 17.367188 23.820312 L 16.226562 24.964844 C 16.1875 25 16.136719 25.019531 16.085938 25.019531 C 16.035156 25.019531 15.984375 25 15.945312 24.964844 C 15.871094 24.886719 15.871094 24.761719 15.945312 24.683594 L 17.089844 23.539062 C 17.167969 23.464844 17.292969 23.464844 17.371094 23.539062 Z M 17.367188 23.539062 " fill-opacity="1" fill-rule="nonzero"/></g></svg>