<svg xmlns="http://www.w3.org/2000/svg" xmlns:xlink="http://www.w3.org/1999/xlink" width="40" zoomAndPan="magnify" viewBox="0 0 30 30.000001" height="40" preserveAspectRatio="xMidYMid meet" version="1.0"><defs><g/><clipPath id="be55ade20e"><path d="M 0.5625 0.507812 L 1.492188 0.507812 L 1.492188 2 L 0.5625 2 Z M 0.5625 0.507812 " clip-rule="nonzero"/></clipPath><clipPath id="a28ad4ec1b"><rect x="0" width="2" y="0" height="3"/></clipPath><clipPath id="018dc6c1d3"><path d="M 4.371094 6.503906 L 25.417969 6.503906 L 25.417969 22.472656 L 4.371094 22.472656 Z M 4.371094 6.503906 " clip-rule="nonzero"/></clipPath></defs><g transform="matrix(1, 0, 0, 1, 12, 19)"><g clip-path="url(#a28ad4ec1b)"><g clip-path="url(#be55ade20e)"><g fill="#000000" fill-opacity="1"><g transform="translate(0.803334, 1.59717)"><g><path d="M 0.046875 0 L 0.046875 -0.0625 L 0.234375 -0.0625 L 0.234375 -0.609375 C 0.203125 -0.585938 0.171875 -0.570312 0.140625 -0.5625 C 0.117188 -0.550781 0.09375 -0.546875 0.0625 -0.546875 L 0.0625 -0.625 C 0.09375 -0.625 0.125 -0.628906 0.15625 -0.640625 C 0.195312 -0.660156 0.226562 -0.679688 0.25 -0.703125 L 0.3125 -0.703125 L 0.3125 -0.0625 L 0.484375 -0.0625 L 0.484375 0 Z M 0.046875 0 "/></g></g></g></g></g></g><g clip-path="url(#018dc6c1d3)"><path fill="#178b53" d="M 5.578125 18.558594 C 5.621094 19.066406 6 19.507812 6.519531 19.605469 C 23.460938 22.6875 22.429688 22.523438 22.628906 22.523438 C 23.175781 22.523438 23.667969 22.128906 23.773438 21.570312 L 25.515625 11.984375 C 25.628906 11.351562 25.214844 10.746094 24.585938 10.632812 L 22.9375 10.332031 L 22.9375 10.21875 C 22.9375 10.082031 22.828125 9.972656 22.695312 9.972656 C 22.558594 9.972656 22.449219 10.082031 22.449219 10.21875 C 22.449219 10.722656 22.449219 13.050781 22.449219 13.828125 L 4.949219 13.828125 L 4.949219 7.65625 C 4.949219 7.289062 5.246094 6.988281 5.617188 6.988281 L 21.78125 6.988281 C 22.148438 6.988281 22.449219 7.289062 22.449219 7.65625 L 22.449219 8.476562 C 22.449219 8.613281 22.558594 8.722656 22.695312 8.722656 C 22.828125 8.722656 22.9375 8.613281 22.9375 8.476562 L 22.9375 7.65625 C 22.9375 7.019531 22.417969 6.5 21.78125 6.5 L 5.617188 6.5 C 4.980469 6.5 4.460938 7.019531 4.460938 7.65625 L 4.460938 17.40625 C 4.460938 18.03125 4.957031 18.539062 5.578125 18.558594 Z M 17.101562 14.878906 L 19.40625 14.878906 C 19.542969 14.878906 19.648438 14.984375 19.648438 15.121094 C 19.648438 15.253906 19.542969 15.363281 19.40625 15.363281 L 17.101562 15.363281 C 16.964844 15.363281 16.859375 15.253906 16.859375 15.121094 C 16.859375 14.984375 16.964844 14.878906 17.101562 14.878906 Z M 22.449219 16.410156 L 22.449219 17.40625 C 22.449219 17.773438 22.148438 18.074219 21.78125 18.074219 C 19.804688 18.074219 7.664062 18.074219 5.617188 18.074219 C 5.246094 18.074219 4.949219 17.773438 4.949219 17.40625 L 4.949219 16.410156 Z M 22.449219 16.410156 " fill-opacity="1" fill-rule="nonzero"/></g><path fill="#178b53" d="M 7.683594 8.414062 C 7.097656 8.414062 6.621094 8.890625 6.621094 9.476562 C 6.621094 10.066406 7.097656 10.542969 7.683594 10.542969 L 9.152344 10.542969 C 9.738281 10.542969 10.214844 10.066406 10.214844 9.476562 C 10.214844 8.890625 9.738281 8.414062 9.152344 8.414062 Z M 7.683594 8.414062 " fill-opacity="1" fill-rule="nonzero"/><path fill="#178b53" d="M 20.777344 8.660156 C 20.777344 8.523438 20.667969 8.414062 20.53125 8.414062 L 14.882812 8.414062 C 14.75 8.414062 14.640625 8.523438 14.640625 8.660156 C 14.640625 8.792969 14.75 8.902344 14.882812 8.902344 L 20.53125 8.902344 C 20.667969 8.902344 20.777344 8.792969 20.777344 8.660156 Z M 20.777344 8.660156 " fill-opacity="1" fill-rule="nonzero"/><path fill="#178b53" d="M 14.882812 10.054688 C 14.75 10.054688 14.640625 10.164062 14.640625 10.296875 C 14.640625 10.433594 14.75 10.542969 14.882812 10.542969 L 18.789062 10.542969 C 18.925781 10.542969 19.035156 10.433594 19.035156 10.296875 C 19.035156 10.164062 18.925781 10.054688 18.789062 10.054688 Z M 14.882812 10.054688 " fill-opacity="1" fill-rule="nonzero"/></svg>