<svg xmlns="http://www.w3.org/2000/svg" xmlns:xlink="http://www.w3.org/1999/xlink" width="40" zoomAndPan="magnify" viewBox="0 0 30 30.000001" height="40" preserveAspectRatio="xMidYMid meet" version="1.0"><defs><g/><clipPath id="e5d1c5c1b0"><path d="M 0.347656 1 L 1 1 L 1 2.621094 L 0.347656 2.621094 Z M 0.347656 1 " clip-rule="nonzero"/></clipPath><clipPath id="4ea17be5bf"><rect x="0" width="2" y="0" height="3"/></clipPath><clipPath id="bd2d21f8fc"><path d="M 4.476562 4.808594 L 25.527344 4.808594 L 25.527344 20 L 4.476562 20 Z M 4.476562 4.808594 " clip-rule="nonzero"/></clipPath><clipPath id="7d7ce1da99"><path d="M 10 15 L 20 15 L 20 24.40625 L 10 24.40625 Z M 10 15 " clip-rule="nonzero"/></clipPath></defs><g transform="matrix(1, 0, 0, 1, 15, 22)"><g clip-path="url(#4ea17be5bf)"><g clip-path="url(#e5d1c5c1b0)"><g fill="#000000" fill-opacity="1"><g transform="translate(0.467749, 2.088132)"><g><path d="M 0.046875 0 L 0.046875 -0.0625 L 0.234375 -0.0625 L 0.234375 -0.609375 C 0.203125 -0.585938 0.171875 -0.570312 0.140625 -0.5625 C 0.117188 -0.550781 0.09375 -0.546875 0.0625 -0.546875 L 0.0625 -0.625 C 0.09375 -0.625 0.125 -0.628906 0.15625 -0.640625 C 0.195312 -0.660156 0.226562 -0.679688 0.25 -0.703125 L 0.3125 -0.703125 L 0.3125 -0.0625 L 0.484375 -0.0625 L 0.484375 0 Z M 0.046875 0 "/></g></g></g></g></g></g><g clip-path="url(#bd2d21f8fc)"><path fill="#178b53" d="M 14.734375 15.226562 C 14.472656 14.996094 14.339844 14.679688 14.101562 14.359375 L 14.605469 9.113281 C 14.1875 8.871094 13.898438 8.546875 13.824219 8.035156 L 8.484375 6.496094 L 10.917969 12.625 L 11.507812 12.699219 C 11.476562 14.421875 9.695312 15.539062 8.007812 15.550781 C 6.320312 15.5625 4.511719 14.425781 4.480469 12.703125 L 5.054688 12.625 L 7.570312 6.308594 C 7.644531 6.121094 6.867188 6.199219 6.917969 5.65625 C 6.945312 5.359375 7.195312 5.191406 7.492188 5.273438 L 10.175781 6.035156 L 14.03125 7.160156 C 14.246094 7.089844 14.425781 6.914062 14.625 6.800781 C 14.777344 6.203125 14.390625 4.914062 14.945312 4.816406 C 15.761719 4.675781 15.21875 6.265625 15.46875 6.773438 C 15.789062 7.03125 16.152344 7.292969 16.214844 7.792969 L 22.75 9.675781 C 22.988281 9.742188 23.105469 9.945312 23.109375 10.109375 C 23.128906 10.621094 22.527344 10.542969 22.496094 10.632812 C 22.484375 10.664062 22.511719 10.734375 22.539062 10.808594 L 24.898438 16.648438 C 25.015625 16.9375 25.417969 16.765625 25.472656 16.898438 C 25.699219 17.40625 24.964844 18.585938 24.207031 19.085938 C 22.910156 19.941406 21.230469 19.964844 19.910156 19.15625 C 19.082031 18.648438 18.5 17.816406 18.488281 16.871094 C 18.699219 16.808594 18.839844 16.828125 19.066406 16.832031 L 20.160156 14.085938 L 21.664062 10.296875 L 16.039062 8.6875 C 15.835938 8.824219 15.605469 8.953125 15.457031 9.140625 L 15.917969 14.203125 C 15.5625 14.117188 15.515625 13.96875 15.347656 13.945312 L 14.730469 15.226562 Z M 10.339844 12.605469 L 7.960938 6.796875 L 5.664062 12.660156 Z M 24.394531 16.792969 L 22.015625 10.953125 L 19.664062 16.824219 Z M 24.394531 16.792969 " fill-opacity="1" fill-rule="nonzero"/></g><g clip-path="url(#7d7ce1da99)"><path fill="#178b53" d="M 10.632812 24.210938 C 10.621094 23.046875 11.652344 22.203125 12.789062 22.210938 C 13.222656 22.214844 13.601562 22.226562 14.0625 22.203125 L 14.085938 16.53125 L 14.640625 16.816406 L 15.136719 15.550781 C 15.503906 15.753906 15.664062 16.132812 15.976562 16.449219 L 15.984375 22.191406 L 17.582031 22.226562 C 18.617188 22.246094 19.378906 23.167969 19.4375 24.203125 Z M 10.632812 24.210938 " fill-opacity="1" fill-rule="nonzero"/></g><path fill="#178b53" d="M 12.550781 17.8125 C 12.28125 17.648438 12.101562 17.4375 11.9375 17.125 L 13.824219 16.101562 Z M 12.550781 17.8125 " fill-opacity="1" fill-rule="nonzero"/><path fill="#178b53" d="M 17.933594 14.351562 C 17.324219 14.480469 16.835938 14.742188 16.148438 14.816406 C 16.527344 14.320312 17.015625 13.953125 17.519531 13.539062 C 17.679688 13.789062 17.785156 13.902344 17.933594 14.351562 Z M 17.933594 14.351562 " fill-opacity="1" fill-rule="nonzero"/><path fill="#178b53" d="M 13.9375 15.375 C 13.445312 15.460938 12.996094 15.488281 12.496094 15.453125 C 12.457031 15.199219 12.46875 15.003906 12.523438 14.796875 C 13.035156 14.941406 13.472656 15.101562 13.9375 15.375 Z M 13.9375 15.375 " fill-opacity="1" fill-rule="nonzero"/><path fill="#178b53" d="M 17.59375 15.8125 C 17.671875 15.988281 17.597656 16.257812 17.472656 16.4375 C 16.964844 16.214844 16.546875 15.988281 16.097656 15.714844 C 16.617188 15.652344 17.082031 15.765625 17.59375 15.8125 Z M 17.59375 15.8125 " fill-opacity="1" fill-rule="nonzero"/></svg>