<svg xmlns="http://www.w3.org/2000/svg" xmlns:xlink="http://www.w3.org/1999/xlink" width="60" zoomAndPan="magnify" viewBox="0 0 45 44.999999" height="60" preserveAspectRatio="xMidYMid meet" version="1.0"><defs><clipPath id="678ecc0e07"><path d="M 1.988281 1.988281 L 43.011719 1.988281 L 43.011719 43.011719 L 1.988281 43.011719 Z M 1.988281 1.988281 " clip-rule="nonzero"/></clipPath><clipPath id="2a8987ef4a"><path d="M 22.5 1.988281 C 11.171875 1.988281 1.988281 11.171875 1.988281 22.5 C 1.988281 33.828125 11.171875 43.011719 22.5 43.011719 C 33.828125 43.011719 43.011719 33.828125 43.011719 22.5 C 43.011719 11.171875 33.828125 1.988281 22.5 1.988281 Z M 22.5 1.988281 " clip-rule="nonzero"/></clipPath><clipPath id="e1d27d150a"><path d="M 0.988281 0.988281 L 42.011719 0.988281 L 42.011719 42.011719 L 0.988281 42.011719 Z M 0.988281 0.988281 " clip-rule="nonzero"/></clipPath><clipPath id="c096a1f419"><path d="M 21.5 0.988281 C 10.171875 0.988281 0.988281 10.171875 0.988281 21.5 C 0.988281 32.828125 10.171875 42.011719 21.5 42.011719 C 32.828125 42.011719 42.011719 32.828125 42.011719 21.5 C 42.011719 10.171875 32.828125 0.988281 21.5 0.988281 Z M 21.5 0.988281 " clip-rule="nonzero"/></clipPath><clipPath id="6e31192b83"><rect x="0" width="43" y="0" height="43"/></clipPath><clipPath id="47c5dc12a1"><path d="M 17 11.746094 L 33 11.746094 L 33 21 L 17 21 Z M 17 11.746094 " clip-rule="nonzero"/></clipPath><clipPath id="25bb3a0f1d"><path d="M 12.082031 21 L 28 21 L 28 33.496094 L 12.082031 33.496094 Z M 12.082031 21 " clip-rule="nonzero"/></clipPath></defs><g clip-path="url(#678ecc0e07)"><g clip-path="url(#2a8987ef4a)"><g transform="matrix(1, 0, 0, 1, 1, 1)"><g clip-path="url(#6e31192b83)"><g clip-path="url(#e1d27d150a)"><g clip-path="url(#c096a1f419)"><path fill="#3cb773" d="M 0.988281 0.988281 L 42.011719 0.988281 L 42.011719 42.011719 L 0.988281 42.011719 Z M 0.988281 0.988281 " fill-opacity="1" fill-rule="nonzero"/></g></g></g></g></g></g><g clip-path="url(#47c5dc12a1)"><path fill="#ffffff" d="M 26.449219 11.921875 C 25.816406 11.765625 25.132812 11.960938 24.671875 12.429688 C 22.089844 15.097656 22.160156 14.929688 22.117188 15.144531 L 18.800781 14.449219 C 18.585938 14.402344 18.378906 14.539062 18.332031 14.75 L 17.480469 18.808594 C 17.4375 19.019531 17.570312 19.226562 17.785156 19.269531 L 25.535156 20.902344 C 25.746094 20.945312 25.957031 20.8125 26 20.601562 L 26.496094 18.234375 L 27.011719 17.980469 C 27.390625 17.796875 27.757812 17.820312 28.183594 17.835938 C 28.941406 17.867188 29.945312 17.90625 30.929688 17.125 C 31.015625 17.429688 31.300781 17.660156 31.695312 17.621094 L 32.707031 17.46875 C 32.851562 17.445312 32.933594 17.3125 32.917969 17.1875 L 32.046875 11.953125 C 32.027344 11.824219 31.90625 11.734375 31.777344 11.746094 L 30.757812 11.863281 C 30.390625 11.898438 30.101562 12.234375 30.144531 12.628906 L 29.609375 12.695312 Z M 25.640625 19.367188 C 25.609375 19.523438 25.449219 19.625 25.289062 19.59375 C 25.132812 19.558594 24.976562 19.660156 24.9375 19.824219 C 24.90625 19.984375 24.75 20.085938 24.589844 20.050781 L 18.992188 18.875 C 18.832031 18.839844 18.730469 18.683594 18.765625 18.523438 C 18.796875 18.363281 18.695312 18.203125 18.535156 18.171875 C 18.375 18.140625 18.269531 17.980469 18.304688 17.820312 L 18.691406 15.984375 C 18.722656 15.824219 18.886719 15.722656 19.042969 15.753906 C 19.203125 15.792969 19.359375 15.6875 19.394531 15.527344 C 19.429688 15.367188 19.585938 15.261719 19.746094 15.300781 L 24.632812 16.328125 L 23.472656 17.105469 C 23.296875 16.699219 22.929688 16.378906 22.460938 16.277344 C 21.6875 16.117188 20.929688 16.609375 20.769531 17.378906 C 20.515625 18.59375 21.828125 19.539062 22.894531 18.902344 C 23.191406 19.355469 23.816406 19.5625 24.371094 19.289062 L 25.808594 18.578125 Z M 22.589844 18.019531 C 22.546875 18.234375 22.347656 18.335938 22.132812 18.324219 L 22.113281 18.425781 C 22.085938 18.566406 21.863281 18.535156 21.890625 18.382812 L 21.910156 18.28125 C 21.800781 18.25 21.65625 18.167969 21.582031 18.078125 C 21.519531 18.03125 21.539062 17.9375 21.59375 17.894531 C 21.644531 17.851562 21.695312 17.878906 21.746094 17.921875 C 21.792969 17.96875 21.84375 18 21.890625 18.027344 C 22.03125 18.109375 22.269531 18.144531 22.300781 17.972656 C 22.332031 17.835938 22.085938 17.789062 21.871094 17.640625 C 21.570312 17.464844 21.695312 16.964844 22.179688 16.976562 C 22.207031 16.890625 22.195312 16.839844 22.25 16.800781 C 22.277344 16.78125 22.304688 16.78125 22.335938 16.785156 C 22.480469 16.816406 22.410156 16.960938 22.402344 17.019531 C 22.507812 17.054688 22.601562 17.121094 22.683594 17.207031 C 22.78125 17.304688 22.65625 17.503906 22.519531 17.367188 C 22.429688 17.28125 22.371094 17.230469 22.261719 17.210938 C 22.148438 17.1875 22.03125 17.214844 22.007812 17.328125 C 21.953125 17.589844 22.683594 17.550781 22.589844 18.019531 Z M 31.339844 15.953125 C 31.390625 15.746094 31.597656 15.617188 31.800781 15.667969 C 32.003906 15.714844 32.132812 15.921875 32.085938 16.125 C 32.035156 16.328125 31.828125 16.460938 31.625 16.410156 C 31.417969 16.363281 31.292969 16.15625 31.339844 15.953125 Z M 30.226562 13.125 L 30.824219 16.550781 C 29.34375 17.941406 27.972656 16.949219 26.789062 17.527344 L 24.148438 18.839844 C 23.832031 18.992188 23.46875 18.871094 23.304688 18.617188 C 23.105469 18.316406 23.1875 17.90625 23.484375 17.707031 L 25.328125 16.464844 C 26.4375 15.855469 27.023438 15.152344 27.335938 14.445312 C 27.390625 14.316406 27.335938 14.167969 27.207031 14.113281 C 27.082031 14.058594 26.929688 14.113281 26.875 14.242188 C 26.566406 14.941406 26.039062 15.429688 25.398438 15.835938 L 22.617188 15.25 L 25.03125 12.785156 C 25.371094 12.441406 25.867188 12.296875 26.328125 12.410156 C 29.703125 13.230469 29.535156 13.210938 29.625 13.203125 Z M 30.226562 13.125 " fill-opacity="1" fill-rule="nonzero"/></g><g clip-path="url(#25bb3a0f1d)"><path fill="#ffffff" d="M 22.949219 30.203125 C 22.890625 30.253906 22.8125 30.285156 22.730469 30.285156 L 17.894531 30.234375 C 17.722656 30.226562 17.542969 30.285156 17.394531 30.390625 L 16.824219 30.808594 L 14.273438 27.328125 C 14.011719 26.976562 13.515625 26.902344 13.167969 27.160156 L 12.179688 27.882812 C 12.074219 27.960938 12.046875 28.113281 12.128906 28.226562 L 15.742188 33.148438 C 15.816406 33.253906 15.972656 33.289062 16.085938 33.199219 L 17.074219 32.476562 C 17.433594 32.214844 17.492188 31.710938 17.242188 31.371094 L 17.125 31.214844 L 17.6875 30.800781 C 17.746094 30.757812 17.816406 30.730469 17.882812 30.738281 L 22.730469 30.789062 C 22.941406 30.789062 23.140625 30.710938 23.289062 30.574219 L 26.839844 27.332031 C 27.28125 26.933594 27.308594 26.246094 26.894531 25.808594 C 26.527344 25.429688 25.917969 25.371094 25.488281 25.683594 L 25.21875 25.878906 L 25.21875 22.578125 C 25.21875 22.148438 24.871094 21.800781 24.441406 21.800781 C 23.15625 21.800781 19.550781 21.800781 18.0625 21.800781 C 17.632812 21.800781 17.285156 22.148438 17.285156 22.578125 L 17.285156 25.921875 C 16.191406 25.984375 15.644531 26.617188 15.355469 26.789062 C 15.246094 26.871094 15.21875 27.027344 15.300781 27.140625 C 15.382812 27.25 15.542969 27.277344 15.65625 27.195312 L 16.128906 26.84375 C 16.625 26.484375 17.25 26.339844 17.851562 26.457031 L 21.597656 27.175781 C 22.058594 27.261719 22.335938 27.742188 22.175781 28.1875 C 22.046875 28.539062 21.691406 28.746094 21.320312 28.679688 L 18.65625 28.210938 C 18.519531 28.1875 18.386719 28.277344 18.363281 28.414062 C 18.339844 28.554688 18.429688 28.683594 18.566406 28.707031 L 21.234375 29.179688 C 21.820312 29.28125 22.398438 28.964844 22.625 28.410156 C 24.085938 27.339844 22.746094 28.324219 25.785156 26.089844 C 26.015625 25.925781 26.335938 25.957031 26.527344 26.160156 C 26.746094 26.386719 26.734375 26.75 26.503906 26.960938 Z M 13.6875 28.652344 C 13.519531 28.773438 13.289062 28.738281 13.164062 28.570312 C 13.042969 28.40625 13.082031 28.175781 13.25 28.054688 C 13.414062 27.929688 13.644531 27.964844 13.765625 28.132812 C 13.890625 28.296875 13.851562 28.53125 13.6875 28.652344 Z M 21.695312 26.679688 C 20.195312 26.394531 18.035156 25.972656 17.789062 25.9375 L 17.789062 22.578125 C 17.789062 22.425781 17.910156 22.304688 18.0625 22.304688 L 19.949219 22.304688 L 19.949219 23.621094 C 19.949219 23.761719 20.0625 23.875 20.203125 23.875 L 21.546875 23.875 C 21.683594 23.875 21.796875 23.761719 21.796875 23.621094 L 21.796875 22.304688 C 21.824219 22.304688 21.539062 22.304688 23.683594 22.304688 C 23.835938 22.304688 23.957031 22.425781 23.957031 22.578125 L 23.957031 26.808594 L 22.703125 27.726562 C 22.609375 27.152344 22.183594 26.773438 21.695312 26.679688 Z M 21.695312 26.679688 " fill-opacity="1" fill-rule="nonzero"/></g></svg>