<svg xmlns="http://www.w3.org/2000/svg" xmlns:xlink="http://www.w3.org/1999/xlink" width="60" zoomAndPan="magnify" viewBox="0 0 45 44.999999" height="60" preserveAspectRatio="xMidYMid meet" version="1.0"><defs><clipPath id="268d48cad0"><path d="M 1.988281 1.988281 L 43.011719 1.988281 L 43.011719 43.011719 L 1.988281 43.011719 Z M 1.988281 1.988281 " clip-rule="nonzero"/></clipPath><clipPath id="91adfe0952"><path d="M 22.5 1.988281 C 11.171875 1.988281 1.988281 11.171875 1.988281 22.5 C 1.988281 33.828125 11.171875 43.011719 22.5 43.011719 C 33.828125 43.011719 43.011719 33.828125 43.011719 22.5 C 43.011719 11.171875 33.828125 1.988281 22.5 1.988281 Z M 22.5 1.988281 " clip-rule="nonzero"/></clipPath><clipPath id="cbc4aff0ee"><path d="M 0.988281 0.988281 L 42.011719 0.988281 L 42.011719 42.011719 L 0.988281 42.011719 Z M 0.988281 0.988281 " clip-rule="nonzero"/></clipPath><clipPath id="cf5f35b4e6"><path d="M 21.5 0.988281 C 10.171875 0.988281 0.988281 10.171875 0.988281 21.5 C 0.988281 32.828125 10.171875 42.011719 21.5 42.011719 C 32.828125 42.011719 42.011719 32.828125 42.011719 21.5 C 42.011719 10.171875 32.828125 0.988281 21.5 0.988281 Z M 21.5 0.988281 " clip-rule="nonzero"/></clipPath><clipPath id="653c3e0ec7"><rect x="0" width="43" y="0" height="43"/></clipPath><clipPath id="34d55e563f"><path d="M 19 13.460938 L 26 13.460938 L 26 17 L 19 17 Z M 19 13.460938 " clip-rule="nonzero"/></clipPath><clipPath id="80c917d8f8"><path d="M 17 17 L 28 17 L 28 26.210938 L 17 26.210938 Z M 17 17 " clip-rule="nonzero"/></clipPath><clipPath id="d62c5a6e75"><path d="M 15.960938 27.191406 L 28.710938 27.191406 L 28.710938 31.691406 L 15.960938 31.691406 Z M 15.960938 27.191406 " clip-rule="nonzero"/></clipPath></defs><g clip-path="url(#268d48cad0)"><g clip-path="url(#91adfe0952)"><g transform="matrix(1, 0, 0, 1, 1, 1)"><g clip-path="url(#653c3e0ec7)"><g clip-path="url(#cbc4aff0ee)"><g clip-path="url(#cf5f35b4e6)"><path fill="#3cb773" d="M 0.988281 0.988281 L 42.011719 0.988281 L 42.011719 42.011719 L 0.988281 42.011719 Z M 0.988281 0.988281 " fill-opacity="1" fill-rule="nonzero"/></g></g></g></g></g></g><g clip-path="url(#34d55e563f)"><path fill="#ffffff" d="M 21.3125 16.890625 C 22.109375 16.792969 22.902344 16.792969 23.683594 16.890625 L 25.113281 14.941406 C 25.195312 14.8125 25.082031 14.617188 24.9375 14.566406 L 24.203125 14.273438 L 23.683594 15.265625 C 23.652344 15.347656 23.539062 15.429688 23.40625 15.363281 C 23.308594 15.316406 23.261719 15.183594 23.328125 15.085938 L 23.976562 13.820312 C 24.027344 13.691406 23.832031 13.460938 23.601562 13.460938 L 21.394531 13.460938 C 21.199219 13.460938 20.96875 13.625 21.019531 13.804688 L 21.703125 15.054688 C 21.75 15.152344 21.71875 15.28125 21.621094 15.332031 C 21.523438 15.378906 21.375 15.316406 21.34375 15.25 L 20.792969 14.273438 L 20.042969 14.582031 C 19.863281 14.664062 19.785156 14.8125 19.863281 14.957031 Z M 21.3125 16.890625 " fill-opacity="1" fill-rule="nonzero"/></g><path fill="#ffffff" d="M 21.507812 20.546875 L 21.507812 21.132812 C 21.507812 21.328125 21.703125 21.507812 21.878906 21.621094 L 22.351562 21.800781 L 22.351562 19.898438 L 22.15625 19.898438 C 21.800781 19.898438 21.507812 20.191406 21.507812 20.546875 Z M 21.507812 20.546875 " fill-opacity="1" fill-rule="nonzero"/><g clip-path="url(#80c917d8f8)"><path fill="#ffffff" d="M 27.894531 23.570312 C 27.472656 20.109375 23.976562 17.425781 23.699219 17.3125 C 23.570312 17.25 23.035156 17.234375 22.515625 17.234375 C 21.992188 17.234375 21.441406 17.265625 21.3125 17.3125 C 21.035156 17.425781 17.542969 20.109375 17.101562 23.570312 C 16.988281 24.433594 17.167969 25.113281 17.605469 25.617188 C 18.402344 26.511719 19.832031 26.527344 19.847656 26.527344 L 25.148438 26.527344 C 25.164062 26.527344 26.59375 26.511719 27.390625 25.617188 C 27.84375 25.113281 28.007812 24.414062 27.894531 23.570312 Z M 23.894531 20.824219 C 23.894531 20.9375 23.796875 21.019531 23.699219 21.019531 C 23.601562 21.019531 23.503906 20.921875 23.503906 20.824219 L 23.503906 20.546875 C 23.503906 20.191406 23.214844 19.898438 22.855469 19.898438 L 22.773438 19.898438 L 22.773438 21.945312 L 23.328125 22.15625 C 23.714844 22.402344 23.910156 22.691406 23.910156 23 L 23.910156 23.601562 C 23.910156 24.1875 23.441406 24.660156 22.855469 24.660156 L 22.773438 24.660156 L 22.773438 24.820312 C 22.773438 24.9375 22.675781 25.015625 22.578125 25.015625 C 22.480469 25.015625 22.382812 24.917969 22.382812 24.820312 L 22.382812 24.660156 L 22.1875 24.660156 C 21.605469 24.660156 21.132812 24.1875 21.132812 23.601562 L 21.132812 23.328125 C 21.132812 23.214844 21.230469 23.132812 21.328125 23.132812 C 21.425781 23.132812 21.523438 23.230469 21.523438 23.328125 L 21.523438 23.601562 C 21.523438 23.960938 21.816406 24.253906 22.171875 24.253906 L 22.367188 24.253906 L 22.367188 22.238281 L 21.683594 21.976562 C 21.3125 21.734375 21.117188 21.457031 21.117188 21.132812 L 21.117188 20.546875 C 21.117188 19.960938 21.585938 19.492188 22.171875 19.492188 L 22.367188 19.492188 L 22.367188 19.28125 C 22.367188 19.167969 22.464844 19.085938 22.5625 19.085938 C 22.660156 19.085938 22.757812 19.183594 22.757812 19.28125 L 22.757812 19.492188 L 22.839844 19.492188 C 23.425781 19.492188 23.894531 19.960938 23.894531 20.546875 Z M 23.894531 20.824219 " fill-opacity="1" fill-rule="nonzero"/></g><path fill="#ffffff" d="M 22.757812 24.253906 L 22.839844 24.253906 C 23.195312 24.253906 23.488281 23.960938 23.488281 23.601562 L 23.488281 23.019531 C 23.488281 22.855469 23.34375 22.675781 23.097656 22.53125 L 22.742188 22.402344 Z M 22.757812 24.253906 " fill-opacity="1" fill-rule="nonzero"/><g clip-path="url(#d62c5a6e75)"><path fill="#ffffff" d="M 26.757812 30.082031 L 26.621094 30.277344 C 26.503906 30.449219 26.269531 30.492188 26.097656 30.375 C 26.09375 30.375 26.089844 30.371094 26.085938 30.367188 C 25.917969 30.242188 25.882812 30.007812 26.003906 29.839844 C 26.007812 29.835938 26.007812 29.832031 26.011719 29.832031 L 26.15625 29.644531 L 25.945312 29.582031 C 25.753906 29.53125 25.644531 29.332031 25.699219 29.144531 C 25.699219 29.136719 25.703125 29.132812 25.703125 29.125 L 25.707031 29.121094 C 25.773438 28.925781 25.984375 28.820312 26.179688 28.886719 L 26.402344 28.960938 L 26.390625 28.742188 C 26.382812 28.539062 26.539062 28.367188 26.742188 28.359375 C 26.746094 28.359375 26.75 28.359375 26.757812 28.359375 C 26.960938 28.359375 27.125 28.523438 27.125 28.726562 C 27.125 28.730469 27.121094 28.734375 27.121094 28.742188 L 27.113281 28.960938 L 27.332031 28.886719 C 27.527344 28.820312 27.742188 28.925781 27.808594 29.121094 L 27.808594 29.125 C 27.875 29.308594 27.777344 29.511719 27.589844 29.578125 C 27.582031 29.578125 27.578125 29.582031 27.570312 29.582031 L 27.359375 29.644531 L 27.503906 29.832031 C 27.632812 29.996094 27.601562 30.230469 27.4375 30.359375 C 27.4375 30.363281 27.433594 30.363281 27.429688 30.367188 L 27.425781 30.367188 C 27.257812 30.492188 27.023438 30.457031 26.898438 30.289062 C 26.898438 30.285156 26.894531 30.28125 26.890625 30.277344 Z M 23.929688 30.082031 L 23.796875 30.277344 C 23.675781 30.449219 23.441406 30.492188 23.269531 30.375 C 23.265625 30.375 23.261719 30.371094 23.261719 30.367188 L 23.257812 30.367188 C 23.089844 30.242188 23.054688 30.007812 23.175781 29.839844 C 23.179688 29.835938 23.179688 29.832031 23.183594 29.832031 L 23.328125 29.644531 L 23.117188 29.582031 C 22.925781 29.53125 22.816406 29.332031 22.871094 29.144531 C 22.875 29.136719 22.875 29.132812 22.878906 29.125 L 22.878906 29.121094 C 22.945312 28.925781 23.15625 28.820312 23.355469 28.886719 L 23.574219 28.960938 L 23.5625 28.742188 C 23.554688 28.539062 23.710938 28.367188 23.914062 28.359375 C 23.917969 28.359375 23.925781 28.359375 23.929688 28.359375 C 24.132812 28.359375 24.296875 28.523438 24.296875 28.726562 C 24.296875 28.730469 24.296875 28.734375 24.292969 28.742188 L 24.285156 28.960938 L 24.503906 28.886719 C 24.703125 28.820312 24.914062 28.925781 24.980469 29.121094 L 24.980469 29.125 C 25.046875 29.308594 24.949219 29.511719 24.761719 29.578125 C 24.757812 29.578125 24.75 29.582031 24.742188 29.582031 L 24.53125 29.644531 L 24.675781 29.832031 C 24.804688 29.996094 24.773438 30.230469 24.609375 30.359375 C 24.609375 30.363281 24.605469 30.363281 24.601562 30.367188 L 24.597656 30.367188 C 24.433594 30.492188 24.195312 30.457031 24.070312 30.289062 C 24.070312 30.285156 24.066406 30.28125 24.0625 30.277344 Z M 21.101562 30.082031 L 20.96875 30.277344 C 20.851562 30.449219 20.613281 30.492188 20.441406 30.375 C 20.441406 30.375 20.4375 30.371094 20.433594 30.367188 L 20.429688 30.367188 C 20.261719 30.242188 20.226562 30.007812 20.347656 29.839844 C 20.351562 29.835938 20.351562 29.832031 20.355469 29.832031 L 20.5 29.644531 L 20.289062 29.582031 C 20.097656 29.53125 19.988281 29.332031 20.042969 29.144531 C 20.046875 29.136719 20.046875 29.132812 20.050781 29.125 L 20.050781 29.121094 C 20.117188 28.925781 20.328125 28.820312 20.527344 28.886719 L 20.746094 28.960938 L 20.738281 28.742188 C 20.726562 28.539062 20.882812 28.367188 21.085938 28.359375 C 21.089844 28.359375 21.097656 28.359375 21.101562 28.359375 C 21.304688 28.359375 21.46875 28.523438 21.46875 28.726562 C 21.46875 28.730469 21.46875 28.734375 21.46875 28.742188 L 21.457031 28.960938 L 21.675781 28.886719 C 21.875 28.820312 22.085938 28.925781 22.152344 29.121094 L 22.152344 29.125 C 22.21875 29.308594 22.121094 29.511719 21.933594 29.578125 C 21.929688 29.578125 21.921875 29.582031 21.914062 29.582031 L 21.703125 29.644531 L 21.847656 29.832031 C 21.976562 29.996094 21.945312 30.230469 21.78125 30.359375 C 21.78125 30.363281 21.777344 30.363281 21.773438 30.367188 C 21.605469 30.492188 21.367188 30.457031 21.246094 30.289062 C 21.242188 30.285156 21.238281 30.28125 21.238281 30.277344 Z M 18.273438 30.082031 L 18.140625 30.277344 C 18.023438 30.449219 17.789062 30.492188 17.617188 30.375 C 17.613281 30.375 17.609375 30.371094 17.605469 30.367188 L 17.601562 30.367188 C 17.433594 30.242188 17.398438 30.007812 17.523438 29.839844 C 17.523438 29.835938 17.523438 29.832031 17.527344 29.832031 L 17.671875 29.644531 L 17.460938 29.582031 C 17.269531 29.53125 17.160156 29.332031 17.214844 29.144531 C 17.21875 29.136719 17.21875 29.132812 17.222656 29.125 L 17.222656 29.121094 C 17.289062 28.925781 17.503906 28.820312 17.699219 28.886719 L 17.917969 28.960938 L 17.910156 28.742188 C 17.898438 28.539062 18.054688 28.367188 18.257812 28.359375 C 18.261719 28.359375 18.269531 28.359375 18.273438 28.359375 C 18.476562 28.359375 18.640625 28.523438 18.640625 28.726562 C 18.640625 28.730469 18.640625 28.734375 18.640625 28.742188 L 18.628906 28.960938 L 18.851562 28.886719 C 19.046875 28.820312 19.257812 28.925781 19.324219 29.121094 L 19.328125 29.125 C 19.390625 29.308594 19.292969 29.511719 19.105469 29.578125 C 19.101562 29.578125 19.09375 29.582031 19.085938 29.582031 L 18.875 29.644531 L 19.019531 29.832031 C 19.148438 29.996094 19.117188 30.230469 18.953125 30.359375 C 18.953125 30.363281 18.949219 30.363281 18.949219 30.367188 L 18.945312 30.367188 C 18.777344 30.492188 18.539062 30.457031 18.417969 30.289062 C 18.414062 30.285156 18.410156 30.28125 18.410156 30.277344 Z M 16.746094 27.566406 C 16.539062 27.566406 16.367188 27.738281 16.367188 27.945312 L 16.367188 30.773438 C 16.367188 30.980469 16.539062 31.148438 16.746094 31.148438 L 28.246094 31.148438 C 28.453125 31.148438 28.621094 30.980469 28.621094 30.773438 L 28.621094 27.945312 C 28.621094 27.738281 28.453125 27.566406 28.246094 27.566406 Z M 16.746094 27.191406 L 28.246094 27.191406 C 28.664062 27.191406 29 27.527344 29 27.945312 L 29 30.773438 C 29 31.1875 28.664062 31.527344 28.246094 31.527344 L 16.746094 31.527344 C 16.328125 31.527344 15.992188 31.1875 15.992188 30.773438 L 15.992188 27.945312 C 15.992188 27.527344 16.328125 27.191406 16.746094 27.191406 Z M 16.746094 27.191406 " fill-opacity="1" fill-rule="nonzero"/></g></svg>