<svg xmlns="http://www.w3.org/2000/svg" xmlns:xlink="http://www.w3.org/1999/xlink" width="60" zoomAndPan="magnify" viewBox="0 0 45 44.999999" height="60" preserveAspectRatio="xMidYMid meet" version="1.0"><defs><clipPath id="01d4795b3f"><path d="M 1.949219 1.949219 L 43.050781 1.949219 L 43.050781 43.050781 L 1.949219 43.050781 Z M 1.949219 1.949219 " clip-rule="nonzero"/></clipPath><clipPath id="2e72cbeabb"><path d="M 7.199219 1.949219 L 37.800781 1.949219 C 39.191406 1.949219 40.527344 2.503906 41.511719 3.488281 C 42.496094 4.472656 43.050781 5.808594 43.050781 7.199219 L 43.050781 37.800781 C 43.050781 39.191406 42.496094 40.527344 41.511719 41.511719 C 40.527344 42.496094 39.191406 43.050781 37.800781 43.050781 L 7.199219 43.050781 C 5.808594 43.050781 4.472656 42.496094 3.488281 41.511719 C 2.503906 40.527344 1.949219 39.191406 1.949219 37.800781 L 1.949219 7.199219 C 1.949219 5.808594 2.503906 4.472656 3.488281 3.488281 C 4.472656 2.503906 5.808594 1.949219 7.199219 1.949219 Z M 7.199219 1.949219 " clip-rule="nonzero"/></clipPath><clipPath id="fd0e7ddb14"><path d="M 0.949219 0.949219 L 42.050781 0.949219 L 42.050781 42.050781 L 0.949219 42.050781 Z M 0.949219 0.949219 " clip-rule="nonzero"/></clipPath><clipPath id="fac0e43cfb"><path d="M 6.199219 0.949219 L 36.800781 0.949219 C 38.191406 0.949219 39.527344 1.503906 40.511719 2.488281 C 41.496094 3.472656 42.050781 4.808594 42.050781 6.199219 L 42.050781 36.800781 C 42.050781 38.191406 41.496094 39.527344 40.511719 40.511719 C 39.527344 41.496094 38.191406 42.050781 36.800781 42.050781 L 6.199219 42.050781 C 4.808594 42.050781 3.472656 41.496094 2.488281 40.511719 C 1.503906 39.527344 0.949219 38.191406 0.949219 36.800781 L 0.949219 6.199219 C 0.949219 4.808594 1.503906 3.472656 2.488281 2.488281 C 3.472656 1.503906 4.808594 0.949219 6.199219 0.949219 Z M 6.199219 0.949219 " clip-rule="nonzero"/></clipPath><clipPath id="2be983de26"><rect x="0" width="43" y="0" height="43"/></clipPath><clipPath id="00ed73d28a"><path d="M 1.949219 1.949219 L 42.273438 1.949219 L 42.273438 42.273438 L 1.949219 42.273438 Z M 1.949219 1.949219 " clip-rule="nonzero"/></clipPath><clipPath id="8bf418ad9b"><path d="M 7.199219 1.949219 L 37.023438 1.949219 C 38.417969 1.949219 39.753906 2.503906 40.738281 3.488281 C 41.722656 4.472656 42.273438 5.808594 42.273438 7.199219 L 42.273438 37.023438 C 42.273438 38.417969 41.722656 39.753906 40.738281 40.738281 C 39.753906 41.722656 38.417969 42.273438 37.023438 42.273438 L 7.199219 42.273438 C 5.808594 42.273438 4.472656 41.722656 3.488281 40.738281 C 2.503906 39.753906 1.949219 38.417969 1.949219 37.023438 L 1.949219 7.199219 C 1.949219 5.808594 2.503906 4.472656 3.488281 3.488281 C 4.472656 2.503906 5.808594 1.949219 7.199219 1.949219 Z M 7.199219 1.949219 " clip-rule="nonzero"/></clipPath><clipPath id="0188ae349c"><path d="M 0.949219 0.949219 L 41.273438 0.949219 L 41.273438 41.273438 L 0.949219 41.273438 Z M 0.949219 0.949219 " clip-rule="nonzero"/></clipPath><clipPath id="d65eb135b0"><path d="M 6.199219 0.949219 L 36.023438 0.949219 C 37.417969 0.949219 38.753906 1.503906 39.738281 2.488281 C 40.722656 3.472656 41.273438 4.808594 41.273438 6.199219 L 41.273438 36.023438 C 41.273438 37.417969 40.722656 38.753906 39.738281 39.738281 C 38.753906 40.722656 37.417969 41.273438 36.023438 41.273438 L 6.199219 41.273438 C 4.808594 41.273438 3.472656 40.722656 2.488281 39.738281 C 1.503906 38.753906 0.949219 37.417969 0.949219 36.023438 L 0.949219 6.199219 C 0.949219 4.808594 1.503906 3.472656 2.488281 2.488281 C 3.472656 1.503906 4.808594 0.949219 6.199219 0.949219 Z M 6.199219 0.949219 " clip-rule="nonzero"/></clipPath><clipPath id="784a4537aa"><rect x="0" width="42" y="0" height="42"/></clipPath><clipPath id="d32500b05e"><path d="M 17 6.828125 L 28 6.828125 L 28 13 L 17 13 Z M 17 6.828125 " clip-rule="nonzero"/></clipPath><clipPath id="6b8138bc2c"><path d="M 13 13 L 32 13 L 32 29.328125 L 13 29.328125 Z M 13 13 " clip-rule="nonzero"/></clipPath><clipPath id="784e83a77f"><path d="M 11.164062 30.632812 L 33.664062 30.632812 L 33.664062 38.132812 L 11.164062 38.132812 Z M 11.164062 30.632812 " clip-rule="nonzero"/></clipPath></defs><g clip-path="url(#01d4795b3f)"><g clip-path="url(#2e72cbeabb)"><g transform="matrix(1, 0, 0, 1, 1, 1)"><g clip-path="url(#2be983de26)"><g clip-path="url(#fd0e7ddb14)"><g clip-path="url(#fac0e43cfb)"><path fill="#29e48a" d="M 0.949219 0.949219 L 42.050781 0.949219 L 42.050781 42.050781 L 0.949219 42.050781 Z M 0.949219 0.949219 " fill-opacity="1" fill-rule="nonzero"/></g></g></g></g></g></g><g clip-path="url(#00ed73d28a)"><g clip-path="url(#8bf418ad9b)"><g transform="matrix(1, 0, 0, 1, 1, 1)"><g clip-path="url(#784a4537aa)"><g clip-path="url(#0188ae349c)"><g clip-path="url(#d65eb135b0)"><path fill="#178b53" d="M 0.949219 0.949219 L 41.273438 0.949219 L 41.273438 41.273438 L 0.949219 41.273438 Z M 0.949219 0.949219 " fill-opacity="1" fill-rule="nonzero"/></g></g></g></g></g></g><g clip-path="url(#d32500b05e)"><path fill="#ffffff" d="M 20.441406 12.777344 C 21.820312 12.605469 23.203125 12.605469 24.554688 12.777344 L 27.035156 9.394531 C 27.179688 9.167969 26.980469 8.828125 26.726562 8.746094 L 25.457031 8.238281 L 24.554688 9.957031 C 24.5 10.097656 24.300781 10.238281 24.078125 10.125 C 23.90625 10.042969 23.824219 9.816406 23.9375 9.648438 L 25.0625 7.449219 C 25.148438 7.222656 24.808594 6.828125 24.414062 6.828125 L 20.582031 6.828125 C 20.242188 6.828125 19.847656 7.109375 19.933594 7.417969 L 21.117188 9.589844 C 21.203125 9.757812 21.144531 9.984375 20.976562 10.070312 C 20.808594 10.152344 20.554688 10.042969 20.496094 9.929688 L 19.539062 8.238281 L 18.242188 8.773438 C 17.933594 8.914062 17.789062 9.167969 17.933594 9.421875 Z M 20.441406 12.777344 " fill-opacity="1" fill-rule="nonzero"/></g><path fill="#ffffff" d="M 20.777344 19.117188 L 20.777344 20.132812 C 20.777344 20.472656 21.117188 20.78125 21.425781 20.980469 L 22.246094 21.289062 L 22.246094 17.992188 L 21.90625 17.992188 C 21.285156 17.992188 20.777344 18.5 20.777344 19.117188 Z M 20.777344 19.117188 " fill-opacity="1" fill-rule="nonzero"/><g clip-path="url(#6b8138bc2c)"><path fill="#ffffff" d="M 31.855469 24.363281 C 31.125 18.355469 25.0625 13.707031 24.585938 13.507812 C 24.359375 13.394531 23.429688 13.367188 22.527344 13.367188 C 21.625 13.367188 20.667969 13.425781 20.441406 13.507812 C 19.960938 13.707031 13.902344 18.355469 13.140625 24.363281 C 12.941406 25.855469 13.253906 27.039062 14.011719 27.914062 C 15.394531 29.464844 17.875 29.492188 17.902344 29.492188 L 27.09375 29.492188 C 27.121094 29.492188 29.601562 29.464844 30.984375 27.914062 C 31.773438 27.039062 32.054688 25.828125 31.855469 24.363281 Z M 24.921875 19.597656 C 24.921875 19.792969 24.753906 19.9375 24.585938 19.9375 C 24.414062 19.9375 24.246094 19.765625 24.246094 19.597656 L 24.246094 19.117188 C 24.246094 18.5 23.738281 17.992188 23.117188 17.992188 L 22.976562 17.992188 L 22.976562 21.542969 L 23.9375 21.910156 C 24.613281 22.332031 24.949219 22.839844 24.949219 23.375 L 24.949219 24.417969 C 24.949219 25.433594 24.132812 26.25 23.117188 26.25 L 22.976562 26.25 L 22.976562 26.53125 C 22.976562 26.730469 22.808594 26.871094 22.640625 26.871094 C 22.46875 26.871094 22.300781 26.699219 22.300781 26.53125 L 22.300781 26.25 L 21.964844 26.25 C 20.949219 26.25 20.128906 25.433594 20.128906 24.417969 L 20.128906 23.9375 C 20.128906 23.742188 20.300781 23.601562 20.46875 23.601562 C 20.636719 23.601562 20.808594 23.769531 20.808594 23.9375 L 20.808594 24.417969 C 20.808594 25.039062 21.316406 25.546875 21.933594 25.546875 L 22.273438 25.546875 L 22.273438 22.050781 L 21.089844 21.597656 C 20.441406 21.175781 20.101562 20.695312 20.101562 20.132812 L 20.101562 19.117188 C 20.101562 18.101562 20.921875 17.285156 21.933594 17.285156 L 22.273438 17.285156 L 22.273438 16.917969 C 22.273438 16.722656 22.441406 16.582031 22.609375 16.582031 C 22.78125 16.582031 22.949219 16.75 22.949219 16.917969 L 22.949219 17.285156 L 23.089844 17.285156 C 24.105469 17.285156 24.921875 18.101562 24.921875 19.117188 Z M 24.921875 19.597656 " fill-opacity="1" fill-rule="nonzero"/></g><path fill="#ffffff" d="M 22.949219 25.546875 L 23.089844 25.546875 C 23.710938 25.546875 24.21875 25.039062 24.21875 24.417969 L 24.21875 23.402344 C 24.21875 23.121094 23.964844 22.8125 23.542969 22.558594 L 22.921875 22.332031 Z M 22.949219 25.546875 " fill-opacity="1" fill-rule="nonzero"/><g clip-path="url(#784e83a77f)"><path fill="#ffffff" d="M 29.902344 35.65625 L 29.667969 36 C 29.464844 36.296875 29.054688 36.375 28.757812 36.171875 C 28.75 36.164062 28.746094 36.160156 28.738281 36.15625 L 28.730469 36.152344 C 28.441406 35.9375 28.378906 35.527344 28.59375 35.234375 C 28.597656 35.230469 28.601562 35.226562 28.605469 35.222656 L 28.855469 34.898438 L 28.488281 34.792969 C 28.160156 34.699219 27.96875 34.355469 28.0625 34.027344 C 28.066406 34.015625 28.070312 34.003906 28.074219 33.996094 L 28.074219 33.988281 C 28.191406 33.648438 28.558594 33.46875 28.902344 33.582031 L 29.285156 33.710938 L 29.265625 33.328125 C 29.25 32.980469 29.523438 32.679688 29.871094 32.664062 C 29.882812 32.664062 29.890625 32.664062 29.902344 32.664062 C 30.253906 32.664062 30.539062 32.949219 30.539062 33.300781 C 30.539062 33.308594 30.535156 33.320312 30.535156 33.328125 L 30.519531 33.710938 L 30.902344 33.582031 C 31.242188 33.46875 31.609375 33.648438 31.730469 33.988281 L 31.730469 33.996094 C 31.84375 34.316406 31.671875 34.671875 31.347656 34.78125 C 31.335938 34.785156 31.328125 34.789062 31.316406 34.792969 L 30.945312 34.898438 L 31.199219 35.222656 C 31.421875 35.507812 31.371094 35.917969 31.085938 36.140625 C 31.082031 36.144531 31.074219 36.148438 31.070312 36.152344 L 31.066406 36.15625 C 30.773438 36.371094 30.363281 36.308594 30.148438 36.019531 C 30.144531 36.011719 30.140625 36.007812 30.136719 36 Z M 24.988281 35.65625 L 24.753906 36 C 24.550781 36.296875 24.140625 36.375 23.84375 36.171875 C 23.835938 36.164062 23.828125 36.160156 23.824219 36.15625 L 23.816406 36.152344 C 23.527344 35.9375 23.464844 35.527344 23.679688 35.234375 C 23.683594 35.230469 23.6875 35.226562 23.691406 35.222656 L 23.941406 34.898438 L 23.574219 34.792969 C 23.246094 34.699219 23.054688 34.355469 23.148438 34.027344 C 23.152344 34.015625 23.15625 34.003906 23.160156 33.996094 L 23.160156 33.988281 C 23.277344 33.648438 23.644531 33.46875 23.988281 33.582031 L 24.371094 33.710938 L 24.351562 33.328125 C 24.335938 32.980469 24.609375 32.679688 24.957031 32.664062 C 24.96875 32.664062 24.976562 32.664062 24.988281 32.664062 C 25.339844 32.664062 25.621094 32.949219 25.621094 33.300781 C 25.621094 33.308594 25.621094 33.320312 25.621094 33.328125 L 25.605469 33.710938 L 25.988281 33.582031 C 26.328125 33.46875 26.695312 33.648438 26.8125 33.988281 L 26.816406 33.996094 C 26.929688 34.316406 26.757812 34.671875 26.433594 34.78125 C 26.421875 34.785156 26.414062 34.789062 26.402344 34.792969 L 26.03125 34.898438 L 26.285156 35.222656 C 26.507812 35.507812 26.457031 35.917969 26.171875 36.140625 C 26.167969 36.144531 26.160156 36.148438 26.15625 36.152344 L 26.152344 36.15625 C 25.859375 36.371094 25.449219 36.308594 25.234375 36.019531 C 25.230469 36.011719 25.226562 36.007812 25.222656 36 Z M 20.074219 35.65625 L 19.839844 36 C 19.636719 36.296875 19.226562 36.375 18.929688 36.171875 C 18.921875 36.164062 18.914062 36.160156 18.910156 36.15625 L 18.902344 36.152344 C 18.613281 35.9375 18.550781 35.527344 18.765625 35.234375 C 18.769531 35.230469 18.773438 35.226562 18.773438 35.222656 L 19.027344 34.898438 L 18.660156 34.792969 C 18.332031 34.699219 18.140625 34.355469 18.234375 34.027344 C 18.238281 34.015625 18.242188 34.003906 18.246094 33.996094 L 18.246094 33.988281 C 18.363281 33.648438 18.730469 33.46875 19.074219 33.582031 L 19.457031 33.710938 L 19.4375 33.328125 C 19.421875 32.980469 19.695312 32.679688 20.042969 32.664062 C 20.054688 32.664062 20.0625 32.664062 20.074219 32.664062 C 20.425781 32.664062 20.707031 32.949219 20.707031 33.300781 C 20.707031 33.308594 20.707031 33.320312 20.707031 33.328125 L 20.691406 33.710938 L 21.074219 33.582031 C 21.414062 33.46875 21.78125 33.648438 21.898438 33.988281 L 21.902344 33.996094 C 22.015625 34.316406 21.84375 34.671875 21.519531 34.78125 C 21.507812 34.785156 21.5 34.789062 21.488281 34.792969 L 21.117188 34.898438 L 21.371094 35.222656 C 21.59375 35.507812 21.542969 35.917969 21.257812 36.140625 C 21.25 36.144531 21.246094 36.148438 21.242188 36.152344 L 21.238281 36.15625 C 20.945312 36.371094 20.535156 36.308594 20.320312 36.019531 C 20.316406 36.011719 20.3125 36.007812 20.308594 36 Z M 15.160156 35.65625 L 14.925781 36 C 14.722656 36.296875 14.3125 36.375 14.015625 36.171875 C 14.007812 36.164062 14 36.160156 13.996094 36.15625 L 13.988281 36.152344 C 13.699219 35.9375 13.636719 35.527344 13.851562 35.234375 C 13.855469 35.230469 13.859375 35.226562 13.859375 35.222656 L 14.113281 34.898438 L 13.746094 34.792969 C 13.417969 34.699219 13.226562 34.355469 13.320312 34.027344 C 13.324219 34.015625 13.328125 34.003906 13.328125 33.996094 L 13.332031 33.988281 C 13.449219 33.648438 13.816406 33.46875 14.160156 33.582031 L 14.542969 33.710938 L 14.523438 33.328125 C 14.507812 32.980469 14.78125 32.679688 15.128906 32.664062 C 15.140625 32.664062 15.148438 32.664062 15.160156 32.664062 C 15.511719 32.664062 15.792969 32.949219 15.792969 33.300781 C 15.792969 33.308594 15.792969 33.320312 15.792969 33.328125 L 15.777344 33.710938 L 16.160156 33.582031 C 16.5 33.46875 16.867188 33.648438 16.984375 33.988281 L 16.988281 33.996094 C 17.101562 34.316406 16.929688 34.671875 16.605469 34.78125 C 16.59375 34.785156 16.585938 34.789062 16.574219 34.792969 L 16.203125 34.898438 L 16.457031 35.222656 C 16.679688 35.507812 16.628906 35.917969 16.34375 36.140625 C 16.335938 36.144531 16.332031 36.148438 16.328125 36.152344 L 16.324219 36.15625 C 16.03125 36.371094 15.621094 36.308594 15.40625 36.019531 C 15.402344 36.011719 15.398438 36.007812 15.394531 36 Z M 12.503906 31.289062 C 12.140625 31.289062 11.847656 31.582031 11.847656 31.945312 L 11.847656 36.859375 C 11.847656 37.21875 12.140625 37.511719 12.503906 37.511719 L 32.488281 37.511719 C 32.851562 37.511719 33.144531 37.21875 33.144531 36.859375 L 33.144531 31.945312 C 33.144531 31.582031 32.851562 31.289062 32.488281 31.289062 Z M 12.503906 30.632812 L 32.488281 30.632812 C 33.210938 30.632812 33.796875 31.21875 33.796875 31.945312 L 33.796875 36.859375 C 33.796875 37.582031 33.210938 38.167969 32.488281 38.167969 L 12.503906 38.167969 C 11.78125 38.167969 11.191406 37.582031 11.191406 36.859375 L 11.191406 31.945312 C 11.191406 31.21875 11.78125 30.632812 12.503906 30.632812 Z M 12.503906 30.632812 " fill-opacity="1" fill-rule="nonzero"/></g></svg>