<svg xmlns="http://www.w3.org/2000/svg" xmlns:xlink="http://www.w3.org/1999/xlink" width="40" zoomAndPan="magnify" viewBox="0 0 30 30.000001" height="40" preserveAspectRatio="xMidYMid meet" version="1.0"><defs><g/><clipPath id="2e8fcab412"><path d="M 0.453125 1 L 1.378906 1 L 1.378906 2 L 0.453125 2 Z M 0.453125 1 " clip-rule="nonzero"/></clipPath><clipPath id="f717a113c0"><rect x="0" width="2" y="0" height="3"/></clipPath><clipPath id="7e8e39f9db"><path d="M 9 3.8125 L 25.675781 3.8125 L 25.675781 13 L 9 13 Z M 9 3.8125 " clip-rule="nonzero"/></clipPath><clipPath id="3175961a28"><path d="M 4.628906 13 L 20 13 L 20 24.859375 L 4.628906 24.859375 Z M 4.628906 13 " clip-rule="nonzero"/></clipPath></defs><g transform="matrix(1, 0, 0, 1, 7, 20)"><g clip-path="url(#f717a113c0)"><g clip-path="url(#2e8fcab412)"><g fill="#000000" fill-opacity="1"><g transform="translate(0.613084, 1.906283)"><g><path d="M 0.046875 0 L 0.046875 -0.0625 L 0.234375 -0.0625 L 0.234375 -0.609375 C 0.203125 -0.585938 0.171875 -0.570312 0.140625 -0.5625 C 0.117188 -0.550781 0.09375 -0.546875 0.0625 -0.546875 L 0.0625 -0.625 C 0.09375 -0.625 0.125 -0.628906 0.15625 -0.640625 C 0.195312 -0.660156 0.226562 -0.679688 0.25 -0.703125 L 0.3125 -0.703125 L 0.3125 -0.0625 L 0.484375 -0.0625 L 0.484375 0 Z M 0.046875 0 "/></g></g></g></g></g></g><g clip-path="url(#7e8e39f9db)"><path fill="#178b53" d="M 18.925781 3.988281 C 18.292969 3.832031 17.617188 4.027344 17.15625 4.492188 C 14.585938 7.144531 14.660156 6.980469 14.613281 7.195312 L 11.3125 6.5 C 11.101562 6.457031 10.894531 6.59375 10.847656 6.800781 L 10 10.839844 C 9.957031 11.046875 10.089844 11.253906 10.304688 11.300781 L 18.015625 12.921875 C 18.226562 12.964844 18.433594 12.832031 18.476562 12.625 L 18.972656 10.269531 L 19.484375 10.015625 C 19.859375 9.832031 20.230469 9.855469 20.652344 9.871094 C 21.40625 9.902344 22.40625 9.941406 23.382812 9.164062 C 23.472656 9.46875 23.75 9.695312 24.144531 9.65625 L 25.152344 9.507812 C 25.296875 9.484375 25.378906 9.351562 25.359375 9.226562 L 24.496094 4.019531 C 24.476562 3.886719 24.355469 3.800781 24.226562 3.8125 L 23.210938 3.925781 C 22.847656 3.964844 22.558594 4.296875 22.605469 4.691406 L 22.070312 4.757812 Z M 18.121094 11.394531 C 18.089844 11.550781 17.929688 11.652344 17.769531 11.621094 C 17.613281 11.585938 17.457031 11.6875 17.421875 11.847656 C 17.390625 12.007812 17.230469 12.109375 17.074219 12.078125 L 11.503906 10.90625 C 11.34375 10.871094 11.242188 10.714844 11.277344 10.554688 C 11.308594 10.398438 11.207031 10.238281 11.046875 10.207031 C 10.890625 10.171875 10.785156 10.015625 10.820312 9.855469 L 11.203125 8.03125 C 11.238281 7.871094 11.398438 7.769531 11.554688 7.800781 C 11.714844 7.835938 11.871094 7.734375 11.902344 7.574219 C 11.941406 7.414062 12.09375 7.3125 12.253906 7.347656 L 17.117188 8.371094 L 15.964844 9.144531 C 15.785156 8.738281 15.421875 8.421875 14.957031 8.320312 C 14.1875 8.160156 13.433594 8.652344 13.273438 9.417969 C 13.019531 10.625 14.328125 11.566406 15.386719 10.933594 C 15.683594 11.382812 16.304688 11.589844 16.855469 11.320312 L 18.285156 10.609375 Z M 15.082031 10.054688 C 15.039062 10.269531 14.84375 10.367188 14.628906 10.355469 L 14.609375 10.460938 C 14.582031 10.597656 14.359375 10.566406 14.390625 10.414062 L 14.410156 10.316406 C 14.300781 10.285156 14.15625 10.203125 14.078125 10.113281 C 14.019531 10.066406 14.039062 9.972656 14.09375 9.929688 C 14.144531 9.886719 14.195312 9.914062 14.242188 9.957031 C 14.292969 10.003906 14.339844 10.035156 14.386719 10.0625 C 14.527344 10.144531 14.765625 10.179688 14.796875 10.007812 C 14.828125 9.875 14.582031 9.824219 14.367188 9.675781 C 14.070312 9.5 14.195312 9.003906 14.675781 9.015625 C 14.703125 8.929688 14.691406 8.878906 14.746094 8.839844 C 14.773438 8.824219 14.800781 8.820312 14.832031 8.828125 C 14.972656 8.855469 14.90625 9 14.898438 9.058594 C 15.003906 9.09375 15.097656 9.160156 15.175781 9.246094 C 15.273438 9.34375 15.148438 9.542969 15.015625 9.40625 C 14.921875 9.320312 14.867188 9.269531 14.757812 9.25 C 14.648438 9.226562 14.527344 9.253906 14.503906 9.367188 C 14.453125 9.628906 15.175781 9.585938 15.082031 10.054688 Z M 23.792969 7.996094 C 23.839844 7.792969 24.046875 7.664062 24.25 7.714844 C 24.453125 7.761719 24.582031 7.96875 24.535156 8.171875 C 24.484375 8.371094 24.277344 8.503906 24.078125 8.453125 C 23.871094 8.40625 23.742188 8.199219 23.792969 7.996094 Z M 22.6875 5.183594 L 23.277344 8.59375 C 21.808594 9.976562 20.441406 8.988281 19.265625 9.566406 L 16.636719 10.867188 C 16.320312 11.023438 15.960938 10.898438 15.796875 10.648438 C 15.597656 10.347656 15.679688 9.941406 15.976562 9.742188 L 17.8125 8.507812 C 18.914062 7.902344 19.496094 7.199219 19.808594 6.496094 C 19.863281 6.371094 19.804688 6.222656 19.679688 6.167969 C 19.554688 6.113281 19.40625 6.167969 19.347656 6.296875 C 19.039062 6.992188 18.515625 7.476562 17.878906 7.882812 L 15.113281 7.300781 L 17.515625 4.84375 C 17.851562 4.503906 18.34375 4.359375 18.804688 4.472656 C 22.164062 5.289062 21.996094 5.269531 22.085938 5.261719 Z M 22.6875 5.183594 " fill-opacity="1" fill-rule="nonzero"/></g><g clip-path="url(#3175961a28)"><path fill="#178b53" d="M 15.441406 22.179688 C 15.382812 22.230469 15.304688 22.261719 15.226562 22.261719 L 10.410156 22.210938 C 10.238281 22.203125 10.0625 22.257812 9.914062 22.367188 L 9.347656 22.78125 L 6.808594 19.316406 C 6.546875 18.96875 6.054688 18.894531 5.710938 19.152344 L 4.726562 19.871094 C 4.621094 19.949219 4.589844 20.101562 4.675781 20.210938 L 8.269531 25.109375 C 8.34375 25.214844 8.5 25.25 8.609375 25.160156 L 9.59375 24.441406 C 9.953125 24.179688 10.011719 23.675781 9.761719 23.34375 L 9.644531 23.183594 L 10.207031 22.773438 C 10.265625 22.730469 10.332031 22.703125 10.402344 22.710938 L 15.222656 22.761719 C 15.433594 22.761719 15.632812 22.683594 15.78125 22.546875 L 19.316406 19.324219 C 19.75 18.925781 19.78125 18.242188 19.367188 17.808594 C 19.003906 17.429688 18.398438 17.371094 17.96875 17.679688 L 17.703125 17.875 L 17.703125 14.589844 C 17.703125 14.164062 17.355469 13.816406 16.925781 13.816406 C 15.644531 13.816406 12.058594 13.816406 10.582031 13.816406 C 10.152344 13.816406 9.804688 14.164062 9.804688 14.589844 L 9.804688 17.917969 C 8.714844 17.980469 8.171875 18.609375 7.886719 18.78125 C 7.773438 18.863281 7.75 19.019531 7.832031 19.128906 C 7.914062 19.242188 8.070312 19.265625 8.183594 19.183594 L 8.65625 18.835938 C 9.148438 18.476562 9.769531 18.335938 10.371094 18.449219 L 14.097656 19.164062 C 14.558594 19.253906 14.832031 19.730469 14.671875 20.175781 C 14.542969 20.523438 14.191406 20.730469 13.820312 20.664062 L 11.167969 20.195312 C 11.03125 20.171875 10.902344 20.265625 10.878906 20.398438 C 10.855469 20.535156 10.945312 20.667969 11.082031 20.691406 L 13.734375 21.160156 C 14.320312 21.261719 14.894531 20.945312 15.121094 20.394531 C 16.570312 19.328125 15.238281 20.308594 18.265625 18.085938 C 18.492188 17.921875 18.8125 17.953125 19.003906 18.152344 C 19.222656 18.382812 19.207031 18.742188 18.976562 18.953125 Z M 6.226562 20.636719 C 6.058594 20.757812 5.828125 20.722656 5.703125 20.554688 C 5.582031 20.390625 5.621094 20.160156 5.789062 20.039062 C 5.953125 19.917969 6.183594 19.949219 6.304688 20.117188 C 6.425781 20.28125 6.390625 20.515625 6.226562 20.636719 Z M 14.191406 18.671875 C 12.703125 18.386719 10.550781 17.96875 10.304688 17.9375 L 10.304688 14.589844 C 10.304688 14.441406 10.429688 14.316406 10.582031 14.316406 L 12.457031 14.316406 L 12.457031 15.628906 C 12.457031 15.765625 12.570312 15.878906 12.707031 15.878906 L 14.046875 15.878906 C 14.183594 15.878906 14.296875 15.765625 14.296875 15.628906 L 14.296875 14.316406 C 14.324219 14.316406 14.039062 14.316406 16.175781 14.316406 C 16.324219 14.316406 16.445312 14.441406 16.445312 14.589844 L 16.445312 18.800781 L 15.195312 19.714844 C 15.105469 19.144531 14.679688 18.765625 14.191406 18.671875 Z M 14.191406 18.671875 " fill-opacity="1" fill-rule="nonzero"/></g></svg>