<svg xmlns="http://www.w3.org/2000/svg" xmlns:xlink="http://www.w3.org/1999/xlink" width="40" zoomAndPan="magnify" viewBox="0 0 30 30.000001" height="40" preserveAspectRatio="xMidYMid meet" version="1.0"><defs><g/><clipPath id="b17f18e620"><path d="M 0.5625 0.507812 L 1.492188 0.507812 L 1.492188 2 L 0.5625 2 Z M 0.5625 0.507812 " clip-rule="nonzero"/></clipPath><clipPath id="e9aee6cea5"><rect x="0" width="2" y="0" height="3"/></clipPath><clipPath id="506135749d"><path d="M 4.355469 4.5625 L 25.402344 4.5625 L 25.402344 24.160156 L 4.355469 24.160156 Z M 4.355469 4.5625 " clip-rule="nonzero"/></clipPath></defs><g transform="matrix(1, 0, 0, 1, 12, 19)"><g clip-path="url(#e9aee6cea5)"><g clip-path="url(#b17f18e620)"><g fill="#000000" fill-opacity="1"><g transform="translate(0.803334, 1.59717)"><g><path d="M 0.046875 0 L 0.046875 -0.0625 L 0.234375 -0.0625 L 0.234375 -0.609375 C 0.203125 -0.585938 0.171875 -0.570312 0.140625 -0.5625 C 0.117188 -0.550781 0.09375 -0.546875 0.0625 -0.546875 L 0.0625 -0.625 C 0.09375 -0.625 0.125 -0.628906 0.15625 -0.640625 C 0.195312 -0.660156 0.226562 -0.679688 0.25 -0.703125 L 0.3125 -0.703125 L 0.3125 -0.0625 L 0.484375 -0.0625 L 0.484375 0 Z M 0.046875 0 "/></g></g></g></g></g></g><g clip-path="url(#506135749d)"><path fill="#178b53" d="M 6.257812 4.5625 L 6.257812 5.90625 L 4.464844 5.90625 L 4.464844 17.5625 L 12.53125 17.5625 L 12.53125 19.355469 L 9.730469 19.355469 L 14.324219 24.480469 L 18.917969 19.355469 L 16.117188 19.355469 L 16.117188 17.5625 L 24.1875 17.5625 L 24.1875 16.21875 L 25.53125 16.21875 L 25.53125 4.5625 Z M 7.152344 5.457031 L 24.636719 5.457031 L 24.636719 15.320312 L 24.1875 15.320312 L 24.1875 5.90625 L 7.152344 5.90625 Z M 7.851562 6.804688 L 20.796875 6.804688 C 21.242188 6.804688 21.398438 7.050781 21.625 7.574219 C 21.714844 7.785156 21.796875 7.988281 21.945312 8.132812 C 22.117188 8.304688 22.371094 8.398438 22.632812 8.5 C 22.996094 8.636719 23.289062 8.769531 23.289062 8.933594 L 23.289062 14.535156 C 23.289062 14.699219 22.996094 14.832031 22.632812 14.96875 C 22.371094 15.070312 22.117188 15.164062 21.945312 15.335938 C 21.796875 15.480469 21.714844 15.683594 21.625 15.894531 C 21.398438 16.417969 21.242188 16.664062 20.796875 16.664062 L 7.851562 16.664062 C 7.40625 16.664062 7.25 16.417969 7.027344 15.894531 C 6.9375 15.683594 6.851562 15.480469 6.703125 15.335938 C 6.535156 15.164062 6.277344 15.070312 6.019531 14.96875 C 5.65625 14.832031 5.359375 14.699219 5.359375 14.535156 L 5.359375 8.933594 C 5.359375 8.910156 5.363281 8.882812 5.375 8.863281 C 5.378906 8.84375 5.390625 8.832031 5.414062 8.808594 C 5.445312 8.777344 5.496094 8.742188 5.554688 8.707031 C 5.601562 8.679688 5.664062 8.652344 5.722656 8.625 C 5.8125 8.585938 5.917969 8.539062 6.019531 8.5 C 6.042969 8.488281 6.0625 8.480469 6.089844 8.46875 C 6.125 8.457031 6.152344 8.441406 6.1875 8.429688 C 6.253906 8.402344 6.324219 8.378906 6.394531 8.34375 C 6.414062 8.335938 6.425781 8.324219 6.4375 8.316406 C 6.453125 8.308594 6.464844 8.296875 6.480469 8.289062 C 6.5625 8.242188 6.640625 8.199219 6.703125 8.132812 C 6.875 7.960938 6.929688 7.804688 7 7.644531 C 7.007812 7.621094 7.015625 7.597656 7.027344 7.574219 C 7.089844 7.421875 7.144531 7.300781 7.207031 7.195312 C 7.246094 7.132812 7.285156 7.078125 7.320312 7.027344 C 7.390625 6.945312 7.464844 6.882812 7.558594 6.84375 C 7.574219 6.839844 7.585938 6.835938 7.601562 6.832031 C 7.671875 6.808594 7.757812 6.804688 7.851562 6.804688 Z M 14.324219 7.25 C 12.101562 7.25 10.289062 9.261719 10.289062 11.734375 C 10.289062 14.207031 12.101562 16.21875 14.324219 16.21875 C 16.550781 16.21875 18.359375 14.207031 18.359375 11.734375 C 18.359375 9.261719 16.550781 7.25 14.324219 7.25 Z M 7.824219 10.839844 C 7.207031 10.839844 6.703125 11.339844 6.703125 11.957031 C 6.703125 12.578125 7.207031 13.078125 7.824219 13.078125 C 8.445312 13.078125 8.945312 12.578125 8.945312 11.957031 C 8.945312 11.339844 8.445312 10.839844 7.824219 10.839844 Z M 20.824219 10.839844 C 20.207031 10.839844 19.703125 11.339844 19.703125 11.957031 C 19.703125 12.578125 20.207031 13.078125 20.824219 13.078125 C 21.441406 13.078125 21.945312 12.578125 21.945312 11.957031 C 21.945312 11.339844 21.441406 10.839844 20.824219 10.839844 Z M 20.824219 10.839844 " fill-opacity="1" fill-rule="nonzero"/></g></svg>