<svg xmlns="http://www.w3.org/2000/svg" xmlns:xlink="http://www.w3.org/1999/xlink" width="40" zoomAndPan="magnify" viewBox="0 0 30 30.000001" height="40" preserveAspectRatio="xMidYMid meet" version="1.0"><defs><g/><clipPath id="526b9c7207"><path d="M 0.453125 1 L 1.378906 1 L 1.378906 2 L 0.453125 2 Z M 0.453125 1 " clip-rule="nonzero"/></clipPath><clipPath id="285107ad8c"><rect x="0" width="2" y="0" height="3"/></clipPath><clipPath id="c14621d206"><path d="M 9 3.8125 L 25.675781 3.8125 L 25.675781 13 L 9 13 Z M 9 3.8125 " clip-rule="nonzero"/></clipPath><clipPath id="8861153c3c"><path d="M 4.628906 13 L 20 13 L 20 24.859375 L 4.628906 24.859375 Z M 4.628906 13 " clip-rule="nonzero"/></clipPath><clipPath id="3f0fd91da9"><path d="M 4.507812 9 L 24 9 L 24 25.019531 L 4.507812 25.019531 Z M 4.507812 9 " clip-rule="nonzero"/></clipPath><clipPath id="48319fabcc"><path d="M 17 15 L 25.554688 15 L 25.554688 21 L 17 21 Z M 17 15 " clip-rule="nonzero"/></clipPath><clipPath id="3433c41a0c"><path d="M 8 3.972656 L 22 3.972656 L 22 12 L 8 12 Z M 8 3.972656 " clip-rule="nonzero"/></clipPath></defs><g transform="matrix(1, 0, 0, 1, 7, 20)"><g clip-path="url(#285107ad8c)"><g clip-path="url(#526b9c7207)"><g fill="#000000" fill-opacity="1"><g transform="translate(0.613084, 1.906283)"><g><path d="M 0.046875 0 L 0.046875 -0.0625 L 0.234375 -0.0625 L 0.234375 -0.609375 C 0.203125 -0.585938 0.171875 -0.570312 0.140625 -0.5625 C 0.117188 -0.550781 0.09375 -0.546875 0.0625 -0.546875 L 0.0625 -0.625 C 0.09375 -0.625 0.125 -0.628906 0.15625 -0.640625 C 0.195312 -0.660156 0.226562 -0.679688 0.25 -0.703125 L 0.3125 -0.703125 L 0.3125 -0.0625 L 0.484375 -0.0625 L 0.484375 0 Z M 0.046875 0 "/></g></g></g></g></g></g><g clip-path="url(#c14621d206)"><path fill="#ffffff" d="M 18.925781 3.988281 C 18.292969 3.832031 17.617188 4.027344 17.15625 4.492188 C 14.585938 7.144531 14.660156 6.980469 14.613281 7.195312 L 11.3125 6.5 C 11.101562 6.457031 10.894531 6.59375 10.847656 6.800781 L 10 10.839844 C 9.957031 11.046875 10.089844 11.253906 10.304688 11.300781 L 18.015625 12.921875 C 18.226562 12.964844 18.433594 12.832031 18.476562 12.625 L 18.972656 10.269531 L 19.484375 10.015625 C 19.859375 9.832031 20.230469 9.855469 20.652344 9.871094 C 21.40625 9.902344 22.40625 9.941406 23.382812 9.164062 C 23.472656 9.46875 23.75 9.695312 24.144531 9.65625 L 25.152344 9.507812 C 25.296875 9.484375 25.378906 9.351562 25.359375 9.226562 L 24.496094 4.019531 C 24.476562 3.886719 24.355469 3.800781 24.226562 3.8125 L 23.210938 3.925781 C 22.847656 3.964844 22.558594 4.296875 22.605469 4.691406 L 22.070312 4.757812 Z M 18.121094 11.394531 C 18.089844 11.550781 17.929688 11.652344 17.769531 11.621094 C 17.613281 11.585938 17.457031 11.6875 17.421875 11.847656 C 17.390625 12.007812 17.230469 12.109375 17.074219 12.078125 L 11.503906 10.90625 C 11.34375 10.871094 11.242188 10.714844 11.277344 10.554688 C 11.308594 10.398438 11.207031 10.238281 11.046875 10.207031 C 10.890625 10.171875 10.785156 10.015625 10.820312 9.855469 L 11.203125 8.03125 C 11.238281 7.871094 11.398438 7.769531 11.554688 7.800781 C 11.714844 7.835938 11.871094 7.734375 11.902344 7.574219 C 11.941406 7.414062 12.09375 7.3125 12.253906 7.347656 L 17.117188 8.371094 L 15.964844 9.144531 C 15.785156 8.738281 15.421875 8.421875 14.957031 8.320312 C 14.1875 8.160156 13.433594 8.652344 13.273438 9.417969 C 13.019531 10.625 14.328125 11.566406 15.386719 10.933594 C 15.683594 11.382812 16.304688 11.589844 16.855469 11.320312 L 18.285156 10.609375 Z M 15.082031 10.054688 C 15.039062 10.269531 14.84375 10.367188 14.628906 10.355469 L 14.609375 10.460938 C 14.582031 10.597656 14.359375 10.566406 14.390625 10.414062 L 14.410156 10.316406 C 14.300781 10.285156 14.15625 10.203125 14.078125 10.113281 C 14.019531 10.066406 14.039062 9.972656 14.09375 9.929688 C 14.144531 9.886719 14.195312 9.914062 14.242188 9.957031 C 14.292969 10.003906 14.339844 10.035156 14.386719 10.0625 C 14.527344 10.144531 14.765625 10.179688 14.796875 10.007812 C 14.828125 9.875 14.582031 9.824219 14.367188 9.675781 C 14.070312 9.5 14.195312 9.003906 14.675781 9.015625 C 14.703125 8.929688 14.691406 8.878906 14.746094 8.839844 C 14.773438 8.824219 14.800781 8.820312 14.832031 8.828125 C 14.972656 8.855469 14.90625 9 14.898438 9.058594 C 15.003906 9.09375 15.097656 9.160156 15.175781 9.246094 C 15.273438 9.34375 15.148438 9.542969 15.015625 9.40625 C 14.921875 9.320312 14.867188 9.269531 14.757812 9.25 C 14.648438 9.226562 14.527344 9.253906 14.503906 9.367188 C 14.453125 9.628906 15.175781 9.585938 15.082031 10.054688 Z M 23.792969 7.996094 C 23.839844 7.792969 24.046875 7.664062 24.25 7.714844 C 24.453125 7.761719 24.582031 7.96875 24.535156 8.171875 C 24.484375 8.371094 24.277344 8.503906 24.078125 8.453125 C 23.871094 8.40625 23.742188 8.199219 23.792969 7.996094 Z M 22.6875 5.183594 L 23.277344 8.59375 C 21.808594 9.976562 20.441406 8.988281 19.265625 9.566406 L 16.636719 10.867188 C 16.320312 11.023438 15.960938 10.898438 15.796875 10.648438 C 15.597656 10.347656 15.679688 9.941406 15.976562 9.742188 L 17.8125 8.507812 C 18.914062 7.902344 19.496094 7.199219 19.808594 6.496094 C 19.863281 6.371094 19.804688 6.222656 19.679688 6.167969 C 19.554688 6.113281 19.40625 6.167969 19.347656 6.296875 C 19.039062 6.992188 18.515625 7.476562 17.878906 7.882812 L 15.113281 7.300781 L 17.515625 4.84375 C 17.851562 4.503906 18.34375 4.359375 18.804688 4.472656 C 22.164062 5.289062 21.996094 5.269531 22.085938 5.261719 Z M 22.6875 5.183594 " fill-opacity="1" fill-rule="nonzero"/></g><g clip-path="url(#8861153c3c)"><path fill="#ffffff" d="M 15.441406 22.179688 C 15.382812 22.230469 15.304688 22.261719 15.226562 22.261719 L 10.410156 22.210938 C 10.238281 22.203125 10.0625 22.257812 9.914062 22.367188 L 9.347656 22.78125 L 6.808594 19.316406 C 6.546875 18.96875 6.054688 18.894531 5.710938 19.152344 L 4.726562 19.871094 C 4.621094 19.949219 4.589844 20.101562 4.675781 20.210938 L 8.269531 25.109375 C 8.34375 25.214844 8.5 25.25 8.609375 25.160156 L 9.59375 24.441406 C 9.953125 24.179688 10.011719 23.675781 9.761719 23.34375 L 9.644531 23.183594 L 10.207031 22.773438 C 10.265625 22.730469 10.332031 22.703125 10.402344 22.710938 L 15.222656 22.761719 C 15.433594 22.761719 15.632812 22.683594 15.78125 22.546875 L 19.316406 19.324219 C 19.75 18.925781 19.78125 18.242188 19.367188 17.808594 C 19.003906 17.429688 18.398438 17.371094 17.96875 17.679688 L 17.703125 17.875 L 17.703125 14.589844 C 17.703125 14.164062 17.355469 13.816406 16.925781 13.816406 C 15.644531 13.816406 12.058594 13.816406 10.582031 13.816406 C 10.152344 13.816406 9.804688 14.164062 9.804688 14.589844 L 9.804688 17.917969 C 8.714844 17.980469 8.171875 18.609375 7.886719 18.78125 C 7.773438 18.863281 7.75 19.019531 7.832031 19.128906 C 7.914062 19.242188 8.070312 19.265625 8.183594 19.183594 L 8.65625 18.835938 C 9.148438 18.476562 9.769531 18.335938 10.371094 18.449219 L 14.097656 19.164062 C 14.558594 19.253906 14.832031 19.730469 14.671875 20.175781 C 14.542969 20.523438 14.191406 20.730469 13.820312 20.664062 L 11.167969 20.195312 C 11.03125 20.171875 10.902344 20.265625 10.878906 20.398438 C 10.855469 20.535156 10.945312 20.667969 11.082031 20.691406 L 13.734375 21.160156 C 14.320312 21.261719 14.894531 20.945312 15.121094 20.394531 C 16.570312 19.328125 15.238281 20.308594 18.265625 18.085938 C 18.492188 17.921875 18.8125 17.953125 19.003906 18.152344 C 19.222656 18.382812 19.207031 18.742188 18.976562 18.953125 Z M 6.226562 20.636719 C 6.058594 20.757812 5.828125 20.722656 5.703125 20.554688 C 5.582031 20.390625 5.621094 20.160156 5.789062 20.039062 C 5.953125 19.917969 6.183594 19.949219 6.304688 20.117188 C 6.425781 20.28125 6.390625 20.515625 6.226562 20.636719 Z M 14.191406 18.671875 C 12.703125 18.386719 10.550781 17.96875 10.304688 17.9375 L 10.304688 14.589844 C 10.304688 14.441406 10.429688 14.316406 10.582031 14.316406 L 12.457031 14.316406 L 12.457031 15.628906 C 12.457031 15.765625 12.570312 15.878906 12.707031 15.878906 L 14.046875 15.878906 C 14.183594 15.878906 14.296875 15.765625 14.296875 15.628906 L 14.296875 14.316406 C 14.324219 14.316406 14.039062 14.316406 16.175781 14.316406 C 16.324219 14.316406 16.445312 14.441406 16.445312 14.589844 L 16.445312 18.800781 L 15.195312 19.714844 C 15.105469 19.144531 14.679688 18.765625 14.191406 18.671875 Z M 14.191406 18.671875 " fill-opacity="1" fill-rule="nonzero"/></g><g clip-path="url(#3f0fd91da9)"><path fill="#178b53" d="M 23.777344 14 C 23.777344 12.921875 23.042969 12.195312 21.964844 12.195312 C 17.246094 12.195312 12.527344 12.195312 7.808594 12.195312 C 7.410156 12.195312 7.011719 12.199219 6.617188 12.195312 C 6.175781 12.1875 5.789062 12.050781 5.515625 11.6875 C 5.402344 11.535156 5.363281 11.363281 5.402344 11.203125 C 5.613281 11.285156 5.808594 11.375 6.015625 11.441406 C 6.480469 11.589844 6.960938 11.527344 7.4375 11.527344 C 7.484375 11.527344 7.542969 11.46875 7.574219 11.421875 C 7.878906 10.976562 8.183594 10.53125 8.484375 10.082031 C 8.574219 9.953125 8.660156 9.820312 8.757812 9.675781 C 8.714844 9.667969 8.691406 9.660156 8.671875 9.660156 C 7.929688 9.664062 7.183594 9.652344 6.445312 9.679688 C 5.328125 9.722656 4.511719 10.59375 4.511719 11.707031 C 4.511719 13.894531 4.515625 16.078125 4.515625 18.265625 C 4.515625 19.859375 4.507812 21.453125 4.515625 23.046875 C 4.519531 23.9375 5.019531 24.679688 5.839844 24.929688 C 6.160156 25.03125 6.515625 25.046875 6.859375 25.046875 C 11.90625 25.054688 16.953125 25.054688 21.996094 25.054688 C 22.875 25.054688 23.648438 24.453125 23.730469 23.585938 C 23.808594 22.78125 23.746094 21.96875 23.746094 21.132812 L 23.585938 21.132812 C 22.132812 21.132812 20.683594 21.136719 19.234375 21.128906 C 18.03125 21.125 17.109375 20.191406 17.105469 18.988281 C 17.105469 18.558594 17.101562 18.125 17.109375 17.695312 C 17.125 17.070312 17.390625 16.558594 17.867188 16.167969 C 18.273438 15.835938 18.75 15.691406 19.277344 15.695312 C 20.703125 15.699219 22.132812 15.695312 23.558594 15.691406 L 23.777344 15.691406 C 23.777344 15.609375 23.777344 15.546875 23.777344 15.484375 C 23.777344 14.988281 23.777344 14.496094 23.777344 14 Z M 22.460938 21.625 C 22.460938 21.46875 22.589844 21.339844 22.75 21.339844 C 22.828125 21.339844 22.902344 21.371094 22.953125 21.421875 C 23.003906 21.472656 23.039062 21.546875 23.039062 21.625 L 23.039062 22.796875 C 23.039062 22.957031 22.910156 23.085938 22.75 23.085938 C 22.589844 23.085938 22.460938 22.957031 22.460938 22.796875 Z M 22.460938 23.503906 C 22.460938 23.34375 22.589844 23.214844 22.75 23.214844 C 22.828125 23.214844 22.902344 23.246094 22.953125 23.300781 C 23.003906 23.351562 23.039062 23.425781 23.039062 23.503906 L 23.039062 24.085938 C 23.039062 24.246094 22.910156 24.375 22.75 24.375 C 22.589844 24.375 22.460938 24.246094 22.460938 24.085938 Z M 23.011719 15.476562 L 22.492188 15.476562 C 22.492188 15.476562 22.492188 15.324219 22.492188 15.125 C 22.492188 15.117188 22.492188 15.109375 22.492188 15.101562 L 22.492188 14.703125 C 22.492188 14.546875 22.492188 14.414062 22.492188 14.351562 C 22.488281 14.191406 22.355469 13.878906 22.046875 13.757812 C 21.980469 13.738281 21.910156 13.71875 21.839844 13.707031 C 21.785156 13.699219 21.734375 13.695312 21.679688 13.695312 C 21.171875 13.691406 20.660156 13.691406 20.152344 13.691406 L 20.148438 13.691406 C 18.550781 13.691406 16.949219 13.691406 15.347656 13.695312 C 12.65625 13.695312 9.960938 13.695312 7.269531 13.691406 C 7.179688 13.691406 7.085938 13.691406 6.992188 13.6875 C 5.445312 13.679688 5.488281 12.953125 5.488281 12.953125 C 5.867188 13.109375 6.226562 13.15625 6.589844 13.164062 L 6.59375 13.164062 C 6.664062 13.164062 6.734375 13.167969 6.804688 13.167969 C 7.652344 13.164062 8.503906 13.164062 9.351562 13.164062 L 9.367188 13.164062 C 12.328125 13.160156 15.285156 13.15625 18.246094 13.15625 C 19.34375 13.15625 20.445312 13.152344 21.542969 13.160156 C 21.59375 13.160156 21.648438 13.164062 21.699219 13.167969 C 22.074219 13.171875 22.34375 13.230469 22.535156 13.308594 C 22.824219 13.425781 23.011719 13.707031 23.011719 14.015625 Z M 23.011719 15.476562 " fill-opacity="1" fill-rule="nonzero"/></g><g clip-path="url(#48319fabcc)"><path fill="#178b53" d="M 25.476562 16.675781 C 25.472656 16.289062 25.25 16.007812 24.882812 15.878906 C 24.507812 16.265625 24.296875 16.351562 23.738281 16.351562 C 22.25 16.347656 20.757812 16.347656 19.269531 16.347656 C 18.40625 16.351562 17.746094 17.003906 17.746094 17.867188 C 17.746094 18.214844 17.746094 18.566406 17.75 18.917969 C 17.757812 19.847656 18.375 20.464844 19.304688 20.46875 C 20.488281 20.472656 21.671875 20.472656 22.859375 20.472656 C 23.324219 20.472656 23.792969 20.484375 24.253906 20.445312 C 24.957031 20.386719 25.457031 19.875 25.472656 19.195312 C 25.488281 18.355469 25.484375 17.515625 25.476562 16.675781 Z M 19.773438 19.339844 C 19.265625 19.347656 18.835938 18.917969 18.835938 18.394531 C 18.832031 17.875 19.25 17.464844 19.78125 17.46875 C 20.3125 17.46875 20.734375 17.875 20.738281 18.394531 C 20.746094 18.90625 20.304688 19.335938 19.773438 19.339844 Z M 19.773438 19.339844 " fill-opacity="1" fill-rule="nonzero"/></g><path fill="#178b53" d="M 19.3125 11.535156 C 19.59375 11.238281 19.867188 10.945312 20.148438 10.660156 C 20.316406 10.492188 20.320312 10.496094 20.164062 10.316406 C 19.941406 10.0625 19.929688 9.84375 20.117188 9.566406 C 20.15625 9.507812 20.199219 9.453125 20.242188 9.398438 C 20.386719 9.1875 20.335938 8.980469 20.101562 8.882812 C 19.707031 8.714844 19.3125 8.558594 18.917969 8.398438 C 18.359375 8.171875 17.796875 7.949219 17.238281 7.71875 C 16.980469 7.613281 16.757812 7.660156 16.558594 7.847656 C 16.480469 7.917969 16.40625 7.988281 16.332031 8.0625 C 15.976562 8.417969 15.542969 8.488281 15.09375 8.265625 C 14.644531 8.042969 14.628906 8.050781 14.269531 8.414062 C 13.308594 9.390625 12.335938 10.355469 11.382812 11.335938 C 11.230469 11.492188 11.082031 11.550781 10.875 11.539062 C 10.613281 11.527344 10.351562 11.539062 10.042969 11.539062 C 10.117188 11.449219 10.15625 11.394531 10.207031 11.34375 C 11.722656 9.8125 13.238281 8.289062 14.75 6.757812 C 14.839844 6.667969 14.929688 6.578125 15.011719 6.480469 C 15.222656 6.234375 15.476562 6.164062 15.78125 6.289062 C 16.425781 6.554688 17.066406 6.828125 17.707031 7.09375 C 18.863281 7.574219 20.023438 8.054688 21.179688 8.535156 C 21.636719 8.722656 22.097656 8.90625 22.554688 9.097656 C 22.984375 9.273438 23.066406 9.683594 22.742188 10.019531 C 22.28125 10.5 21.816406 10.980469 21.351562 11.457031 C 21.3125 11.496094 21.253906 11.53125 21.207031 11.53125 C 20.574219 11.535156 19.941406 11.535156 19.3125 11.535156 Z M 19.3125 11.535156 " fill-opacity="1" fill-rule="nonzero"/><g clip-path="url(#3433c41a0c)"><path fill="#178b53" d="M 8.289062 11.535156 C 8.734375 10.863281 9.160156 10.230469 9.578125 9.589844 C 10.738281 7.835938 11.898438 6.078125 13.058594 4.320312 C 13.261719 4.011719 13.492188 3.910156 13.851562 4.003906 C 14.390625 4.148438 14.929688 4.292969 15.46875 4.4375 C 17.148438 4.894531 18.828125 5.351562 20.511719 5.8125 C 20.621094 5.839844 20.730469 5.882812 20.824219 5.945312 C 21.03125 6.082031 21.105469 6.320312 20.992188 6.554688 C 20.828125 6.886719 20.640625 7.210938 20.457031 7.546875 C 19.757812 7.257812 19.078125 6.976562 18.371094 6.683594 C 18.410156 6.589844 18.441406 6.5 18.484375 6.414062 C 18.601562 6.164062 18.523438 5.992188 18.253906 5.917969 C 17.863281 5.808594 17.464844 5.707031 17.074219 5.601562 C 16.5625 5.464844 16.050781 5.332031 15.539062 5.191406 C 15.234375 5.105469 14.984375 5.171875 14.796875 5.4375 C 14.738281 5.519531 14.671875 5.601562 14.613281 5.6875 C 14.34375 6.089844 13.960938 6.230469 13.496094 6.101562 C 13.390625 6.070312 13.269531 6.027344 13.175781 6.058594 C 13.050781 6.097656 12.90625 6.175781 12.832031 6.28125 C 12.039062 7.460938 11.253906 8.644531 10.46875 9.828125 C 10.109375 10.371094 9.746094 10.910156 9.386719 11.449219 C 9.359375 11.488281 9.308594 11.53125 9.269531 11.53125 C 8.953125 11.535156 8.640625 11.535156 8.289062 11.535156 Z M 8.289062 11.535156 " fill-opacity="1" fill-rule="nonzero"/></g><path fill="#178b53" d="M 17.230469 11.527344 L 13.953125 11.527344 C 13.800781 11.023438 14.058594 10.351562 14.535156 9.984375 C 15.125 9.535156 15.953125 9.484375 16.5625 9.867188 C 17.117188 10.214844 17.375 10.84375 17.230469 11.527344 Z M 17.230469 11.527344 " fill-opacity="1" fill-rule="nonzero"/><path fill="#178b53" d="M 24.324219 15.117188 C 24.324219 14.6875 24.324219 14.257812 24.324219 13.824219 C 24.328125 12.648438 23.539062 11.738281 22.371094 11.574219 C 22.320312 11.566406 22.269531 11.558594 22.179688 11.542969 C 22.378906 11.332031 22.558594 11.140625 22.742188 10.957031 C 22.765625 10.933594 22.828125 10.933594 22.867188 10.941406 C 23.65625 11.085938 24.335938 11.84375 24.359375 12.644531 C 24.382812 13.445312 24.367188 14.25 24.367188 15.054688 C 24.367188 15.078125 24.359375 15.097656 24.355469 15.121094 C 24.347656 15.121094 24.335938 15.117188 24.324219 15.117188 Z M 24.324219 15.117188 " fill-opacity="1" fill-rule="nonzero"/><path fill="#178b53" d="M 24.359375 21.171875 L 24.359375 23.214844 C 24.351562 23.214844 24.34375 23.214844 24.335938 23.214844 L 24.335938 21.171875 C 24.34375 21.171875 24.351562 21.171875 24.359375 21.171875 Z M 24.359375 21.171875 " fill-opacity="1" fill-rule="nonzero"/><path fill="#178b53" d="M 24.222656 12.839844 L 24.371094 12.839844 L 24.371094 15.714844 L 24.222656 15.714844 Z M 24.222656 12.839844 " fill-opacity="1" fill-rule="nonzero"/><path fill="#178b53" d="M 24.222656 21.117188 L 24.371094 21.117188 L 24.371094 24.214844 C 24.371094 24.253906 24.339844 24.28125 24.304688 24.28125 L 24.289062 24.28125 C 24.253906 24.28125 24.222656 24.253906 24.222656 24.214844 Z M 24.222656 21.117188 " fill-opacity="1" fill-rule="nonzero"/><path fill="#178b53" d="M 9.351562 13.164062 C 8.503906 13.164062 7.652344 13.164062 6.804688 13.167969 C 6.734375 13.167969 6.664062 13.164062 6.59375 13.164062 C 6.59375 13.164062 7.714844 13.164062 9.351562 13.164062 Z M 9.351562 13.164062 " fill-opacity="1" fill-rule="nonzero"/><path fill="#178b53" d="M 21.839844 13.707031 C 21.742188 13.699219 21.109375 13.695312 20.152344 13.691406 C 20.660156 13.691406 21.171875 13.691406 21.679688 13.695312 C 21.734375 13.695312 21.785156 13.699219 21.839844 13.707031 Z M 21.839844 13.707031 " fill-opacity="1" fill-rule="nonzero"/></svg>