<svg width="24" height="24" viewBox="0 0 24 24" fill="none" xmlns="http://www.w3.org/2000/svg">
<path d="M11.7267 9.90419C11.8179 9.61289 12.1821 9.61289 12.2733 9.90419C12.5112 10.6645 13.204 11.2026 14.0107 11.2026C14.0893 11.2026 14.1397 11.226 14.1772 11.2562C14.22 11.2906 14.2607 11.3467 14.2839 11.4211C14.3309 11.5712 14.2904 11.7099 14.1713 11.7998C13.5342 12.2804 13.2792 13.1188 13.5159 13.8754C13.568 14.0419 13.5091 14.1743 13.4033 14.2541C13.3492 14.295 13.2927 14.3127 13.2457 14.3142C13.2051 14.3155 13.1507 14.3059 13.082 14.2541C12.4386 13.7687 11.5614 13.7687 10.918 14.2541C10.8493 14.3059 10.7949 14.3154 10.7543 14.3142C10.7073 14.3127 10.6508 14.295 10.5967 14.2541C10.4909 14.1743 10.432 14.0419 10.4841 13.8754C10.7208 13.1188 10.4658 12.2804 9.82866 11.7998C9.70955 11.7099 9.6691 11.5712 9.71608 11.4211C9.73934 11.3467 9.78 11.2906 9.82281 11.2562C9.86035 11.226 9.91072 11.2026 9.98933 11.2026C10.796 11.2026 11.4888 10.6645 11.7267 9.90419Z" fill="#357219"/>
<path fill-rule="evenodd" clip-rule="evenodd" d="M1 8.34286C1 5.39208 3.37972 3 6.31524 3H17.6848C20.6203 3 23 5.39208 23 8.34286C23 9.19835 22.5119 9.97804 21.7447 10.3482L21.246 10.5889C20.0682 11.1571 20.0682 12.8429 21.246 13.4111L21.7447 13.6518C22.5119 14.022 23 14.8016 23 15.6571C23 18.6079 20.6203 21 17.6848 21H6.31524C3.37972 21 1 18.6079 1 15.6571C1 14.8016 1.48807 14.022 2.25534 13.6518L2.75404 13.4111C3.93183 12.8429 3.93183 11.1571 2.75404 10.5889L2.25534 10.3482C1.48807 9.97804 1 9.19835 1 8.34286ZM13.7374 9.44125C13.1957 7.71006 10.8043 7.71006 10.2626 9.44125C10.2175 9.58538 10.0985 9.65973 9.98933 9.65973C8.17256 9.65973 7.53366 11.9974 8.90733 13.0338C9.01118 13.1121 9.06619 13.2646 9.01992 13.4125C8.75557 14.2573 9.09575 15.0509 9.67534 15.4881C10.2585 15.9281 11.121 16.03 11.8393 15.4881C11.9369 15.4145 12.0631 15.4145 12.1607 15.4881C12.879 16.03 13.7415 15.9281 14.3247 15.4881C14.9042 15.0509 15.2444 14.2573 14.9801 13.4125C14.9338 13.2646 14.9888 13.1121 15.0927 13.0338C16.4663 11.9974 15.8274 9.65973 14.0107 9.65973C13.9015 9.65973 13.7825 9.58538 13.7374 9.44125Z" fill="#357219"/>
</svg>
