<svg xmlns="http://www.w3.org/2000/svg" xmlns:xlink="http://www.w3.org/1999/xlink" width="40" zoomAndPan="magnify" viewBox="0 0 30 30.000001" height="40" preserveAspectRatio="xMidYMid meet" version="1.0"><defs><clipPath id="07cfbe663e"><path d="M 1.828125 1.34375 L 28.171875 1.34375 L 28.171875 27.691406 L 1.828125 27.691406 Z M 1.828125 1.34375 " clip-rule="nonzero"/></clipPath><clipPath id="36899d6a78"><path d="M 15 1.34375 C 7.722656 1.34375 1.828125 7.242188 1.828125 14.515625 C 1.828125 21.792969 7.722656 27.691406 15 27.691406 C 22.277344 27.691406 28.171875 21.792969 28.171875 14.515625 C 28.171875 7.242188 22.277344 1.34375 15 1.34375 Z M 15 1.34375 " clip-rule="nonzero"/></clipPath><clipPath id="ed86f87c77"><path d="M 0.828125 0.34375 L 27.171875 0.34375 L 27.171875 26.691406 L 0.828125 26.691406 Z M 0.828125 0.34375 " clip-rule="nonzero"/></clipPath><clipPath id="081dbccd1a"><path d="M 14 0.34375 C 6.722656 0.34375 0.828125 6.242188 0.828125 13.515625 C 0.828125 20.792969 6.722656 26.691406 14 26.691406 C 21.277344 26.691406 27.171875 20.792969 27.171875 13.515625 C 27.171875 6.242188 21.277344 0.34375 14 0.34375 Z M 14 0.34375 " clip-rule="nonzero"/></clipPath><clipPath id="b56fa63925"><rect x="0" width="28" y="0" height="27"/></clipPath><clipPath id="90d236112d"><path d="M 8.878906 8.394531 L 21.121094 8.394531 L 21.121094 20.636719 L 8.878906 20.636719 Z M 8.878906 8.394531 " clip-rule="nonzero"/></clipPath><clipPath id="14000d3d58"><path d="M 15 8.394531 C 11.617188 8.394531 8.878906 11.136719 8.878906 14.515625 C 8.878906 17.898438 11.617188 20.636719 15 20.636719 C 18.382812 20.636719 21.121094 17.898438 21.121094 14.515625 C 21.121094 11.136719 18.382812 8.394531 15 8.394531 Z M 15 8.394531 " clip-rule="nonzero"/></clipPath><clipPath id="550dc760ff"><path d="M 0.878906 0.394531 L 13.121094 0.394531 L 13.121094 12.636719 L 0.878906 12.636719 Z M 0.878906 0.394531 " clip-rule="nonzero"/></clipPath><clipPath id="1e5ab67ff5"><path d="M 7 0.394531 C 3.617188 0.394531 0.878906 3.136719 0.878906 6.515625 C 0.878906 9.898438 3.617188 12.636719 7 12.636719 C 10.382812 12.636719 13.121094 9.898438 13.121094 6.515625 C 13.121094 3.136719 10.382812 0.394531 7 0.394531 Z M 7 0.394531 " clip-rule="nonzero"/></clipPath><clipPath id="04969730ea"><rect x="0" width="14" y="0" height="13"/></clipPath><clipPath id="8e4af8d0ef"><path d="M 12 11.054688 L 16 11.054688 L 16 13 L 12 13 Z M 12 11.054688 " clip-rule="nonzero"/></clipPath><clipPath id="3bede2604b"><path d="M 13 11.054688 L 18 11.054688 L 18 13 L 13 13 Z M 13 11.054688 " clip-rule="nonzero"/></clipPath><clipPath id="7b2023f0ce"><path d="M 16 11.054688 L 18 11.054688 L 18 13 L 16 13 Z M 16 11.054688 " clip-rule="nonzero"/></clipPath><clipPath id="f1b96a7fae"><path d="M 11.496094 12 L 18.753906 12 L 18.753906 18 L 11.496094 18 Z M 11.496094 12 " clip-rule="nonzero"/></clipPath><clipPath id="7d81ef73ad"><path d="M 11.496094 11.054688 L 14 11.054688 L 14 13 L 11.496094 13 Z M 11.496094 11.054688 " clip-rule="nonzero"/></clipPath><clipPath id="03c6c92a9b"><path d="M 16 15 L 18.753906 15 L 18.753906 17 L 16 17 Z M 16 15 " clip-rule="nonzero"/></clipPath></defs><g clip-path="url(#07cfbe663e)"><g clip-path="url(#36899d6a78)"><g transform="matrix(1, 0, 0, 1, 1, 1)"><g clip-path="url(#b56fa63925)"><g clip-path="url(#ed86f87c77)"><g clip-path="url(#081dbccd1a)"><path fill="#c3d8c4" d="M 0.828125 0.34375 L 27.171875 0.34375 L 27.171875 26.691406 L 0.828125 26.691406 Z M 0.828125 0.34375 " fill-opacity="1" fill-rule="nonzero"/></g></g></g></g></g></g><g clip-path="url(#90d236112d)"><g clip-path="url(#14000d3d58)"><g transform="matrix(1, 0, 0, 1, 8, 8)"><g clip-path="url(#04969730ea)"><g clip-path="url(#550dc760ff)"><g clip-path="url(#1e5ab67ff5)"><path fill="#357219" d="M 0.878906 0.394531 L 13.121094 0.394531 L 13.121094 12.636719 L 0.878906 12.636719 Z M 0.878906 0.394531 " fill-opacity="1" fill-rule="nonzero"/></g></g></g></g></g></g><g clip-path="url(#8e4af8d0ef)"><path fill="#ffffff" d="M 13.082031 12.90625 L 15.453125 11.476562 L 15.226562 11.054688 C 14.1875 11.671875 13.15625 12.289062 12.121094 12.90625 Z M 13.082031 12.90625 " fill-opacity="1" fill-rule="nonzero"/></g><g clip-path="url(#3bede2604b)"><path fill="#ffffff" d="M 17.042969 12.90625 C 16.746094 12.351562 16.445312 11.800781 16.148438 11.246094 L 13.394531 12.90625 Z M 17.042969 12.90625 " fill-opacity="1" fill-rule="nonzero"/></g><g clip-path="url(#7b2023f0ce)"><path fill="#ffffff" d="M 17.417969 12.90625 L 17.417969 12.132812 C 17.417969 11.980469 17.296875 11.859375 17.144531 11.859375 L 16.660156 11.859375 L 17.226562 12.90625 Z M 17.417969 12.90625 " fill-opacity="1" fill-rule="nonzero"/></g><path fill="#ffffff" d="M 17.179688 15.375 C 17.097656 15.375 17.035156 15.441406 17.035156 15.519531 C 17.035156 15.597656 17.097656 15.664062 17.179688 15.664062 C 17.257812 15.664062 17.324219 15.597656 17.324219 15.519531 C 17.324219 15.441406 17.257812 15.375 17.179688 15.375 Z M 17.179688 15.375 " fill-opacity="1" fill-rule="nonzero"/><g clip-path="url(#f1b96a7fae)"><path fill="#ffffff" d="M 16.40625 15.824219 L 16.40625 15.214844 C 16.40625 15.011719 16.570312 14.847656 16.773438 14.847656 L 18.128906 14.847656 L 18.128906 13.695312 C 18.128906 13.347656 17.847656 13.0625 17.5 13.0625 L 12.027344 13.0625 C 11.820312 13.0625 11.628906 12.96875 11.503906 12.820312 L 11.503906 17.34375 C 11.503906 17.6875 11.785156 17.972656 12.132812 17.972656 L 17.5 17.972656 C 17.847656 17.972656 18.128906 17.6875 18.128906 17.34375 L 18.128906 16.1875 L 16.773438 16.1875 C 16.570312 16.191406 16.40625 16.023438 16.40625 15.824219 Z M 17.652344 14.585938 C 17.652344 14.628906 17.617188 14.664062 17.570312 14.664062 C 17.527344 14.664062 17.492188 14.628906 17.492188 14.585938 L 17.492188 14.3125 C 17.492188 14.269531 17.527344 14.234375 17.570312 14.234375 C 17.617188 14.234375 17.652344 14.269531 17.652344 14.3125 Z M 17.226562 13.542969 C 17.460938 13.542969 17.652344 13.734375 17.652344 13.96875 C 17.652344 14.015625 17.617188 14.050781 17.570312 14.050781 C 17.527344 14.050781 17.492188 14.015625 17.492188 13.96875 C 17.492188 13.824219 17.371094 13.703125 17.226562 13.703125 C 17.183594 13.703125 17.144531 13.667969 17.144531 13.625 C 17.144531 13.578125 17.179688 13.542969 17.226562 13.542969 Z M 16.339844 13.542969 L 16.769531 13.542969 C 16.816406 13.542969 16.847656 13.582031 16.847656 13.625 C 16.847656 13.667969 16.816406 13.703125 16.769531 13.703125 L 16.339844 13.703125 C 16.296875 13.703125 16.261719 13.667969 16.261719 13.625 C 16.261719 13.578125 16.296875 13.542969 16.339844 13.542969 Z M 12.410156 17.496094 C 12.175781 17.496094 11.984375 17.304688 11.984375 17.066406 C 11.984375 17.023438 12.019531 16.988281 12.0625 16.988281 C 12.109375 16.988281 12.144531 17.023438 12.144531 17.066406 C 12.144531 17.214844 12.261719 17.332031 12.410156 17.332031 C 12.453125 17.332031 12.488281 17.371094 12.488281 17.414062 C 12.492188 17.457031 12.453125 17.496094 12.410156 17.496094 Z M 11.984375 15.027344 C 11.984375 14.980469 12.019531 14.945312 12.0625 14.945312 C 12.109375 14.945312 12.144531 14.980469 12.144531 15.027344 L 12.144531 15.296875 C 12.144531 15.34375 12.109375 15.378906 12.0625 15.378906 C 12.019531 15.378906 11.984375 15.34375 11.984375 15.296875 Z M 11.984375 14.585938 L 11.984375 14.3125 C 11.984375 14.269531 12.019531 14.234375 12.0625 14.234375 C 12.109375 14.234375 12.144531 14.269531 12.144531 14.3125 L 12.144531 14.585938 C 12.144531 14.628906 12.109375 14.664062 12.0625 14.664062 C 12.019531 14.664062 11.984375 14.628906 11.984375 14.585938 Z M 11.984375 15.738281 C 11.984375 15.695312 12.019531 15.660156 12.0625 15.660156 C 12.109375 15.660156 12.144531 15.695312 12.144531 15.738281 L 12.144531 16.011719 C 12.144531 16.058594 12.109375 16.089844 12.0625 16.089844 C 12.019531 16.089844 11.984375 16.058594 11.984375 16.011719 Z M 11.984375 16.453125 C 11.984375 16.40625 12.019531 16.371094 12.0625 16.371094 C 12.109375 16.371094 12.144531 16.410156 12.144531 16.453125 L 12.144531 16.726562 C 12.144531 16.769531 12.109375 16.804688 12.0625 16.804688 C 12.019531 16.804688 11.984375 16.769531 11.984375 16.726562 Z M 12.410156 13.703125 C 12.265625 13.703125 12.144531 13.824219 12.144531 13.96875 C 12.144531 14.015625 12.109375 14.050781 12.066406 14.050781 C 12.019531 14.050781 11.984375 14.015625 11.984375 13.96875 C 11.984375 13.734375 12.175781 13.542969 12.414062 13.542969 C 12.457031 13.542969 12.492188 13.582031 12.492188 13.625 C 12.492188 13.667969 12.453125 13.703125 12.410156 13.703125 Z M 13.292969 17.496094 L 12.863281 17.496094 C 12.820312 17.496094 12.785156 17.457031 12.785156 17.414062 C 12.785156 17.371094 12.820312 17.335938 12.863281 17.335938 L 13.292969 17.335938 C 13.339844 17.335938 13.375 17.371094 13.375 17.414062 C 13.375 17.457031 13.339844 17.496094 13.292969 17.496094 Z M 13.292969 13.742188 L 12.863281 13.742188 C 12.820312 13.742188 12.785156 13.710938 12.785156 13.664062 C 12.785156 13.621094 12.820312 13.585938 12.863281 13.585938 L 13.292969 13.585938 C 13.339844 13.585938 13.375 13.621094 13.375 13.664062 C 13.375 13.707031 13.339844 13.742188 13.292969 13.742188 Z M 14.164062 17.484375 L 13.734375 17.484375 C 13.6875 17.484375 13.652344 17.449219 13.652344 17.40625 C 13.652344 17.363281 13.691406 17.324219 13.734375 17.324219 L 14.164062 17.324219 C 14.207031 17.324219 14.242188 17.363281 14.242188 17.40625 C 14.242188 17.449219 14.207031 17.484375 14.164062 17.484375 Z M 14.164062 13.734375 L 13.734375 13.734375 C 13.6875 13.734375 13.652344 13.699219 13.652344 13.65625 C 13.652344 13.609375 13.691406 13.574219 13.734375 13.574219 L 14.164062 13.574219 C 14.207031 13.574219 14.242188 13.609375 14.242188 13.65625 C 14.242188 13.699219 14.207031 13.734375 14.164062 13.734375 Z M 15.03125 17.476562 L 14.601562 17.476562 C 14.558594 17.476562 14.523438 17.4375 14.523438 17.394531 C 14.523438 17.351562 14.558594 17.316406 14.601562 17.316406 L 15.03125 17.316406 C 15.078125 17.316406 15.113281 17.351562 15.113281 17.394531 C 15.113281 17.4375 15.074219 17.476562 15.03125 17.476562 Z M 15.03125 13.722656 L 14.601562 13.722656 C 14.558594 13.722656 14.523438 13.6875 14.523438 13.644531 C 14.523438 13.601562 14.558594 13.566406 14.601562 13.566406 L 15.03125 13.566406 C 15.078125 13.566406 15.113281 13.601562 15.113281 13.644531 C 15.113281 13.6875 15.074219 13.722656 15.03125 13.722656 Z M 15.898438 17.464844 L 15.472656 17.464844 C 15.425781 17.464844 15.390625 17.429688 15.390625 17.386719 C 15.390625 17.34375 15.429688 17.304688 15.472656 17.304688 L 15.898438 17.304688 C 15.945312 17.304688 15.980469 17.34375 15.980469 17.386719 C 15.980469 17.429688 15.945312 17.464844 15.898438 17.464844 Z M 15.898438 13.714844 L 15.472656 13.714844 C 15.425781 13.714844 15.390625 13.675781 15.390625 13.632812 C 15.390625 13.589844 15.429688 13.554688 15.472656 13.554688 L 15.898438 13.554688 C 15.945312 13.554688 15.980469 13.589844 15.980469 13.632812 C 15.980469 13.675781 15.945312 13.714844 15.898438 13.714844 Z M 17.492188 16.453125 C 17.492188 16.40625 17.527344 16.371094 17.570312 16.371094 C 17.617188 16.371094 17.652344 16.410156 17.652344 16.453125 L 17.652344 16.726562 C 17.652344 16.769531 17.617188 16.804688 17.570312 16.804688 C 17.527344 16.804688 17.492188 16.769531 17.492188 16.726562 Z M 17.226562 17.335938 C 17.375 17.335938 17.492188 17.214844 17.492188 17.070312 C 17.492188 17.023438 17.527344 16.988281 17.570312 16.988281 C 17.617188 16.988281 17.652344 17.023438 17.652344 17.070312 C 17.652344 17.304688 17.460938 17.496094 17.226562 17.496094 C 17.179688 17.496094 17.144531 17.460938 17.144531 17.417969 C 17.144531 17.371094 17.179688 17.335938 17.226562 17.335938 Z M 16.847656 17.375 C 16.847656 17.417969 16.816406 17.453125 16.769531 17.453125 L 16.339844 17.453125 C 16.296875 17.453125 16.261719 17.421875 16.261719 17.375 C 16.261719 17.332031 16.296875 17.296875 16.339844 17.296875 L 16.769531 17.296875 C 16.8125 17.296875 16.847656 17.332031 16.847656 17.375 Z M 16.847656 17.375 " fill-opacity="1" fill-rule="nonzero"/></g><g clip-path="url(#7d81ef73ad)"><path fill="#ffffff" d="M 11.855469 12.878906 L 13.5625 11.859375 L 12.027344 11.859375 C 11.738281 11.859375 11.503906 12.09375 11.503906 12.382812 C 11.503906 12.609375 11.652344 12.804688 11.855469 12.878906 Z M 11.855469 12.878906 " fill-opacity="1" fill-rule="nonzero"/></g><g clip-path="url(#03c6c92a9b)"><path fill="#ffffff" d="M 18.289062 15.007812 L 16.773438 15.007812 C 16.660156 15.007812 16.566406 15.101562 16.566406 15.214844 L 16.566406 15.824219 C 16.566406 15.9375 16.660156 16.03125 16.773438 16.03125 L 18.289062 16.03125 C 18.402344 16.03125 18.496094 15.9375 18.496094 15.824219 L 18.496094 15.214844 C 18.496094 15.101562 18.402344 15.007812 18.289062 15.007812 Z M 17.179688 15.824219 C 17.011719 15.824219 16.875 15.6875 16.875 15.519531 C 16.875 15.351562 17.011719 15.214844 17.179688 15.214844 C 17.347656 15.214844 17.484375 15.351562 17.484375 15.519531 C 17.484375 15.6875 17.347656 15.824219 17.179688 15.824219 Z M 17.179688 15.824219 " fill-opacity="1" fill-rule="nonzero"/></g></svg>