<svg xmlns="http://www.w3.org/2000/svg" xmlns:xlink="http://www.w3.org/1999/xlink" width="40" zoomAndPan="magnify" viewBox="0 0 30 30.000001" height="40" preserveAspectRatio="xMidYMid meet" version="1.0"><defs><g/><clipPath id="798317604c"><path d="M 0.328125 0.167969 L 1 0.167969 L 1 1.328125 L 0.328125 1.328125 Z M 0.328125 0.167969 " clip-rule="nonzero"/></clipPath><clipPath id="1c8878853a"><rect x="0" width="2" y="0" height="2"/></clipPath><clipPath id="7edf23fdd4"><path d="M 7 5.535156 L 22.816406 5.535156 L 22.816406 23.683594 L 7 23.683594 Z M 7 5.535156 " clip-rule="nonzero"/></clipPath></defs><g transform="matrix(1, 0, 0, 1, 12, 14)"><g clip-path="url(#1c8878853a)"><g clip-path="url(#798317604c)"><g fill="#000000" fill-opacity="1"><g transform="translate(0.505628, 1.096776)"><g><path d="M 0.03125 0 L 0.03125 -0.046875 L 0.15625 -0.046875 L 0.15625 -0.40625 C 0.132812 -0.394531 0.113281 -0.382812 0.09375 -0.375 C 0.0820312 -0.363281 0.0664062 -0.359375 0.046875 -0.359375 L 0.046875 -0.40625 C 0.0664062 -0.40625 0.0859375 -0.410156 0.109375 -0.421875 C 0.128906 -0.429688 0.148438 -0.445312 0.171875 -0.46875 L 0.21875 -0.46875 L 0.21875 -0.046875 L 0.328125 -0.046875 L 0.328125 0 Z M 0.03125 0 "/></g></g></g></g></g></g><g clip-path="url(#7edf23fdd4)"><path fill="#fbc83a" d="M 22.808594 14.511719 C 22.808594 11.28125 21.691406 8.296875 19.824219 5.945312 C 19.742188 5.832031 19.640625 5.746094 19.523438 5.675781 C 19.402344 5.605469 19.277344 5.5625 19.140625 5.546875 C 19.003906 5.527344 18.871094 5.539062 18.738281 5.574219 C 18.605469 5.613281 18.484375 5.671875 18.378906 5.757812 C 18.269531 5.84375 18.183594 5.945312 18.117188 6.066406 C 18.050781 6.1875 18.011719 6.316406 17.996094 6.453125 C 17.984375 6.589844 17.996094 6.722656 18.039062 6.855469 C 18.078125 6.984375 18.140625 7.105469 18.230469 7.210938 C 19.824219 9.21875 20.773438 11.75 20.773438 14.511719 C 20.773438 17.273438 19.824219 19.808594 18.230469 21.816406 C 18.140625 21.921875 18.078125 22.039062 18.039062 22.171875 C 17.996094 22.300781 17.984375 22.4375 17.996094 22.574219 C 18.011719 22.710938 18.050781 22.839844 18.117188 22.957031 C 18.183594 23.078125 18.269531 23.183594 18.378906 23.265625 C 18.484375 23.351562 18.605469 23.414062 18.738281 23.449219 C 18.871094 23.488281 19.003906 23.496094 19.140625 23.480469 C 19.277344 23.460938 19.402344 23.417969 19.523438 23.351562 C 19.640625 23.28125 19.742188 23.191406 19.824219 23.082031 C 21.691406 20.726562 22.808594 17.742188 22.808594 14.511719 Z M 18.773438 14.511719 C 18.773438 12.164062 17.941406 10 16.558594 8.320312 C 16.472656 8.21875 16.367188 8.132812 16.25 8.070312 C 16.128906 8.007812 16.003906 7.96875 15.867188 7.957031 C 15.734375 7.941406 15.601562 7.957031 15.472656 7.996094 C 15.34375 8.035156 15.226562 8.097656 15.125 8.183594 C 15.019531 8.269531 14.933594 8.371094 14.871094 8.492188 C 14.808594 8.609375 14.769531 8.738281 14.757812 8.871094 C 14.746094 9.003906 14.757812 9.136719 14.796875 9.265625 C 14.835938 9.394531 14.898438 9.511719 14.984375 9.617188 C 16.082031 10.945312 16.738281 12.644531 16.738281 14.511719 C 16.738281 16.382812 16.082031 18.078125 14.984375 19.410156 C 14.898438 19.511719 14.835938 19.628906 14.796875 19.757812 C 14.757812 19.886719 14.742188 20.019531 14.757812 20.15625 C 14.769531 20.289062 14.808594 20.417969 14.871094 20.535156 C 14.933594 20.65625 15.019531 20.757812 15.125 20.84375 C 15.226562 20.929688 15.34375 20.992188 15.472656 21.03125 C 15.601562 21.070312 15.734375 21.082031 15.867188 21.070312 C 16.003906 21.058594 16.128906 21.019531 16.25 20.957031 C 16.367188 20.890625 16.472656 20.808594 16.558594 20.703125 C 17.941406 19.023438 18.773438 16.863281 18.773438 14.511719 Z M 14.730469 14.511719 C 14.730469 13.144531 14.246094 11.875 13.425781 10.886719 C 13.339844 10.785156 13.238281 10.699219 13.117188 10.636719 C 13 10.574219 12.871094 10.535156 12.738281 10.523438 C 12.601562 10.511719 12.46875 10.527344 12.339844 10.566406 C 12.210938 10.605469 12.097656 10.667969 11.992188 10.753906 C 11.890625 10.839844 11.804688 10.945312 11.742188 11.0625 C 11.679688 11.183594 11.640625 11.308594 11.628906 11.445312 C 11.617188 11.578125 11.628906 11.710938 11.671875 11.839844 C 11.710938 11.96875 11.773438 12.085938 11.859375 12.1875 C 12.386719 12.824219 12.695312 13.621094 12.695312 14.511719 C 12.695312 15.402344 12.386719 16.203125 11.859375 16.835938 C 11.773438 16.941406 11.710938 17.058594 11.671875 17.1875 C 11.628906 17.316406 11.617188 17.445312 11.628906 17.582031 C 11.640625 17.714844 11.679688 17.84375 11.742188 17.960938 C 11.804688 18.082031 11.890625 18.183594 11.992188 18.269531 C 12.097656 18.355469 12.210938 18.417969 12.339844 18.460938 C 12.46875 18.5 12.601562 18.511719 12.738281 18.5 C 12.871094 18.488281 13 18.449219 13.117188 18.386719 C 13.238281 18.324219 13.339844 18.242188 13.425781 18.136719 C 14.246094 17.152344 14.730469 15.882812 14.730469 14.511719 Z M 10.855469 14.511719 C 10.855469 14.269531 10.808594 14.035156 10.714844 13.8125 C 10.621094 13.585938 10.488281 13.390625 10.316406 13.21875 C 10.144531 13.046875 9.945312 12.914062 9.722656 12.820312 C 9.5 12.726562 9.265625 12.679688 9.019531 12.679688 C 8.777344 12.679688 8.542969 12.726562 8.320312 12.820312 C 8.09375 12.914062 7.898438 13.046875 7.726562 13.21875 C 7.554688 13.390625 7.421875 13.585938 7.328125 13.8125 C 7.234375 14.035156 7.1875 14.269531 7.1875 14.511719 C 7.1875 14.757812 7.234375 14.988281 7.328125 15.214844 C 7.421875 15.4375 7.554688 15.636719 7.726562 15.808594 C 7.898438 15.980469 8.09375 16.113281 8.320312 16.207031 C 8.542969 16.300781 8.777344 16.34375 9.019531 16.34375 C 9.265625 16.34375 9.5 16.300781 9.722656 16.207031 C 9.945312 16.113281 10.144531 15.980469 10.316406 15.808594 C 10.488281 15.636719 10.621094 15.4375 10.714844 15.214844 C 10.808594 14.988281 10.855469 14.757812 10.855469 14.511719 Z M 10.855469 14.511719 " fill-opacity="1" fill-rule="nonzero"/></g></svg>